{
.appVersion = "954";
classes = (
{
automatic = 1;

glyphs = (
{
glyphname = A;
lastChange = "2016-12-22 13:06:28 +0000";
layers = (
{
anchors = (
{
name = bottom;
position = "{336, 0}";
},
{
name = ogonek;
position = "{658, 0}";
},
{
name = top;
position = "{336, 760}";
}
);
color = -1;
layerId = "A5DE6A3D-57BF-416A-9BB2-6BD11ABBF04E";
paths = (
{
closed = 1;
nodes = (
"94 0 LINE",
"342 701 LINE",
"328 701 LINE",
"576 0 LINE",
"658 0 LINE",
"393 740 LINE",
"278 740 LINE",
"13 0 LINE"
);
},
{
closed = 1;
nodes = (
"520 239 LINE",
"501 308 LINE",
"170 308 LINE",
"151 239 LINE"
);
}
);
width = 671;
}
);
leftKerningGroup = A;
note = "\012    520\012  ";
rightKerningGroup = A;
unicode = 0041;
userData = {
com.typemytype.robofont.layerData = {
};
};
},
{
glyphname = AE;
lastChange = "2016-12-22 13:06:28 +0000";
layers = (
{
anchors = (
{
name = bottom;
position = "{492, 0}";
},
{
name = top;
position = "{458, 760}";
}
);
color = -1;
layerId = "A5DE6A3D-57BF-416A-9BB2-6BD11ABBF04E";
paths = (
{
closed = 1;
nodes = (
"95 0 LINE",
"337 671 LINE",
"456 671 LINE",
"457 740 LINE",
"283 740 LINE",
"13 0 LINE"
);
},
{
closed = 1;
nodes = (
"478 239 LINE",
"478 308 LINE",
"172 308 LINE",
"153 239 LINE"
);
},
{
closed = 1;
nodes = (
"886 0 LINE",
"886 69 LINE",
"544 69 LINE",
"502 671 LINE",
"881 671 LINE",
"881 740 LINE",
"418 740 LINE",
"469 0 LINE"
);
},
{
closed = 1;
nodes = (
"832 345 LINE",
"832 414 LINE",
"490 414 LINE",
"490 345 LINE"
);
}
);
width = 921;
}
);
leftKerningGroup = A;
leftMetricsKey = A;
rightKerningGroup = E;
rightMetricsKey = E;
unicode = 00C6;
},
{
glyphname = B;
lastChange = "2016-12-22 13:06:28 +0000";
layers = (
{
anchors = (
{
name = bottom;
position = "{321, 0}";
},
{
name = top;
position = "{321, 740}";
}
);
color = -1;
layerId = "A5DE6A3D-57BF-416A-9BB2-6BD11ABBF04E";
paths = (
{
closed = 1;
nodes = (
"502 -6 OFFCURVE",
"592 66 OFFCURVE",
"592 201 CURVE SMOOTH",
"592 303 OFFCURVE",
"536 371 OFFCURVE",
"420 385 CURVE",
"419 378 LINE",
"526 395 OFFCURVE",
"571 465 OFFCURVE",
"571 551 CURVE SMOOTH",
"571 683 OFFCURVE",
"486 748 OFFCURVE",
"287 748 CURVE SMOOTH",
"210 748 OFFCURVE",
"144 740 OFFCURVE",
"83 728 CURVE",
"83 5 LINE",
"146 -3 OFFCURVE",
"207 -6 OFFCURVE",
"266 -6 CURVE SMOOTH"
);
},
{
closed = 1;
nodes = (
"239 58 OFFCURVE",
"202 60 OFFCURVE",
"163 65 CURVE",
"163 673 LINE",
"200 679 OFFCURVE",
"239 683 OFFCURVE",
"294 683 CURVE SMOOTH",
"438 683 OFFCURVE",
"493 644 OFFCURVE",
"493 547 CURVE SMOOTH",
"493 457 OFFCURVE",
"441 413 OFFCURVE",
"308 413 CURVE SMOOTH",
"152 413 LINE",
"152 347 LINE",
"322 347 LINE SMOOTH",
"455 347 OFFCURVE",
"515 301 OFFCURVE",
"515 204 CURVE SMOOTH",
"515 106 OFFCURVE",
"458 58 OFFCURVE",
"283 58 CURVE SMOOTH"
);
}
);
width = 627;
}
);
leftKerningGroup = H;
leftMetricsKey = H;
rightKerningGroup = B;
unicode = 0042;
userData = {
com.typemytype.robofont.layerData = {
};
};
},
{
glyphname = C;
lastChange = "2016-12-22 13:06:28 +0000";
layers = (
{
anchors = (
{
name = bottom;
position = "{356, 0}";
},
{
name = top;
position = "{350, 760}";
}
);
color = -1;
layerId = "A5DE6A3D-57BF-416A-9BB2-6BD11ABBF04E";
paths = (
{
closed = 1;
nodes = (
"448 -9 OFFCURVE",
"505 1 OFFCURVE",
"554 18 CURVE",
"554 89 LINE",
"495 69 OFFCURVE",
"446 61 OFFCURVE",
"392 61 CURVE SMOOTH",
"233 61 OFFCURVE",
"137 136 OFFCURVE",
"137 371 CURVE SMOOTH",
"137 597 OFFCURVE",
"229 679 OFFCURVE",
"397 679 CURVE SMOOTH",
"451 679 OFFCURVE",
"502 672 OFFCURVE",
"554 657 CURVE",
"554 728 LINE",
"503 742 OFFCURVE",
"451 749 OFFCURVE",
"394 749 CURVE SMOOTH",
"180 749 OFFCURVE",
"51 636 OFFCURVE",
"51 369 CURVE SMOOTH",
"51 91 OFFCURVE",
"182 -9 OFFCURVE",
"386 -9 CURVE SMOOTH"
);
}
);
width = 573;
}
);
leftKerningGroup = O;
leftMetricsKey = O;
rightKerningGroup = C;
unicode = 0043;
userData = {
com.typemytype.robofont.layerData = {
};
};
},
{
glyphname = D;
lastChange = "2016-12-22 13:06:35 +0000";
layers = (
{
anchors = (
{
name = bottom;
position = "{318, 0}";
},
{
name = center;
position = "{347, 370}";
},
{
name = stroke;
position = "{83, 381}";
},
{
name = top;
position = "{316, 760}";
}
);
color = -1;
layerId = "A5DE6A3D-57BF-416A-9BB2-6BD11ABBF04E";
paths = (
{
closed = 1;
nodes = (
"515 -6 OFFCURVE",
"646 109 OFFCURVE",
"646 370 CURVE SMOOTH",
"646 626 OFFCURVE",
"520 747 OFFCURVE",
"277 747 CURVE SMOOTH",
"213 747 OFFCURVE",
"143 740 OFFCURVE",
"83 728 CURVE",
"83 5 LINE",
"149 -3 OFFCURVE",
"202 -6 OFFCURVE",
"259 -6 CURVE SMOOTH"
);
},
{
closed = 1;
nodes = (
"232 64 OFFCURVE",
"199 65 OFFCURVE",
"164 70 CURVE",
"164 668 LINE",
"204 675 OFFCURVE",
"243 678 OFFCURVE",
"279 678 CURVE SMOOTH",
"469 678 OFFCURVE",
"562 586 OFFCURVE",
"562 370 CURVE SMOOTH",
"562 152 OFFCURVE",
"466 64 OFFCURVE",
"275 64 CURVE SMOOTH"
);
}
);
width = 698;
}
);
leftKerningGroup = H;
leftMetricsKey = H;
rightKerningGroup = O;
rightMetricsKey = O;
unicode = 0044;
userData = {
com.typemytype.robofont.layerData = {
};
};
},
{
glyphname = E;
lastChange = "2016-12-22 13:06:28 +0000";
layers = (
{
anchors = (
{
name = bottom;
position = "{324, 0}";
},
{
name = ogonek;
position = "{505, 0}";
},
{
name = top;
position = "{323, 760}";
},
{
name = topleft;
position = "{19, 740}";
}
);
color = -1;
layerId = "A5DE6A3D-57BF-416A-9BB2-6BD11ABBF04E";
paths = (
{
closed = 1;
nodes = (
"546 0 LINE",
"546 69 LINE",
"164 69 LINE",
"164 671 LINE",
"541 671 LINE",
"541 740 LINE",
"83 740 LINE",
"83 0 LINE"
);
},
{
closed = 1;
nodes = (
"492 345 LINE",
"492 414 LINE",
"135 414 LINE",
"135 345 LINE"
);
}
);
width = 581;
}
);
leftKerningGroup = H;
leftMetricsKey = H;
rightKerningGroup = E;
unicode = 0045;
userData = {
com.typemytype.robofont.layerData = {
};
};
},
{
glyphname = F;
lastChange = "2016-12-22 13:06:28 +0000";
layers = (
{
color = -1;
layerId = "A5DE6A3D-57BF-416A-9BB2-6BD11ABBF04E";
paths = (
{
closed = 1;
nodes = (
"164 0 LINE",
"164 670 LINE",
"537 670 LINE",
"537 740 LINE",
"83 740 LINE",
"83 0 LINE"
);
},
{
closed = 1;
nodes = (
"488 339 LINE",
"488 408 LINE",
"141 408 LINE",
"141 339 LINE"
);
}
);
width = 560;
}
);
leftKerningGroup = H;
leftMetricsKey = H;
rightKerningGroup = F;
unicode = 0046;
userData = {
com.typemytype.robofont.layerData = {
};
};
},
{
glyphname = G;
lastChange = "2016-12-22 13:06:28 +0000";
layers = (
{
anchors = (
{
name = bottom;
position = "{371, 0}";
},
{
name = top;
position = "{371, 760}";
}
);
color = -1;
layerId = "A5DE6A3D-57BF-416A-9BB2-6BD11ABBF04E";
paths = (
{
closed = 1;
nodes = (
"485 -6 OFFCURVE",
"534 -2 OFFCURVE",
"597 8 CURVE",
"597 360 LINE",
"520 360 LINE",
"520 42 LINE",
"551 74 LINE",
"515 67 OFFCURVE",
"474 64 OFFCURVE",
"426 64 CURVE SMOOTH",
"234 64 OFFCURVE",
"137 151 OFFCURVE",
"136 369 CURVE SMOOTH",
"136 597 OFFCURVE",
"243 679 OFFCURVE",
"419 679 CURVE SMOOTH",
"469 679 OFFCURVE",
"520 673 OFFCURVE",
"580 657 CURVE",
"580 727 LINE",
"524 742 OFFCURVE",
"470 749 OFFCURVE",
"414 749 CURVE SMOOTH",
"192 749 OFFCURVE",
"51 637 OFFCURVE",
"51 369 CURVE SMOOTH",
"52 107 OFFCURVE",
"181 -6 OFFCURVE",
"431 -6 CURVE SMOOTH"
);
}
);
width = 671;
}
);
leftKerningGroup = O;
leftMetricsKey = O;
rightKerningGroup = G;
unicode = 0047;
userData = {
com.typemytype.robofont.layerData = {
};
};
},
{
glyphname = H;
lastChange = "2016-12-22 13:06:28 +0000";
layers = (
{
anchors = (
{
name = bottom;
position = "{360, 0}";
},
{
name = center;
position = "{360, 579}";
},
{
name = top;
position = "{360, 760}";
},
{
name = topleft;
position = "{19, 740}";
}
);
color = -1;
layerId = "A5DE6A3D-57BF-416A-9BB2-6BD11ABBF04E";
paths = (
{
closed = 1;
nodes = (
"164 0 LINE",
"164 343 LINE",
"555 343 LINE",
"555 0 LINE",
"636 0 LINE",
"636 740 LINE",
"555 740 LINE",
"555 417 LINE",
"164 417 LINE",
"164 740 LINE",
"83 740 LINE",
"83 0 LINE"
);
}
);
width = 720;
}
);
leftKerningGroup = H;
rightKerningGroup = H;
unicode = 0048;
userData = {
com.typemytype.robofont.layerData = {
};
};
},
{
glyphname = I;
lastChange = "2016-12-22 13:06:28 +0000";
layers = (
{
anchors = (
{
name = bottom;
position = "{124, 0}";
},
{
name = ogonek;
position = "{164, 0}";
},
{
name = top;
position = "{124, 760}";
}
);
color = -1;
layerId = "A5DE6A3D-57BF-416A-9BB2-6BD11ABBF04E";
paths = (
{
closed = 1;
nodes = (
"164 0 LINE",
"164 740 LINE",
"83 740 LINE",
"83 0 LINE"
);
}
);
width = 248;
}
);
leftKerningGroup = H;
leftMetricsKey = H;
rightKerningGroup = H;
rightMetricsKey = H;
unicode = 0049;
userData = {
com.typemytype.robofont.layerData = {
};
};
},
{
glyphname = J;
lastChange = "2016-12-22 13:06:28 +0000";
layers = (
{
anchors = (
{
name = bottom;
position = "{184, 0}";
},
{
name = top;
position = "{124, 760}";
}
);
color = -1;
layerId = "A5DE6A3D-57BF-416A-9BB2-6BD11ABBF04E";
paths = (
{
closed = 1;
nodes = (
"130 -70 OFFCURVE",
"160 17 OFFCURVE",
"164 135 CURVE",
"164 740 LINE",
"83 740 LINE",
"83 145 LINE SMOOTH",
"83 30 OFFCURVE",
"58 -49 OFFCURVE",
"-6 -135 CURVE",
"48 -172 LINE"
);
}
);
width = 248;
}
);
leftKerningGroup = H;
widthMetricsKey = I;
rightKerningGroup = H;
rightMetricsKey = H;
unicode = 004A;
userData = {
com.typemytype.robofont.layerData = {
};
};
},
{
glyphname = K;
lastChange = "2016-12-22 13:06:28 +0000";
layers = (
{
anchors = (
{
name = bottom;
position = "{321, 0}";
},
{
name = top;
position = "{320, 740}";
}
);
color = -1;
layerId = "A5DE6A3D-57BF-416A-9BB2-6BD11ABBF04E";
paths = (
{
closed = 1;
nodes = (
"629 0 LINE",
"329 392 LINE",
"328 369 LINE",
"608 740 LINE",
"519 740 LINE",
"247 378 LINE",
"537 0 LINE"
);
},
{
closed = 1;
nodes = (
"164 0 LINE",
"164 740 LINE",
"83 740 LINE",
"83 0 LINE"
);
},
{
closed = 1;
nodes = (
"284 343 LINE",
"284 416 LINE",
"151 416 LINE",
"151 343 LINE"
);
}
);
width = 616;
}
);
leftKerningGroup = H;
leftMetricsKey = H;
rightKerningGroup = K;
unicode = 004B;
userData = {
com.typemytype.robofont.layerData = {
};
};
},
{
glyphname = L;
lastChange = "2016-12-22 13:06:28 +0000";
layers = (
{
anchors = (
{
name = bottom;
position = "{306, 0}";
},
{
name = caronalt;
position = "{348, 808}";
},
{
name = periodcentered;
position = "{387, 405}";
},
{
name = slash;
position = "{124, 397}";
},
{
name = top;
position = "{124, 760}";
}
);
color = -1;
layerId = "A5DE6A3D-57BF-416A-9BB2-6BD11ABBF04E";
paths = (
{
closed = 1;
nodes = (
"528 0 LINE",
"528 71 LINE",
"164 71 LINE",
"164 740 LINE",
"83 740 LINE",
"83 0 LINE"
);
}
);
width = 533;
}
);
leftKerningGroup = H;
leftMetricsKey = H;
rightKerningGroup = L;
unicode = 004C;
userData = {
com.typemytype.robofont.layerData = {
};
};
},
{
glyphname = M;
lastChange = "2016-12-22 13:06:35 +0000";
layers = (
{
anchors = (
{
name = bottom;
position = "{442, 0}";
},
{
name = top;
position = "{442, 740}";
}
);
color = -1;
layerId = "A5DE6A3D-57BF-416A-9BB2-6BD11ABBF04E";
paths = (
{
closed = 1;
nodes = (
"162 0 LINE",
"162 669 LINE",
"136 669 LINE",
"402 103 LINE",
"475 103 LINE",
"739 669 LINE",
"716 669 LINE",
"716 0 LINE",
"792 0 LINE",
"792 740 LINE",
"696 740 LINE",
"432 166 LINE",
"449 166 LINE",
"182 740 LINE",
"85 740 LINE",
"85 0 LINE"
);
}
);
width = 878;
}
);
leftKerningGroup = H;
leftMetricsKey = "=H+2";
rightKerningGroup = H;
rightMetricsKey = "=H+2";
unicode = 004D;
userData = {
com.typemytype.robofont.layerData = {
};
};
},
{
glyphname = N;
lastChange = "2016-12-22 13:06:35 +0000";
layers = (
{
anchors = (
{
name = bottom;
position = "{366, 0}";
},
{
name = top;
position = "{366, 760}";
}
);
color = -1;
layerId = "A5DE6A3D-57BF-416A-9BB2-6BD11ABBF04E";
paths = (
{
closed = 1;
nodes = (
"160 0 LINE",
"160 646 LINE",
"140 646 LINE",
"565 0 LINE",
"649 0 LINE",
"649 740 LINE",
"572 740 LINE",
"572 94 LINE",
"592 94 LINE",
"167 740 LINE",
"83 740 LINE",
"83 0 LINE"
);
}
);
width = 733;
}
);
leftKerningGroup = H;
leftMetricsKey = H;
rightKerningGroup = H;
rightMetricsKey = H;
unicode = 004E;
userData = {
com.typemytype.robofont.layerData = {
};
};
},
{
glyphname = Eng;
lastChange = "2016-12-22 13:06:35 +0000";
layers = (
{
color = -1;
layerId = "A5DE6A3D-57BF-416A-9BB2-6BD11ABBF04E";
paths = (
{
closed = 1;
nodes = (
"601 81 LINE",
"167 740 LINE",
"83 740 LINE",
"83 0 LINE",
"160 0 LINE",
"160 646 LINE",
"140 646 LINE",
"580 -24 LINE"
);
},
{
closed = 1;
nodes = (
"615 -131 OFFCURVE",
"649 -39 OFFCURVE",
"649 95 CURVE SMOOTH",
"649 740 LINE",
"572 740 LINE",
"572 85 LINE SMOOTH",
"572 -31 OFFCURVE",
"544 -109 OFFCURVE",
"479 -196 CURVE",
"533 -232 LINE"
);
}
);
width = 733;
}
);
leftKerningGroup = H;
leftMetricsKey = H;
rightKerningGroup = H;
rightMetricsKey = H;
unicode = 014A;
},
{
glyphname = O;
lastChange = "2016-12-22 13:06:28 +0000";
layers = (
{
anchors = (
{
name = bottom;
position = "{358, 0}";
},
{
name = center;
position = "{358, 370}";
},
{
name = ogonek;
position = "{441, 0}";
},
{
name = top;
position = "{358, 760}";
},
{
name = topleft;
position = "{22, 740}";
},
{
name = topright;
position = "{444, 740}";
}
);
color = -1;
layerId = "A5DE6A3D-57BF-416A-9BB2-6BD11ABBF04E";
paths = (
{
closed = 1;
nodes = (
"542 -9 OFFCURVE",
"665 103 OFFCURVE",
"665 370 CURVE SMOOTH",
"665 637 OFFCURVE",
"543 749 OFFCURVE",
"358 749 CURVE SMOOTH",
"175 749 OFFCURVE",
"51 637 OFFCURVE",
"51 370 CURVE SMOOTH",
"51 103 OFFCURVE",
"174 -9 OFFCURVE",
"358 -9 CURVE SMOOTH"
);
},
{
closed = 1;
nodes = (
"224 60 OFFCURVE",
"135 141 OFFCURVE",
"135 373 CURVE SMOOTH",
"135 599 OFFCURVE",
"224 680 OFFCURVE",
"358 680 CURVE SMOOTH",
"493 680 OFFCURVE",
"581 599 OFFCURVE",
"581 367 CURVE SMOOTH",
"581 141 OFFCURVE",
"493 60 OFFCURVE",
"358 60 CURVE SMOOTH"
);
}
);
width = 717;
}
);
leftKerningGroup = O;
rightKerningGroup = O;
unicode = 004F;
userData = {
com.typemytype.robofont.layerData = {
};
};
},
{
glyphname = Ohorn;
lastChange = "2016-12-22 13:06:28 +0000";
layers = (
{
anchors = (
{
name = bottom;
position = "{358, 0}";
},
{
name = top;
position = "{358, 760}";
}
);
color = -1;
layerId = "A5DE6A3D-57BF-416A-9BB2-6BD11ABBF04E";
paths = (
{
closed = 1;
nodes = (
"543 -9 OFFCURVE",
"665 101 OFFCURVE",
"665 370 CURVE SMOOTH",
"665 544 OFFCURVE",
"614 652 OFFCURVE",
"529 705 CURVE",
"523 689 LINE",
"612 689 OFFCURVE",
"668 732 OFFCURVE",
"668 814 CURVE SMOOTH",
"668 843 OFFCURVE",
"664 864 OFFCURVE",
"656 888 CURVE",
"596 888 LINE",
"603 863 OFFCURVE",
"607 843 OFFCURVE",
"607 817 CURVE SMOOTH",
"607 762 OFFCURVE",
"570 738 OFFCURVE",
"510 738 CURVE SMOOTH",
"454 738 OFFCURVE",
"415 749 OFFCURVE",
"358 749 CURVE SMOOTH",
"175 749 OFFCURVE",
"51 637 OFFCURVE",
"51 370 CURVE SMOOTH",
"51 103 OFFCURVE",
"174 -9 OFFCURVE",
"358 -9 CURVE SMOOTH"
);
},
{
closed = 1;
nodes = (
"224 60 OFFCURVE",
"135 141 OFFCURVE",
"135 373 CURVE SMOOTH",
"135 599 OFFCURVE",
"224 680 OFFCURVE",
"358 680 CURVE SMOOTH",
"493 680 OFFCURVE",
"581 599 OFFCURVE",
"581 367 CURVE SMOOTH",
"581 141 OFFCURVE",
"493 60 OFFCURVE",
"358 60 CURVE SMOOTH"
);
}
);
width = 717;
}
);
leftKerningGroup = O;
leftMetricsKey = O;
widthMetricsKey = O;
rightKerningGroup = O;
unicode = 01A0;
},
{
glyphname = Ohorntilde;
lastChange = "2016-12-22 13:06:28 +0000";
layers = (
{
color = -1;
layerId = "A5DE6A3D-57BF-416A-9BB2-6BD11ABBF04E";
paths = (
{
closed = 1;
nodes = (
"543 -9 OFFCURVE",
"665 101 OFFCURVE",
"665 370 CURVE SMOOTH",
"665 544 OFFCURVE",
"614 652 OFFCURVE",
"529 705 CURVE",
"523 689 LINE",
"612 689 OFFCURVE",
"668 732 OFFCURVE",
"668 814 CURVE SMOOTH",
"668 843 OFFCURVE",
"664 864 OFFCURVE",
"656 888 CURVE",
"596 888 LINE",
"603 863 OFFCURVE",
"607 843 OFFCURVE",
"607 817 CURVE SMOOTH",
"607 762 OFFCURVE",
"570 738 OFFCURVE",
"510 738 CURVE SMOOTH",
"454 738 OFFCURVE",
"415 749 OFFCURVE",
"358 749 CURVE SMOOTH",
"175 749 OFFCURVE",
"51 637 OFFCURVE",
"51 370 CURVE SMOOTH",
"51 103 OFFCURVE",
"174 -9 OFFCURVE",
"358 -9 CURVE SMOOTH"
);
},
{
closed = 1;
nodes = (
"224 60 OFFCURVE",
"135 141 OFFCURVE",
"135 373 CURVE SMOOTH",
"135 599 OFFCURVE",
"224 680 OFFCURVE",
"358 680 CURVE SMOOTH",
"493 680 OFFCURVE",
"581 599 OFFCURVE",
"581 367 CURVE SMOOTH",
"581 141 OFFCURVE",
"493 60 OFFCURVE",
"358 60 CURVE SMOOTH"
);
},
{
closed = 1;
nodes = (
"472 834 OFFCURVE",
"499 845 OFFCURVE",
"520 866 CURVE",
"520 922 LINE",
"495 898 OFFCURVE",
"471 886 OFFCURVE",
"435 886 CURVE SMOOTH",
"385 886 OFFCURVE",
"342 924 OFFCURVE",
"282 924 CURVE SMOOTH",
"244 924 OFFCURVE",
"217 913 OFFCURVE",
"197 892 CURVE",
"197 837 LINE",
"222 861 OFFCURVE",
"246 872 OFFCURVE",
"281 872 CURVE SMOOTH",
"331 872 OFFCURVE",
"375 834 OFFCURVE",
"435 834 CURVE SMOOTH"
);
}
);
width = 717;
}
);
leftKerningGroup = O;
rightKerningGroup = O;
unicode = 1EE0;
},
{
glyphname = Oogonek;
lastChange = "2016-12-22 13:06:28 +0000";
layers = (
{
color = -1;
layerId = "A5DE6A3D-57BF-416A-9BB2-6BD11ABBF04E";
paths = (
{
closed = 1;
nodes = (
"440 -208 OFFCURVE",
"469 -201 OFFCURVE",
"497 -189 CURVE",
"497 -149 LINE",
"464 -162 OFFCURVE",
"440 -168 OFFCURVE",
"416 -168 CURVE SMOOTH",
"367 -168 OFFCURVE",
"343 -148 OFFCURVE",
"343 -111 CURVE SMOOTH",
"343 -69 OFFCURVE",
"372 -27 OFFCURVE",
"471 7 CURVE SMOOTH",
"583 46 OFFCURVE",
"665 152 OFFCURVE",
"665 370 CURVE SMOOTH",
"665 639 OFFCURVE",
"542 749 OFFCURVE",
"358 749 CURVE SMOOTH",
"175 749 OFFCURVE",
"51 637 OFFCURVE",
"51 370 CURVE SMOOTH",
"51 103 OFFCURVE",
"173 -9 OFFCURVE",
"358 -9 CURVE SMOOTH",
"385 -9 LINE",
"389 7 LINE",
"316 -26 OFFCURVE",
"291 -68 OFFCURVE",
"291 -116 CURVE SMOOTH",
"291 -174 OFFCURVE",
"332 -208 OFFCURVE",
"410 -208 CURVE SMOOTH"
);
},
{
closed = 1;
nodes = (
"224 60 OFFCURVE",
"135 141 OFFCURVE",
"135 373 CURVE SMOOTH",
"135 599 OFFCURVE",
"224 680 OFFCURVE",
"358 680 CURVE SMOOTH",
"493 680 OFFCURVE",
"581 599 OFFCURVE",
"581 367 CURVE SMOOTH",
"581 141 OFFCURVE",
"493 60 OFFCURVE",
"358 60 CURVE SMOOTH"
);
}
);
width = 717;
}
);
leftKerningGroup = O;
leftMetricsKey = O;
widthMetricsKey = O;
rightKerningGroup = O;
unicode = 01EA;
},
{
glyphname = OE;
lastChange = "2016-12-22 13:06:28 +0000";
layers = (
{
anchors = (
{
name = bottom;
position = "{560, 0}";
},
{
name = top;
position = "{560, 760}";
}
);
color = -1;
layerId = "A5DE6A3D-57BF-416A-9BB2-6BD11ABBF04E";
paths = (
{
closed = 1;
nodes = (
"480 -5 OFFCURVE",
"538 0 OFFCURVE",
"581 0 CURVE SMOOTH",
"966 0 LINE",
"966 69 LINE",
"600 69 LINE",
"600 671 LINE",
"961 671 LINE",
"961 740 LINE",
"576 740 LINE SMOOTH",
"530 740 OFFCURVE",
"476 747 OFFCURVE",
"421 747 CURVE SMOOTH",
"181 747 OFFCURVE",
"51 626 OFFCURVE",
"51 370 CURVE SMOOTH",
"51 110 OFFCURVE",
"180 -5 OFFCURVE",
"427 -5 CURVE SMOOTH"
);
},
{
closed = 1;
nodes = (
"231 64 OFFCURVE",
"135 153 OFFCURVE",
"135 370 CURVE SMOOTH",
"135 585 OFFCURVE",
"228 677 OFFCURVE",
"411 677 CURVE SMOOTH",
"450 677 OFFCURVE",
"483 675 OFFCURVE",
"520 671 CURVE",
"520 69 LINE",
"491 65 OFFCURVE",
"458 64 OFFCURVE",
"415 64 CURVE SMOOTH"
);
},
{
closed = 1;
nodes = (
"913 345 LINE",
"913 414 LINE",
"575 414 LINE",
"575 345 LINE"
);
}
);
width = 1001;
}
);
leftKerningGroup = O;
leftMetricsKey = O;
rightKerningGroup = E;
rightMetricsKey = E;
unicode = 0152;
},
{
glyphname = P;
lastChange = "2016-12-22 13:06:28 +0000";
layers = (
{
color = -1;
layerId = "A5DE6A3D-57BF-416A-9BB2-6BD11ABBF04E";
paths = (
{
closed = 1;
nodes = (
"164 0 LINE",
"164 247 LINE",
"199 244 OFFCURVE",
"227 242 OFFCURVE",
"262 242 CURVE SMOOTH",
"473 242 OFFCURVE",
"570 331 OFFCURVE",
"570 495 CURVE SMOOTH",
"570 670 OFFCURVE",
"468 748 OFFCURVE",
"273 748 CURVE SMOOTH",
"205 748 OFFCURVE",
"145 741 OFFCURVE",
"83 729 CURVE",
"83 0 LINE"
);
},
{
closed = 1;
nodes = (
"227 309 OFFCURVE",
"196 310 OFFCURVE",
"164 315 CURVE",
"164 672 LINE",
"199 678 OFFCURVE",
"235 682 OFFCURVE",
"279 682 CURVE SMOOTH",
"421 682 OFFCURVE",
"490 625 OFFCURVE",
"490 494 CURVE SMOOTH",
"490 368 OFFCURVE",
"422 309 OFFCURVE",
"263 309 CURVE SMOOTH"
);
}
);
width = 614;
}
);
leftKerningGroup = H;
leftMetricsKey = H;
rightKerningGroup = P;
unicode = 0050;
userData = {
com.typemytype.robofont.layerData = {
};
};
},
{
glyphname = Thorn;
lastChange = "2016-12-22 13:06:28 +0000";
layers = (
{
color = -1;
layerId = "A5DE6A3D-57BF-416A-9BB2-6BD11ABBF04E";
paths = (
{
closed = 1;
nodes = (
"164 0 LINE",
"164 132 LINE",
"199 129 OFFCURVE",
"228 127 OFFCURVE",
"262 127 CURVE SMOOTH",
"474 127 OFFCURVE",
"570 216 OFFCURVE",
"570 380 CURVE SMOOTH",
"570 555 OFFCURVE",
"469 633 OFFCURVE",
"274 633 CURVE SMOOTH",
"230 633 OFFCURVE",
"193 629 OFFCURVE",
"164 624 CURVE",
"164 740 LINE",
"83 740 LINE",
"83 0 LINE"
);
},
{
closed = 1;
nodes = (
"227 193 OFFCURVE",
"196 195 OFFCURVE",
"164 199 CURVE",
"164 557 LINE",
"199 563 OFFCURVE",
"235 567 OFFCURVE",
"279 567 CURVE SMOOTH",
"421 567 OFFCURVE",
"490 510 OFFCURVE",
"490 379 CURVE SMOOTH",
"490 253 OFFCURVE",
"422 193 OFFCURVE",
"263 193 CURVE SMOOTH"
);
}
);
width = 619;
}
);
leftKerningGroup = H;
leftMetricsKey = H;
rightKerningGroup = Thorn;
rightMetricsKey = "=P+5";
unicode = 00DE;
userData = {
com.typemytype.robofont.layerData = {
};
};
},
{
glyphname = Q;
lastChange = "2016-12-22 13:06:28 +0000";
layers = (
{
color = -1;
layerId = "A5DE6A3D-57BF-416A-9BB2-6BD11ABBF04E";
paths = (
{
closed = 1;
nodes = (
"653 -47 LINE",
"544 -37 OFFCURVE",
"423 -17 OFFCURVE",
"328 23 CURVE",
"311 1 LINE",
"544 -27 OFFCURVE",
"665 106 OFFCURVE",
"665 370 CURVE SMOOTH",
"665 639 OFFCURVE",
"542 749 OFFCURVE",
"358 749 CURVE SMOOTH",
"175 749 OFFCURVE",
"51 637 OFFCURVE",
"51 369 CURVE SMOOTH",
"51 74 OFFCURVE",
"185 -60 OFFCURVE",
"640 -115 CURVE"
);
},
{
closed = 1;
nodes = (
"223 60 OFFCURVE",
"135 141 OFFCURVE",
"135 373 CURVE SMOOTH",
"135 599 OFFCURVE",
"224 680 OFFCURVE",
"358 680 CURVE SMOOTH",
"493 680 OFFCURVE",
"581 599 OFFCURVE",
"581 367 CURVE SMOOTH",
"581 141 OFFCURVE",
"493 60 OFFCURVE",
"358 60 CURVE SMOOTH"
);
}
);
width = 717;
}
);
leftKerningGroup = O;
leftMetricsKey = O;
widthMetricsKey = O;
rightKerningGroup = O;
unicode = 0051;
userData = {
com.typemytype.robofont.layerData = {
};
};
},
{
glyphname = R;
lastChange = "2016-12-22 13:06:28 +0000";
layers = (
{
anchors = (
{
name = bottom;
position = "{340, 0}";
},
{
name = top;
position = "{314, 760}";
}
);
color = -1;
layerId = "A5DE6A3D-57BF-416A-9BB2-6BD11ABBF04E";
paths = (
{
closed = 1;
nodes = (
"163 0 LINE",
"163 310 LINE",
"196 307 OFFCURVE",
"225 305 OFFCURVE",
"266 305 CURVE SMOOTH",
"465 305 OFFCURVE",
"571 381 OFFCURVE",
"570 529 CURVE SMOOTH",
"570 679 OFFCURVE",
"476 748 OFFCURVE",
"281 748 CURVE SMOOTH",
"203 748 OFFCURVE",
"140 739 OFFCURVE",
"83 728 CURVE",
"83 0 LINE"
);
},
{
closed = 1;
nodes = (
"627 0 LINE",
"364 348 LINE",
"275 348 LINE",
"536 0 LINE"
);
},
{
closed = 1;
nodes = (
"225 371 OFFCURVE",
"202 372 OFFCURVE",
"163 375 CURVE",
"163 672 LINE",
"201 679 OFFCURVE",
"235 683 OFFCURVE",
"286 683 CURVE SMOOTH",
"430 683 OFFCURVE",
"492 638 OFFCURVE",
"492 528 CURVE SMOOTH",
"492 421 OFFCURVE",
"425 371 OFFCURVE",
"267 371 CURVE SMOOTH"
);
}
);
width = 651;
}
);
leftKerningGroup = H;
leftMetricsKey = H;
rightKerningGroup = R;
unicode = 0052;
userData = {
com.typemytype.robofont.layerData = {
};
};
},
{
glyphname = S;
lastChange = "2016-12-22 13:06:28 +0000";
layers = (
{
anchors = (
{
name = bottom;
position = "{269, 0}";
},
{
name = top;
position = "{269, 760}";
}
);
color = -1;
layerId = "A5DE6A3D-57BF-416A-9BB2-6BD11ABBF04E";
paths = (
{
closed = 1;
nodes = (
"397 -9 OFFCURVE",
"493 67 OFFCURVE",
"493 201 CURVE SMOOTH",
"493 308 OFFCURVE",
"431 370 OFFCURVE",
"294 404 CURVE SMOOTH",
"254 415 LINE SMOOTH",
"153 441 OFFCURVE",
"118 476 OFFCURVE",
"118 549 CURVE SMOOTH",
"118 632 OFFCURVE",
"174 680 OFFCURVE",
"304 680 CURVE SMOOTH",
"356 680 OFFCURVE",
"410 673 OFFCURVE",
"461 658 CURVE",
"461 728 LINE",
"415 742 OFFCURVE",
"356 749 OFFCURVE",
"301 749 CURVE SMOOTH",
"124 749 OFFCURVE",
"36 671 OFFCURVE",
"36 544 CURVE SMOOTH",
"36 437 OFFCURVE",
"98 375 OFFCURVE",
"224 343 CURVE SMOOTH",
"264 332 LINE SMOOTH",
"370 304 OFFCURVE",
"411 270 OFFCURVE",
"411 195 CURVE SMOOTH",
"411 107 OFFCURVE",
"353 60 OFFCURVE",
"229 60 CURVE SMOOTH",
"175 60 OFFCURVE",
"109 69 OFFCURVE",
"47 90 CURVE",
"47 20 LINE",
"105 0 OFFCURVE",
"171 -9 OFFCURVE",
"228 -9 CURVE SMOOTH"
);
}
);
width = 529;
}
);
leftKerningGroup = S;
rightKerningGroup = S;
unicode = 0053;
userData = {
com.typemytype.robofont.layerData = {
};
};
},
{
glyphname = Germandbls;
lastChange = "2016-12-22 13:06:28 +0000";
layers = (
{
color = -1;
layerId = "A5DE6A3D-57BF-416A-9BB2-6BD11ABBF04E";
paths = (
{
closed = 1;
nodes = (
"715 -9 OFFCURVE",
"809 67 OFFCURVE",
"809 201 CURVE SMOOTH",
"809 308 OFFCURVE",
"748 370 OFFCURVE",
"613 404 CURVE SMOOTH",
"573 415 LINE SMOOTH",
"475 441 OFFCURVE",
"439 476 OFFCURVE",
"439 549 CURVE SMOOTH",
"439 632 OFFCURVE",
"496 680 OFFCURVE",
"622 680 CURVE SMOOTH",
"674 680 OFFCURVE",
"727 673 OFFCURVE",
"777 658 CURVE",
"777 728 LINE",
"732 742 OFFCURVE",
"674 749 OFFCURVE",
"620 749 CURVE SMOOTH",
"445 749 OFFCURVE",
"358 671 OFFCURVE",
"358 544 CURVE SMOOTH",
"358 437 OFFCURVE",
"420 375 OFFCURVE",
"544 343 CURVE SMOOTH",
"583 332 LINE SMOOTH",
"687 305 OFFCURVE",
"728 270 OFFCURVE",
"728 195 CURVE SMOOTH",
"728 107 OFFCURVE",
"670 60 OFFCURVE",
"548 60 CURVE SMOOTH",
"495 60 OFFCURVE",
"431 69 OFFCURVE",
"369 90 CURVE",
"369 20 LINE",
"426 0 OFFCURVE",
"492 -9 OFFCURVE",
"548 -9 CURVE SMOOTH"
);
},
{
closed = 1;
nodes = (
"164 0 LINE",
"164 480 LINE SMOOTH",
"164 617 OFFCURVE",
"222 680 OFFCURVE",
"350 680 CURVE SMOOTH",
"387 680 OFFCURVE",
"418 674 OFFCURVE",
"446 663 CURVE",
"504 715 LINE",
"464 738 OFFCURVE",
"413 749 OFFCURVE",
"350 749 CURVE SMOOTH",
"168 749 OFFCURVE",
"83 658 OFFCURVE",
"83 469 CURVE SMOOTH",
"83 0 LINE"
);
}
);
width = 845;
}
);
leftKerningGroup = H;
leftMetricsKey = H;
rightKerningGroup = S;
rightMetricsKey = S;
unicode = 1E9E;
},
{
glyphname = Schwa;
lastChange = "2016-12-22 13:06:28 +0000";
layers = (
{
anchors = (
{
name = bottom;
position = "{351, 0}";
},
{
name = top;
position = "{351, 755}";
}
);
color = -1;
layerId = "A5DE6A3D-57BF-416A-9BB2-6BD11ABBF04E";
paths = (
{
closed = 1;
nodes = (
"540 -9 OFFCURVE",
"662 102 OFFCURVE",
"662 367 CURVE SMOOTH",
"662 639 OFFCURVE",
"527 749 OFFCURVE",
"287 749 CURVE SMOOTH",
"220 749 OFFCURVE",
"153 743 OFFCURVE",
"87 726 CURVE",
"87 657 LINE",
"150 674 OFFCURVE",
"222 680 OFFCURVE",
"281 680 CURVE SMOOTH",
"477 680 OFFCURVE",
"581 602 OFFCURVE",
"581 365 CURVE SMOOTH",
"581 135 OFFCURVE",
"494 58 OFFCURVE",
"358 58 CURVE SMOOTH",
"214 58 OFFCURVE",
"130 137 OFFCURVE",
"130 366 CURVE",
"99 337 LINE",
"609 337 LINE",
"609 401 LINE",
"46 401 LINE",
"46 365 LINE SMOOTH",
"46 101 OFFCURVE",
"170 -9 OFFCURVE",
"357 -9 CURVE SMOOTH"
);
}
);
width = 714;
}
);
leftKerningGroup = O;
leftMetricsKey = "=O-5";
rightKerningGroup = O;
rightMetricsKey = O;
unicode = 018F;
userData = {
com.typemytype.robofont.layerData = {
};
};
},
{
glyphname = T;
lastChange = "2016-12-22 13:06:28 +0000";
layers = (
{
anchors = (
{
name = bottom;
position = "{293, 0}";
},
{
name = center;
position = "{293, 387}";
},
{
name = top;
position = "{293, 760}";
}
);
color = -1;
layerId = "A5DE6A3D-57BF-416A-9BB2-6BD11ABBF04E";
paths = (
{
closed = 1;
nodes = (
"333 0 LINE",
"333 669 LINE",
"580 669 LINE",
"580 740 LINE",
"6 740 LINE",
"6 669 LINE",
"252 669 LINE",
"252 0 LINE"
);
}
);
width = 585;
}
);
leftKerningGroup = T;
rightKerningGroup = T;
unicode = 0054;
userData = {
com.typemytype.robofont.layerData = {
};
};
},
{
glyphname = U;
lastChange = "2016-12-22 13:06:28 +0000";
layers = (
{
anchors = (
{
name = bottom;
position = "{354, 0}";
},
{
name = ogonek;
position = "{437, 1}";
},
{
name = top;
position = "{354, 760}";
},
{
name = topright;
position = "{552, 740}";
}
);
color = -1;
layerId = "A5DE6A3D-57BF-416A-9BB2-6BD11ABBF04E";
paths = (
{
closed = 1;
nodes = (
"542 -9 OFFCURVE",
"626 81 OFFCURVE",
"626 280 CURVE SMOOTH",
"626 740 LINE",
"547 740 LINE",
"547 271 LINE SMOOTH",
"547 125 OFFCURVE",
"487 61 OFFCURVE",
"354 61 CURVE SMOOTH",
"221 61 OFFCURVE",
"161 125 OFFCURVE",
"161 271 CURVE SMOOTH",
"161 740 LINE",
"80 740 LINE",
"80 280 LINE SMOOTH",
"80 81 OFFCURVE",
"165 -9 OFFCURVE",
"354 -9 CURVE SMOOTH"
);
}
);
width = 706;
}
);
leftKerningGroup = U;
rightKerningGroup = U;
unicode = 0055;
userData = {
com.typemytype.robofont.layerData = {
};
};
},
{
glyphname = Uhorn;
lastChange = "2016-12-22 13:06:35 +0000";
layers = (
{
anchors = (
{
name = bottom;
position = "{353, 0}";
},
{
name = top;
position = "{353, 760}";
}
);
color = -1;
layerId = "A5DE6A3D-57BF-416A-9BB2-6BD11ABBF04E";
paths = (
{
closed = 1;
nodes = (
"542 -9 OFFCURVE",
"626 81 OFFCURVE",
"626 280 CURVE SMOOTH",
"626 696 LINE",
"693 704 OFFCURVE",
"735 745 OFFCURVE",
"735 814 CURVE SMOOTH",
"735 843 OFFCURVE",
"732 864 OFFCURVE",
"723 888 CURVE",
"663 888 LINE",
"670 863 OFFCURVE",
"674 843 OFFCURVE",
"674 817 CURVE SMOOTH",
"674 762 OFFCURVE",
"637 740 OFFCURVE",
"577 740 CURVE SMOOTH",
"547 740 LINE",
"547 271 LINE SMOOTH",
"547 125 OFFCURVE",
"487 61 OFFCURVE",
"354 61 CURVE SMOOTH",
"221 61 OFFCURVE",
"161 125 OFFCURVE",
"161 271 CURVE SMOOTH",
"161 740 LINE",
"80 740 LINE",
"80 280 LINE SMOOTH",
"80 81 OFFCURVE",
"165 -9 OFFCURVE",
"354 -9 CURVE SMOOTH"
);
}
);
width = 706;
}
);
leftKerningGroup = U;
leftMetricsKey = U;
widthMetricsKey = U;
rightKerningGroup = U;
unicode = 01AF;
},
{
glyphname = Uogonek;
lastChange = "2016-12-22 13:06:28 +0000";
layers = (
{
color = -1;
layerId = "A5DE6A3D-57BF-416A-9BB2-6BD11ABBF04E";
paths = (
{
closed = 1;
nodes = (
"430 -207 OFFCURVE",
"459 -201 OFFCURVE",
"486 -189 CURVE",
"486 -149 LINE",
"454 -162 OFFCURVE",
"430 -167 OFFCURVE",
"406 -167 CURVE SMOOTH",
"357 -167 OFFCURVE",
"333 -147 OFFCURVE",
"333 -110 CURVE SMOOTH",
"333 -68 OFFCURVE",
"362 -26 OFFCURVE",
"465 5 CURVE SMOOTH",
"579 38 OFFCURVE",
"626 131 OFFCURVE",
"626 280 CURVE SMOOTH",
"626 740 LINE",
"547 740 LINE",
"547 271 LINE SMOOTH",
"547 125 OFFCURVE",
"487 61 OFFCURVE",
"354 61 CURVE SMOOTH",
"221 61 OFFCURVE",
"161 125 OFFCURVE",
"161 271 CURVE SMOOTH",
"161 740 LINE",
"80 740 LINE",
"80 280 LINE SMOOTH",
"80 81 OFFCURVE",
"165 -9 OFFCURVE",
"354 -9 CURVE SMOOTH",
"377 -9 LINE",
"379 7 LINE",
"307 -25 OFFCURVE",
"282 -68 OFFCURVE",
"282 -114 CURVE SMOOTH",
"282 -173 OFFCURVE",
"321 -207 OFFCURVE",
"399 -207 CURVE SMOOTH"
);
}
);
width = 706;
}
);
leftKerningGroup = U;
leftMetricsKey = U;
widthMetricsKey = U;
rightKerningGroup = U;
unicode = 0172;
},
{
glyphname = V;
lastChange = "2016-12-22 13:06:28 +0000";
layers = (
{
color = -1;
layerId = "A5DE6A3D-57BF-416A-9BB2-6BD11ABBF04E";
paths = (
{
closed = 1;
nodes = (
"386 0 LINE",
"650 740 LINE",
"569 740 LINE",
"320 37 LINE",
"338 37 LINE",
"90 740 LINE",
"4 740 LINE",
"268 0 LINE"
);
}
);
width = 654;
}
);
leftKerningGroup = V;
rightKerningGroup = V;
unicode = 0056;
userData = {
com.typemytype.robofont.layerData = {
};
};
},
{
glyphname = W;
lastChange = "2016-12-22 13:06:28 +0000";
layers = (
{
anchors = (
{
name = bottom;
position = "{528, 0}";
},
{
name = top;
position = "{528, 760}";
}
);
color = -1;
layerId = "A5DE6A3D-57BF-416A-9BB2-6BD11ABBF04E";
paths = (
{
closed = 1;
nodes = (
"341 0 LINE",
"539 688 LINE",
"518 688 LINE",
"713 0 LINE",
"820 0 LINE",
"1028 740 LINE",
"950 740 LINE",
"755 38 LINE",
"774 38 LINE",
"577 740 LINE",
"481 740 LINE",
"282 38 LINE",
"302 38 LINE",
"109 740 LINE",
"26 740 LINE",
"235 0 LINE"
);
}
);
width = 1054;
}
);
leftKerningGroup = V;
rightKerningGroup = V;
unicode = 0057;
userData = {
com.typemytype.robofont.layerData = {
};
};
},
{
glyphname = X;
lastChange = "2016-12-22 13:06:28 +0000";
layers = (
{
color = -1;
layerId = "A5DE6A3D-57BF-416A-9BB2-6BD11ABBF04E";
paths = (
{
closed = 1;
nodes = (
"632 0 LINE",
"366 378 LINE",
"319 440 LINE",
"107 740 LINE",
"14 740 LINE",
"270 377 LINE",
"318 315 LINE",
"539 0 LINE"
);
},
{
closed = 1;
nodes = (
"96 0 LINE",
"318 315 LINE",
"366 378 LINE",
"621 740 LINE",
"531 740 LINE",
"319 440 LINE",
"270 377 LINE",
"4 0 LINE"
);
}
);
width = 637;
}
);
leftKerningGroup = X;
rightKerningGroup = X;
unicode = 0058;
userData = {
com.typemytype.robofont.layerData = {
};
};
},
{
glyphname = Y;
lastChange = "2016-12-22 13:06:28 +0000";
layers = (
{
anchors = (
{
name = bottom;
position = "{293, 0}";
},
{
name = top;
position = "{293, 760}";
},
{
name = topleft;
position = "{1, 740}";
}
);
color = -1;
layerId = "A5DE6A3D-57BF-416A-9BB2-6BD11ABBF04E";
paths = (
{
closed = 1;
nodes = (
"333 0 LINE",
"333 362 LINE",
"316 301 LINE",
"597 740 LINE",
"513 740 LINE",
"281 380 LINE",
"308 380 LINE",
"73 740 LINE",
"-17 740 LINE",
"270 301 LINE",
"252 363 LINE",
"252 0 LINE"
);
}
);
width = 585;
}
);
leftKerningGroup = Y;
rightKerningGroup = Y;
unicode = 0059;
userData = {
com.typemytype.robofont.layerData = {
};
};
},
{
glyphname = Z;
lastChange = "2016-12-22 13:06:28 +0000";
layers = (
{
anchors = (
{
name = bottom;
position = "{287, 0}";
},
{
name = top;
position = "{287, 760}";
}
);
color = -1;
layerId = "A5DE6A3D-57BF-416A-9BB2-6BD11ABBF04E";
paths = (
{
closed = 1;
nodes = (
"544 0 LINE",
"544 70 LINE",
"119 70 LINE",
"124 51 LINE",
"539 695 LINE",
"539 740 LINE",
"35 740 LINE",
"35 670 LINE",
"449 670 LINE",
"444 689 LINE",
"29 45 LINE",
"29 0 LINE"
);
}
);
width = 574;
}
);
leftKerningGroup = Z;
rightKerningGroup = Z;
unicode = 005A;
userData = {
com.typemytype.robofont.layerData = {
};
};
},
{
glyphname = a;
lastChange = "2016-12-22 13:06:35 +0000";
layers = (
{
anchors = (
{
name = bottom;
position = "{259, 0}";
},
{
name = ogonek;
position = "{444, 0}";
},
{
name = top;
position = "{254, 600}";
}
);
color = -1;
layerId = "A5DE6A3D-57BF-416A-9BB2-6BD11ABBF04E";
paths = (
{
closed = 1;
nodes = (
"272 -9 OFFCURVE",
"330 16 OFFCURVE",
"365 61 CURVE",
"371 61 LINE",
"377 0 LINE",
"444 0 LINE",
"444 356 LINE SMOOTH",
"444 503 OFFCURVE",
"373 551 OFFCURVE",
"236 551 CURVE SMOOTH",
"186 551 OFFCURVE",
"125 543 OFFCURVE",
"79 527 CURVE",
"79 461 LINE",
"130 478 OFFCURVE",
"184 485 OFFCURVE",
"225 485 CURVE SMOOTH",
"319 485 OFFCURVE",
"365 458 OFFCURVE",
"365 359 CURVE SMOOTH",
"365 120 LINE",
"327 72 OFFCURVE",
"277 54 OFFCURVE",
"229 54 CURVE SMOOTH",
"160 54 OFFCURVE",
"126 86 OFFCURVE",
"126 147 CURVE SMOOTH",
"126 205 OFFCURVE",
"161 238 OFFCURVE",
"246 247 CURVE SMOOTH",
"394 263 LINE",
"387 315 LINE",
"241 299 LINE SMOOTH",
"103 286 OFFCURVE",
"45 234 OFFCURVE",
"45 139 CURVE SMOOTH",
"45 47 OFFCURVE",
"107 -9 OFFCURVE",
"209 -9 CURVE SMOOTH"
);
}
);
width = 513;
}
);
leftKerningGroup = a;
rightKerningGroup = n;
rightMetricsKey = n;
unicode = 0061;
userData = {
com.typemytype.robofont.layerData = {
};
};
},
{
glyphname = ae;
lastChange = "2016-12-22 13:06:28 +0000";
layers = (
{
anchors = (
{
name = bottom;
position = "{406, 0}";
},
{
name = top;
position = "{406, 600}";
}
);
color = -1;
layerId = "A5DE6A3D-57BF-416A-9BB2-6BD11ABBF04E";
paths = (
{
closed = 1;
nodes = (
"663 -10 OFFCURVE",
"709 -3 OFFCURVE",
"760 12 CURVE",
"760 78 LINE",
"711 63 OFFCURVE",
"667 56 OFFCURVE",
"626 56 CURVE SMOOTH",
"503 56 OFFCURVE",
"444 110 OFFCURVE",
"444 260 CURVE SMOOTH",
"444 287 LINE SMOOTH",
"444 439 OFFCURVE",
"495 492 OFFCURVE",
"579 492 CURVE SMOOTH",
"662 492 OFFCURVE",
"710 439 OFFCURVE",
"710 284 CURVE",
"728 298 LINE",
"426 298 LINE",
"426 245 LINE",
"787 245 LINE",
"787 270 LINE SMOOTH",
"787 464 OFFCURVE",
"710 551 OFFCURVE",
"582 551 CURVE SMOOTH",
"454 551 OFFCURVE",
"377 463 OFFCURVE",
"377 280 CURVE",
"366 272 LINE",
"366 72 OFFCURVE",
"451 -10 OFFCURVE",
"617 -10 CURVE SMOOTH"
);
},
{
closed = 1;
nodes = (
"286 -9 OFFCURVE",
"356 16 OFFCURVE",
"417 100 CURVE",
"388 147 LINE",
"344 76 OFFCURVE",
"285 53 OFFCURVE",
"231 53 CURVE SMOOTH",
"162 53 OFFCURVE",
"126 86 OFFCURVE",
"126 146 CURVE SMOOTH",
"126 204 OFFCURVE",
"160 246 OFFCURVE",
"258 246 CURVE SMOOTH",
"386 246 LINE",
"386 298 LINE",
"254 298 LINE SMOOTH",
"103 298 OFFCURVE",
"45 232 OFFCURVE",
"45 139 CURVE SMOOTH",
"45 46 OFFCURVE",
"109 -9 OFFCURVE",
"215 -9 CURVE SMOOTH"
);
},
{
closed = 1;
nodes = (
"433 265 LINE",
"433 358 LINE SMOOTH",
"433 501 OFFCURVE",
"365 551 OFFCURVE",
"233 551 CURVE SMOOTH",
"184 551 OFFCURVE",
"126 543 OFFCURVE",
"79 527 CURVE",
"79 461 LINE",
"130 478 OFFCURVE",
"184 485 OFFCURVE",
"225 485 CURVE SMOOTH",
"318 485 OFFCURVE",
"366 458 OFFCURVE",
"366 360 CURVE SMOOTH",
"366 272 LINE"
);
}
);
width = 825;
}
);
leftKerningGroup = a;
leftMetricsKey = a;
rightKerningGroup = e;
rightMetricsKey = e;
unicode = 00E6;
},
{
glyphname = b;
lastChange = "2016-12-22 13:06:28 +0000";
layers = (
{
anchors = (
{
name = bottom;
position = "{283, 0}";
},
{
name = top;
position = "{114, 808}";
}
);
color = -1;
layerId = "A5DE6A3D-57BF-416A-9BB2-6BD11ABBF04E";
paths = (
{
closed = 1;
nodes = (
"422 -10 OFFCURVE",
"516 85 OFFCURVE",
"516 282 CURVE SMOOTH",
"516 479 OFFCURVE",
"422 551 OFFCURVE",
"309 551 CURVE SMOOTH",
"243 551 OFFCURVE",
"192 524 OFFCURVE",
"159 486 CURVE",
"154 486 LINE",
"154 808 LINE",
"74 808 LINE",
"74 15 LINE",
"125 -1 OFFCURVE",
"185 -9 OFFCURVE",
"242 -9 CURVE SMOOTH"
);
},
{
closed = 1;
nodes = (
"213 56 OFFCURVE",
"178 61 OFFCURVE",
"154 68 CURVE",
"154 419 LINE",
"186 462 OFFCURVE",
"236 482 OFFCURVE",
"285 482 CURVE SMOOTH",
"371 482 OFFCURVE",
"435 436 OFFCURVE",
"435 274 CURVE SMOOTH",
"435 119 OFFCURVE",
"370 56 OFFCURVE",
"248 56 CURVE SMOOTH"
);
}
);
width = 562;
}
);
leftKerningGroup = l;
leftMetricsKey = n;
rightKerningGroup = o;
rightMetricsKey = o;
unicode = 0062;
userData = {
com.typemytype.robofont.layerData = {
};
};
},
{
glyphname = c;
lastChange = "2016-12-22 13:06:28 +0000";
layers = (
{
anchors = (
{
name = bottom;
position = "{257, 0}";
},
{
name = top;
position = "{255, 600}";
}
);
color = -1;
layerId = "A5DE6A3D-57BF-416A-9BB2-6BD11ABBF04E";
paths = (
{
closed = 1;
nodes = (
"330 -10 OFFCURVE",
"375 -2 OFFCURVE",
"417 13 CURVE",
"417 81 LINE",
"369 65 OFFCURVE",
"332 59 OFFCURVE",
"297 59 CURVE SMOOTH",
"187 59 OFFCURVE",
"129 115 OFFCURVE",
"129 273 CURVE SMOOTH",
"129 427 OFFCURVE",
"189 483 OFFCURVE",
"315 483 CURVE SMOOTH",
"348 483 OFFCURVE",
"382 478 OFFCURVE",
"417 469 CURVE",
"417 537 LINE",
"383 546 OFFCURVE",
"344 551 OFFCURVE",
"306 551 CURVE SMOOTH",
"139 551 OFFCURVE",
"46 468 OFFCURVE",
"46 271 CURVE SMOOTH",
"46 75 OFFCURVE",
"132 -10 OFFCURVE",
"286 -10 CURVE SMOOTH"
);
}
);
width = 435;
}
);
leftKerningGroup = o;
leftMetricsKey = o;
rightKerningGroup = c;
unicode = 0063;
userData = {
com.typemytype.robofont.layerData = {
};
};
},
{
glyphname = d;
lastChange = "2016-12-22 13:06:28 +0000";
layers = (
{
anchors = (
{
name = bottom;
position = "{282, 0}";
},
{
name = caronalt;
position = "{544, 808}";
},
{
name = center;
position = "{280, 271}";
},
{
name = stroke;
position = "{488, 678}";
},
{
name = top;
position = "{278, 600}";
},
{
name = topright;
position = "{539, 543}";
}
);
color = -1;
layerId = "A5DE6A3D-57BF-416A-9BB2-6BD11ABBF04E";
paths = (
{
closed = 1;
nodes = (
"324 -9 OFFCURVE",
"376 19 OFFCURVE",
"409 59 CURVE",
"414 59 LINE",
"419 0 LINE",
"488 0 LINE",
"488 808 LINE",
"408 808 LINE",
"408 544 LINE",
"382 548 OFFCURVE",
"350 551 OFFCURVE",
"320 551 CURVE SMOOTH",
"140 551 OFFCURVE",
"46 456 OFFCURVE",
"46 260 CURVE SMOOTH",
"46 65 OFFCURVE",
"141 -9 OFFCURVE",
"259 -9 CURVE SMOOTH"
);
},
{
closed = 1;
nodes = (
"189 60 OFFCURVE",
"127 107 OFFCURVE",
"127 267 CURVE SMOOTH",
"127 422 OFFCURVE",
"192 486 OFFCURVE",
"318 486 CURVE SMOOTH",
"349 486 OFFCURVE",
"383 482 OFFCURVE",
"408 476 CURVE",
"408 126 LINE",
"376 80 OFFCURVE",
"326 60 OFFCURVE",
"278 60 CURVE SMOOTH"
);
}
);
width = 562;
}
);
leftKerningGroup = o;
leftMetricsKey = o;
rightKerningGroup = l;
rightMetricsKey = "=|n";
unicode = 0064;
userData = {
com.typemytype.robofont.layerData = {
};
};
},
{
glyphname = eth;
lastChange = "2016-12-22 13:06:28 +0000";
layers = (
{
color = -1;
layerId = "A5DE6A3D-57BF-416A-9BB2-6BD11ABBF04E";
paths = (
{
closed = 1;
nodes = (
"417 -10 OFFCURVE",
"507 81 OFFCURVE",
"507 292 CURVE SMOOTH",
"507 490 OFFCURVE",
"394 703 OFFCURVE",
"251 808 CURVE",
"152 808 LINE",
"285 709 OFFCURVE",
"364 590 OFFCURVE",
"401 468 CURVE",
"433 455 LINE",
"395 527 OFFCURVE",
"335 550 OFFCURVE",
"271 550 CURVE SMOOTH",
"136 550 OFFCURVE",
"46 467 OFFCURVE",
"46 271 CURVE SMOOTH",
"46 74 OFFCURVE",
"136 -10 OFFCURVE",
"277 -10 CURVE SMOOTH"
);
},
{
closed = 1;
nodes = (
"185 55 OFFCURVE",
"127 109 OFFCURVE",
"127 272 CURVE SMOOTH",
"127 433 OFFCURVE",
"185 486 OFFCURVE",
"276 486 CURVE SMOOTH",
"368 486 OFFCURVE",
"425 433 OFFCURVE",
"425 269 CURVE SMOOTH",
"425 114 OFFCURVE",
"368 55 OFFCURVE",
"277 55 CURVE SMOOTH"
);
},
{
closed = 1;
nodes = (
"495 679 LINE",
"485 729 LINE",
"92 662 LINE",
"101 612 LINE"
);
}
);
width = 553;
}
);
leftKerningGroup = o;
leftMetricsKey = o;
widthMetricsKey = o;
rightKerningGroup = o;
unicode = 00F0;
userData = {
com.typemytype.robofont.layerData = {
};
};
},
{
glyphname = e;
lastChange = "2016-12-22 13:06:28 +0000";
layers = (
{
anchors = (
{
name = bottom;
position = "{264, 0}";
},
{
name = ogonek;
position = "{408, 0}";
},
{
name = top;
position = "{264, 600}";
}
);
color = -1;
layerId = "A5DE6A3D-57BF-416A-9BB2-6BD11ABBF04E";
paths = (
{
closed = 1;
nodes = (
"349 -10 OFFCURVE",
"395 -3 OFFCURVE",
"447 12 CURVE",
"447 78 LINE",
"397 63 OFFCURVE",
"353 56 OFFCURVE",
"312 56 CURVE SMOOTH",
"186 56 OFFCURVE",
"127 110 OFFCURVE",
"127 260 CURVE SMOOTH",
"127 287 LINE SMOOTH",
"127 439 OFFCURVE",
"179 491 OFFCURVE",
"264 491 CURVE SMOOTH",
"349 491 OFFCURVE",
"397 438 OFFCURVE",
"397 286 CURVE",
"415 298 LINE",
"90 298 LINE",
"90 245 LINE",
"474 245 LINE",
"474 270 LINE SMOOTH",
"474 462 OFFCURVE",
"398 551 OFFCURVE",
"265 551 CURVE SMOOTH",
"130 551 OFFCURVE",
"46 462 OFFCURVE",
"46 272 CURVE SMOOTH",
"46 72 OFFCURVE",
"134 -10 OFFCURVE",
"303 -10 CURVE SMOOTH"
);
}
);
width = 512;
}
);
leftKerningGroup = o;
leftMetricsKey = o;
rightKerningGroup = e;
unicode = 0065;
userData = {
com.typemytype.robofont.layerData = {
};
};
},
{
glyphname = eogonek;
lastChange = "2016-12-22 13:06:28 +0000";
layers = (
{
color = -1;
layerId = "A5DE6A3D-57BF-416A-9BB2-6BD11ABBF04E";
paths = (
{
closed = 1;
nodes = (
"397 -208 OFFCURVE",
"425 -201 OFFCURVE",
"447 -189 CURVE",
"447 -148 LINE",
"423 -161 OFFCURVE",
"399 -168 OFFCURVE",
"375 -168 CURVE SMOOTH",
"335 -168 OFFCURVE",
"312 -147 OFFCURVE",
"312 -111 CURVE SMOOTH",
"312 -71 OFFCURVE",
"337 -24 OFFCURVE",
"447 12 CURVE",
"447 78 LINE",
"397 63 OFFCURVE",
"353 56 OFFCURVE",
"312 56 CURVE SMOOTH",
"186 56 OFFCURVE",
"127 110 OFFCURVE",
"127 260 CURVE SMOOTH",
"127 287 LINE SMOOTH",
"127 439 OFFCURVE",
"179 491 OFFCURVE",
"264 491 CURVE SMOOTH",
"349 491 OFFCURVE",
"397 438 OFFCURVE",
"397 286 CURVE",
"415 298 LINE",
"90 298 LINE",
"90 245 LINE",
"474 245 LINE",
"474 270 LINE SMOOTH",
"474 462 OFFCURVE",
"398 551 OFFCURVE",
"265 551 CURVE SMOOTH",
"130 551 OFFCURVE",
"46 462 OFFCURVE",
"46 272 CURVE SMOOTH",
"46 72 OFFCURVE",
"134 -10 OFFCURVE",
"303 -10 CURVE SMOOTH",
"320 -10 OFFCURVE",
"338 -9 OFFCURVE",
"356 -6 CURVE",
"353 7 LINE",
"289 -22 OFFCURVE",
"261 -66 OFFCURVE",
"261 -116 CURVE SMOOTH",
"261 -173 OFFCURVE",
"300 -208 OFFCURVE",
"368 -208 CURVE SMOOTH"
);
}
);
width = 512;
}
);
leftKerningGroup = o;
leftMetricsKey = e;
widthMetricsKey = e;
rightKerningGroup = e;
unicode = 0119;
},
{
glyphname = f;
lastChange = "2016-12-22 13:06:28 +0000";
layers = (
{
color = -1;
layerId = "A5DE6A3D-57BF-416A-9BB2-6BD11ABBF04E";
paths = (
{
closed = 1;
nodes = (
"190 0 LINE",
"190 627 LINE SMOOTH",
"190 716 OFFCURVE",
"230 751 OFFCURVE",
"315 751 CURVE SMOOTH",
"337 751 OFFCURVE",
"359 749 OFFCURVE",
"381 745 CURVE",
"381 812 LINE",
"357 816 OFFCURVE",
"332 818 OFFCURVE",
"308 818 CURVE SMOOTH",
"177 818 OFFCURVE",
"110 751 OFFCURVE",
"110 624 CURVE SMOOTH",
"110 0 LINE"
);
},
{
closed = 1;
nodes = (
"360 476 LINE",
"360 543 LINE",
"8 543 LINE",
"8 476 LINE"
);
}
);
width = 356;
}
);
leftKerningGroup = t;
rightKerningGroup = f;
unicode = 0066;
userData = {
com.typemytype.robofont.layerData = {
};
};
},
{
glyphname = g;
lastChange = "2016-12-22 13:06:28 +0000";
layers = (
{
anchors = (
{
name = bottom;
position = "{287, -220}";
},
{
name = top;
position = "{291, 600}";
}
);
color = -1;
layerId = "A5DE6A3D-57BF-416A-9BB2-6BD11ABBF04E";
paths = (
{
closed = 1;
nodes = (
"405 -230 OFFCURVE",
"488 -159 OFFCURVE",
"488 17 CURVE SMOOTH",
"488 526 LINE",
"437 543 OFFCURVE",
"377 551 OFFCURVE",
"321 551 CURVE SMOOTH",
"140 551 OFFCURVE",
"46 455 OFFCURVE",
"46 260 CURVE SMOOTH",
"46 65 OFFCURVE",
"141 -7 OFFCURVE",
"253 -7 CURVE SMOOTH",
"319 -7 OFFCURVE",
"370 20 OFFCURVE",
"403 57 CURVE",
"408 57 LINE",
"408 5 LINE SMOOTH",
"408 -120 OFFCURVE",
"353 -164 OFFCURVE",
"236 -164 CURVE SMOOTH",
"188 -164 OFFCURVE",
"136 -156 OFFCURVE",
"80 -138 CURVE",
"80 -206 LINE",
"129 -222 OFFCURVE",
"190 -230 OFFCURVE",
"240 -230 CURVE SMOOTH"
);
},
{
closed = 1;
nodes = (
"191 62 OFFCURVE",
"127 107 OFFCURVE",
"127 268 CURVE SMOOTH",
"127 422 OFFCURVE",
"193 485 OFFCURVE",
"314 485 CURVE SMOOTH",
"349 485 OFFCURVE",
"383 480 OFFCURVE",
"408 473 CURVE",
"408 124 LINE",
"376 81 OFFCURVE",
"325 62 OFFCURVE",
"277 62 CURVE SMOOTH"
);
}
);
width = 562;
}
);
leftKerningGroup = o;
leftMetricsKey = o;
rightKerningGroup = u;
rightMetricsKey = "=|n";
unicode = 0067;
userData = {
com.typemytype.robofont.layerData = {
};
};
},
{
glyphname = h;
lastChange = "2016-12-22 13:06:28 +0000";
layers = (
{
anchors = (
{
name = bottom;
position = "{286, 0}";
},
{
name = center;
position = "{286, 271}";
},
{
name = stroke;
position = "{74, 677}";
},
{
name = top;
position = "{286, 808}";
}
);
color = -1;
layerId = "A5DE6A3D-57BF-416A-9BB2-6BD11ABBF04E";
paths = (
{
closed = 1;
nodes = (
"154 0 LINE",
"154 407 LINE",
"193 459 OFFCURVE",
"253 479 OFFCURVE",
"304 479 CURVE SMOOTH",
"372 479 OFFCURVE",
"417 448 OFFCURVE",
"417 355 CURVE SMOOTH",
"417 0 LINE",
"497 0 LINE",
"497 359 LINE SMOOTH",
"497 500 OFFCURVE",
"425 551 OFFCURVE",
"326 551 CURVE SMOOTH",
"261 551 OFFCURVE",
"203 528 OFFCURVE",
"159 482 CURVE",
"154 482 LINE",
"154 808 LINE",
"74 808 LINE",
"74 0 LINE"
);
}
);
width = 566;
}
);
leftKerningGroup = l;
leftMetricsKey = n;
rightKerningGroup = n;
rightMetricsKey = n;
unicode = 0068;
userData = {
com.typemytype.robofont.layerData = {
};
};
},
{
glyphname = idotless;
lastChange = "2016-12-22 13:06:35 +0000";
layers = (
{
anchors = (
{
name = bottom;
position = "{114, 0}";
},
{
name = ogonek;
position = "{154, 0}";
},
{
name = top;
position = "{114, 600}";
}
);
color = -1;
layerId = "A5DE6A3D-57BF-416A-9BB2-6BD11ABBF04E";
paths = (
{
closed = 1;
nodes = (
"154 0 LINE",
"154 543 LINE",
"74 543 LINE",
"74 0 LINE"
);
}
);
width = 228;
}
);
leftKerningGroup = n;
leftMetricsKey = n;
rightKerningGroup = u;
rightMetricsKey = "=|n";
unicode = 0131;
userData = {
com.typemytype.robofont.layerData = {
};
};
},
{
glyphname = jdotless;
lastChange = "2016-12-22 13:06:35 +0000";
layers = (
{
anchors = (
{
name = top;
position = "{114, 602}";
}
);
color = -1;
layerId = "A5DE6A3D-57BF-416A-9BB2-6BD11ABBF04E";
paths = (
{
closed = 1;
nodes = (
"121 -131 OFFCURVE",
"154 -39 OFFCURVE",
"154 89 CURVE SMOOTH",
"154 543 LINE",
"74 543 LINE",
"74 85 LINE SMOOTH",
"74 -31 OFFCURVE",
"49 -109 OFFCURVE",
"-15 -196 CURVE",
"38 -232 LINE"
);
}
);
width = 228;
}
);
leftKerningGroup = j;
widthMetricsKey = "=idotless";
rightKerningGroup = u;
rightMetricsKey = "=|n";
unicode = 0237;
userData = {
com.typemytype.robofont.layerData = {
};
};
},
{
glyphname = k;
lastChange = "2016-12-22 13:06:28 +0000";
layers = (
{
anchors = (
{
name = bottom;
position = "{277, 0}";
},
{
name = top;
position = "{114, 808}";
}
);
color = -1;
layerId = "A5DE6A3D-57BF-416A-9BB2-6BD11ABBF04E";
paths = (
{
closed = 1;
nodes = (
"528 0 LINE",
"304 290 LINE",
"304 268 LINE",
"512 543 LINE",
"423 543 LINE",
"220 278 LINE",
"438 0 LINE"
);
},
{
closed = 1;
nodes = (
"254 244 LINE",
"254 311 LINE",
"144 311 LINE",
"144 244 LINE"
);
},
{
closed = 1;
nodes = (
"154 0 LINE",
"154 808 LINE",
"74 808 LINE",
"74 0 LINE"
);
}
);
width = 516;
}
);
leftKerningGroup = l;
leftMetricsKey = n;
rightKerningGroup = k;
unicode = 006B;
userData = {
com.typemytype.robofont.layerData = {
};
};
},
{
glyphname = kgreenlandic;
lastChange = "2016-12-22 13:06:28 +0000";
layers = (
{
color = -1;
layerId = "A5DE6A3D-57BF-416A-9BB2-6BD11ABBF04E";
paths = (
{
closed = 1;
nodes = (
"528 0 LINE",
"304 290 LINE",
"304 268 LINE",
"512 543 LINE",
"423 543 LINE",
"220 278 LINE",
"438 0 LINE"
);
},
{
closed = 1;
nodes = (
"154 0 LINE",
"154 543 LINE",
"74 543 LINE",
"74 0 LINE"
);
},
{
closed = 1;
nodes = (
"254 244 LINE",
"254 311 LINE",
"144 311 LINE",
"144 244 LINE"
);
}
);
width = 516;
}
);
leftMetricsKey = n;
rightKerningGroup = k;
rightMetricsKey = k;
unicode = 0138;
userData = {
com.typemytype.robofont.layerData = {
};
};
},
{
glyphname = l;
lastChange = "2016-12-22 13:06:35 +0000";
layers = (
{
anchors = (
{
name = bottom;
position = "{114, 0}";
},
{
name = caronalt;
position = "{211, 808}";
},
{
name = periodcentered;
position = "{249, 397}";
},
{
name = slash;
position = "{114, 357}";
},
{
name = top;
position = "{114, 808}";
}
);
color = -1;
layerId = "A5DE6A3D-57BF-416A-9BB2-6BD11ABBF04E";
paths = (
{
closed = 1;
nodes = (
"154 0 LINE",
"154 808 LINE",
"74 808 LINE",
"74 0 LINE"
);
}
);
width = 228;
}
);
leftKerningGroup = l;
leftMetricsKey = n;
rightKerningGroup = l;
rightMetricsKey = "=|n";
unicode = 006C;
userData = {
com.typemytype.robofont.layerData = {
};
};
},
{
glyphname = ldot;
lastChange = "2016-12-22 13:06:28 +0000";
layers = (
{
color = -1;
layerId = "A5DE6A3D-57BF-416A-9BB2-6BD11ABBF04E";
paths = (
{
closed = 1;
nodes = (
"154 0 LINE",
"154 808 LINE",
"74 808 LINE",
"74 0 LINE"
);
},
{
closed = 1;
nodes = (
"290 346 OFFCURVE",
"310 365 OFFCURVE",
"310 396 CURVE SMOOTH",
"310 428 OFFCURVE",
"290 447 OFFCURVE",
"254 447 CURVE SMOOTH",
"218 447 OFFCURVE",
"198 428 OFFCURVE",
"198 396 CURVE SMOOTH",
"198 365 OFFCURVE",
"218 346 OFFCURVE",
"254 346 CURVE SMOOTH"
);
}
);
width = 285;
}
);
leftKerningGroup = l;
leftMetricsKey = l;
unicode = 0140;
},
{
glyphname = m;
lastChange = "2016-12-22 13:06:35 +0000";
layers = (
{
anchors = (
{
name = bottom;
position = "{427, 0}";
},
{
name = top;
position = "{427, 600}";
}
);
color = -1;
layerId = "A5DE6A3D-57BF-416A-9BB2-6BD11ABBF04E";
paths = (
{
closed = 1;
nodes = (
"154 0 LINE",
"154 405 LINE",
"189 459 OFFCURVE",
"243 479 OFFCURVE",
"287 479 CURVE SMOOTH",
"347 479 OFFCURVE",
"387 449 OFFCURVE",
"387 355 CURVE SMOOTH",
"387 0 LINE",
"466 0 LINE",
"466 361 LINE SMOOTH",
"466 500 OFFCURVE",
"400 551 OFFCURVE",
"310 551 CURVE SMOOTH",
"249 551 OFFCURVE",
"194 527 OFFCURVE",
"153 481 CURVE",
"147 481 LINE",
"142 543 LINE",
"74 543 LINE",
"74 0 LINE"
);
},
{
closed = 1;
nodes = (
"776 0 LINE",
"776 359 LINE SMOOTH",
"776 500 OFFCURVE",
"707 551 OFFCURVE",
"613 551 CURVE SMOOTH",
"553 551 OFFCURVE",
"485 527 OFFCURVE",
"433 458 CURVE",
"453 394 LINE",
"489 459 OFFCURVE",
"548 479 OFFCURVE",
"594 479 CURVE SMOOTH",
"654 479 OFFCURVE",
"696 449 OFFCURVE",
"696 355 CURVE SMOOTH",
"696 0 LINE"
);
}
);
width = 845;
}
);
leftKerningGroup = n;
leftMetricsKey = n;
rightKerningGroup = n;
rightMetricsKey = n;
unicode = 006D;
userData = {
com.typemytype.robofont.layerData = {
};
};
},
{
glyphname = n;
lastChange = "2016-12-22 13:06:28 +0000";
layers = (
{
anchors = (
{
name = apostrophe;
position = "{5, 600}";
},
{
name = bottom;
position = "{286, 0}";
},
{
name = top;
position = "{286, 600}";
}
);
color = -1;
layerId = "A5DE6A3D-57BF-416A-9BB2-6BD11ABBF04E";
paths = (
{
closed = 1;
nodes = (
"154 0 LINE",
"154 407 LINE",
"194 460 OFFCURVE",
"255 479 OFFCURVE",
"304 479 CURVE SMOOTH",
"373 479 OFFCURVE",
"417 448 OFFCURVE",
"417 355 CURVE SMOOTH",
"417 0 LINE",
"497 0 LINE",
"497 359 LINE SMOOTH",
"497 500 OFFCURVE",
"425 551 OFFCURVE",
"323 551 CURVE SMOOTH",
"257 551 OFFCURVE",
"197 526 OFFCURVE",
"153 481 CURVE",
"147 481 LINE",
"142 543 LINE",
"74 543 LINE",
"74 0 LINE"
);
}
);
width = 566;
}
);
leftKerningGroup = n;
rightKerningGroup = n;
unicode = 006E;
userData = {
com.typemytype.robofont.layerData = {
};
};
},
{
glyphname = eng;
lastChange = "2016-12-22 13:06:28 +0000";
layers = (
{
color = -1;
layerId = "A5DE6A3D-57BF-416A-9BB2-6BD11ABBF04E";
paths = (
{
closed = 1;
nodes = (
"464 -131 OFFCURVE",
"493 -43 OFFCURVE",
"497 75 CURVE SMOOTH",
"497 359 LINE SMOOTH",
"497 500 OFFCURVE",
"425 551 OFFCURVE",
"324 551 CURVE SMOOTH",
"258 551 OFFCURVE",
"198 528 OFFCURVE",
"153 481 CURVE",
"147 481 LINE",
"142 543 LINE",
"74 543 LINE",
"74 0 LINE",
"154 0 LINE",
"154 408 LINE",
"193 459 OFFCURVE",
"253 480 OFFCURVE",
"304 480 CURVE SMOOTH",
"372 480 OFFCURVE",
"417 449 OFFCURVE",
"417 356 CURVE SMOOTH",
"417 85 LINE SMOOTH",
"417 -31 OFFCURVE",
"392 -109 OFFCURVE",
"328 -196 CURVE",
"381 -232 LINE"
);
}
);
width = 566;
}
);
leftKerningGroup = n;
leftMetricsKey = n;
rightKerningGroup = n;
rightMetricsKey = n;
unicode = 014B;
},
{
glyphname = o;
lastChange = "2016-12-22 13:06:28 +0000";
layers = (
{
anchors = (
{
name = bottom;
position = "{276, 0}";
},
{
name = center;
position = "{276, 271}";
},
{
name = ogonek;
position = "{351, 0}";
},
{
name = top;
position = "{276, 600}";
},
{
name = topright;
position = "{323, 543}";
}
);
color = -1;
layerId = "A5DE6A3D-57BF-416A-9BB2-6BD11ABBF04E";
paths = (
{
closed = 1;
nodes = (
"416 -10 OFFCURVE",
"507 76 OFFCURVE",
"507 271 CURVE SMOOTH",
"507 467 OFFCURVE",
"417 551 OFFCURVE",
"276 551 CURVE SMOOTH",
"135 551 OFFCURVE",
"46 466 OFFCURVE",
"46 271 CURVE SMOOTH",
"46 74 OFFCURVE",
"137 -10 OFFCURVE",
"276 -10 CURVE SMOOTH"
);
},
{
closed = 1;
nodes = (
"185 56 OFFCURVE",
"127 109 OFFCURVE",
"127 272 CURVE SMOOTH",
"127 433 OFFCURVE",
"185 486 OFFCURVE",
"276 486 CURVE SMOOTH",
"368 486 OFFCURVE",
"425 433 OFFCURVE",
"425 270 CURVE SMOOTH",
"425 109 OFFCURVE",
"368 56 OFFCURVE",
"276 56 CURVE SMOOTH"
);
}
);
width = 553;
}
);
leftKerningGroup = o;
rightKerningGroup = o;
unicode = 006F;
userData = {
com.typemytype.robofont.layerData = {
};
};
},
{
glyphname = ohorn;
lastChange = "2016-12-22 13:06:28 +0000";
layers = (
{
anchors = (
{
name = bottom;
position = "{275, 0}";
},
{
name = center;
position = "{276, 271}";
},
{
name = ogonek;
position = "{351, 0}";
},
{
name = top;
position = "{274, 600}";
}
);
color = -1;
layerId = "A5DE6A3D-57BF-416A-9BB2-6BD11ABBF04E";
paths = (
{
closed = 1;
nodes = (
"416 -10 OFFCURVE",
"507 76 OFFCURVE",
"507 271 CURVE SMOOTH",
"507 397 OFFCURVE",
"472 479 OFFCURVE",
"400 521 CURVE",
"381 497 LINE",
"467 497 OFFCURVE",
"522 540 OFFCURVE",
"522 624 CURVE SMOOTH",
"522 653 OFFCURVE",
"518 674 OFFCURVE",
"510 698 CURVE",
"452 698 LINE",
"459 673 OFFCURVE",
"463 653 OFFCURVE",
"463 628 CURVE SMOOTH",
"463 570 OFFCURVE",
"427 546 OFFCURVE",
"367 546 CURVE SMOOTH",
"345 546 OFFCURVE",
"314 551 OFFCURVE",
"278 551 CURVE SMOOTH",
"135 551 OFFCURVE",
"46 466 OFFCURVE",
"46 271 CURVE SMOOTH",
"46 74 OFFCURVE",
"137 -10 OFFCURVE",
"276 -10 CURVE SMOOTH"
);
},
{
closed = 1;
nodes = (
"185 56 OFFCURVE",
"127 109 OFFCURVE",
"127 272 CURVE SMOOTH",
"127 433 OFFCURVE",
"185 486 OFFCURVE",
"276 486 CURVE SMOOTH",
"368 486 OFFCURVE",
"425 433 OFFCURVE",
"425 270 CURVE SMOOTH",
"425 109 OFFCURVE",
"368 56 OFFCURVE",
"276 56 CURVE SMOOTH"
);
}
);
width = 553;
}
);
leftKerningGroup = o;
leftMetricsKey = o;
widthMetricsKey = o;
rightKerningGroup = ohorn;
unicode = 01A1;
},
{
glyphname = ohorntilde;
lastChange = "2016-12-22 13:06:28 +0000";
layers = (
{
color = -1;
layerId = "A5DE6A3D-57BF-416A-9BB2-6BD11ABBF04E";
paths = (
{
closed = 1;
nodes = (
"416 -10 OFFCURVE",
"507 76 OFFCURVE",
"507 271 CURVE SMOOTH",
"507 397 OFFCURVE",
"472 479 OFFCURVE",
"400 521 CURVE",
"381 497 LINE",
"467 497 OFFCURVE",
"522 540 OFFCURVE",
"522 624 CURVE SMOOTH",
"522 653 OFFCURVE",
"518 674 OFFCURVE",
"510 698 CURVE",
"452 698 LINE",
"459 673 OFFCURVE",
"463 653 OFFCURVE",
"463 628 CURVE SMOOTH",
"463 570 OFFCURVE",
"427 546 OFFCURVE",
"367 546 CURVE SMOOTH",
"345 546 OFFCURVE",
"314 551 OFFCURVE",
"278 551 CURVE SMOOTH",
"135 551 OFFCURVE",
"46 466 OFFCURVE",
"46 271 CURVE SMOOTH",
"46 74 OFFCURVE",
"137 -10 OFFCURVE",
"276 -10 CURVE SMOOTH"
);
},
{
closed = 1;
nodes = (
"185 56 OFFCURVE",
"127 109 OFFCURVE",
"127 272 CURVE SMOOTH",
"127 433 OFFCURVE",
"185 486 OFFCURVE",
"276 486 CURVE SMOOTH",
"368 486 OFFCURVE",
"425 433 OFFCURVE",
"425 270 CURVE SMOOTH",
"425 109 OFFCURVE",
"368 56 OFFCURVE",
"276 56 CURVE SMOOTH"
);
},
{
closed = 1;
nodes = (
"374 672 OFFCURVE",
"401 684 OFFCURVE",
"422 706 CURVE",
"422 764 LINE",
"397 738 OFFCURVE",
"372 726 OFFCURVE",
"341 726 CURVE SMOOTH",
"297 726 OFFCURVE",
"256 767 OFFCURVE",
"201 767 CURVE SMOOTH",
"168 767 OFFCURVE",
"141 755 OFFCURVE",
"120 733 CURVE",
"120 675 LINE",
"145 701 OFFCURVE",
"169 713 OFFCURVE",
"200 713 CURVE SMOOTH",
"245 713 OFFCURVE",
"286 672 OFFCURVE",
"341 672 CURVE SMOOTH"
);
}
);
width = 553;
}
);
leftKerningGroup = o;
leftMetricsKey = o;
widthMetricsKey = o;
rightKerningGroup = ohorn;
unicode = 1EE1;
},
{
glyphname = oogonek;
lastChange = "2016-12-22 13:06:28 +0000";
layers = (
{
anchors = (
{
name = bottom;
position = "{276, 0}";
},
{
name = center;
position = "{276, 271}";
},
{
name = top;
position = "{276, 600}";
},
{
name = topright;
position = "{323, 543}";
}
);
color = -1;
layerId = "A5DE6A3D-57BF-416A-9BB2-6BD11ABBF04E";
paths = (
{
closed = 1;
nodes = (
"330 -208 OFFCURVE",
"357 -201 OFFCURVE",
"380 -189 CURVE",
"373 -152 LINE",
"351 -163 OFFCURVE",
"330 -168 OFFCURVE",
"308 -168 CURVE SMOOTH",
"269 -168 OFFCURVE",
"244 -148 OFFCURVE",
"244 -110 CURVE SMOOTH",
"244 -71 OFFCURVE",
"268 -27 OFFCURVE",
"358 2 CURVE SMOOTH",
"451 32 OFFCURVE",
"507 116 OFFCURVE",
"507 271 CURVE SMOOTH",
"507 467 OFFCURVE",
"417 551 OFFCURVE",
"276 551 CURVE SMOOTH",
"135 551 OFFCURVE",
"46 466 OFFCURVE",
"46 271 CURVE SMOOTH",
"46 74 OFFCURVE",
"137 -10 OFFCURVE",
"277 -10 CURVE",
"281 5 LINE",
"218 -26 OFFCURVE",
"193 -68 OFFCURVE",
"193 -116 CURVE SMOOTH",
"193 -174 OFFCURVE",
"234 -208 OFFCURVE",
"301 -208 CURVE SMOOTH"
);
},
{
closed = 1;
nodes = (
"185 56 OFFCURVE",
"127 109 OFFCURVE",
"127 272 CURVE SMOOTH",
"127 433 OFFCURVE",
"185 486 OFFCURVE",
"276 486 CURVE SMOOTH",
"368 486 OFFCURVE",
"425 433 OFFCURVE",
"425 270 CURVE SMOOTH",
"425 109 OFFCURVE",
"368 56 OFFCURVE",
"276 56 CURVE SMOOTH"
);
}
);
width = 553;
}
);
leftKerningGroup = o;
leftMetricsKey = o;
widthMetricsKey = o;
rightKerningGroup = o;
unicode = 01EB;
},
{
glyphname = oe;
lastChange = "2016-12-22 13:06:28 +0000";
layers = (
{
anchors = (
{
name = bottom;
position = "{463, 0}";
},
{
name = top;
position = "{463, 587}";
}
);
color = -1;
layerId = "A5DE6A3D-57BF-416A-9BB2-6BD11ABBF04E";
paths = (
{
closed = 1;
nodes = (
"409 -10 OFFCURVE",
"491 79 OFFCURVE",
"491 271 CURVE SMOOTH",
"491 463 OFFCURVE",
"410 551 OFFCURVE",
"272 551 CURVE SMOOTH",
"135 551 OFFCURVE",
"46 466 OFFCURVE",
"46 271 CURVE SMOOTH",
"46 74 OFFCURVE",
"137 -10 OFFCURVE",
"272 -10 CURVE SMOOTH"
);
},
{
closed = 1;
nodes = (
"185 56 OFFCURVE",
"127 109 OFFCURVE",
"127 272 CURVE SMOOTH",
"127 433 OFFCURVE",
"185 486 OFFCURVE",
"275 486 CURVE SMOOTH",
"365 486 OFFCURVE",
"423 433 OFFCURVE",
"423 270 CURVE SMOOTH",
"423 109 OFFCURVE",
"365 56 OFFCURVE",
"275 56 CURVE SMOOTH"
);
},
{
closed = 1;
nodes = (
"723 -10 OFFCURVE",
"769 -3 OFFCURVE",
"821 12 CURVE",
"821 78 LINE",
"771 63 OFFCURVE",
"728 56 OFFCURVE",
"687 56 CURVE SMOOTH",
"564 56 OFFCURVE",
"504 110 OFFCURVE",
"504 260 CURVE SMOOTH",
"504 287 LINE SMOOTH",
"504 439 OFFCURVE",
"556 492 OFFCURVE",
"639 492 CURVE SMOOTH",
"722 492 OFFCURVE",
"771 439 OFFCURVE",
"771 284 CURVE",
"789 298 LINE",
"486 298 LINE",
"486 245 LINE",
"848 245 LINE",
"848 270 LINE SMOOTH",
"848 464 OFFCURVE",
"770 551 OFFCURVE",
"642 551 CURVE SMOOTH",
"515 551 OFFCURVE",
"437 462 OFFCURVE",
"437 280 CURVE",
"430 272 LINE",
"430 74 OFFCURVE",
"511 -10 OFFCURVE",
"678 -10 CURVE SMOOTH"
);
}
);
width = 886;
}
);
leftKerningGroup = o;
leftMetricsKey = o;
rightKerningGroup = e;
rightMetricsKey = e;
unicode = 0153;
},
{
glyphname = p;
lastChange = "2016-12-22 13:06:28 +0000";
layers = (
{
color = -1;
layerId = "A5DE6A3D-57BF-416A-9BB2-6BD11ABBF04E";
paths = (
{
closed = 1;
nodes = (
"154 -220 LINE",
"154 -3 LINE",
"180 -6 OFFCURVE",
"212 -9 OFFCURVE",
"242 -9 CURVE SMOOTH",
"422 -9 OFFCURVE",
"516 86 OFFCURVE",
"516 281 CURVE SMOOTH",
"516 480 OFFCURVE",
"420 551 OFFCURVE",
"303 551 CURVE SMOOTH",
"238 551 OFFCURVE",
"186 523 OFFCURVE",
"153 483 CURVE",
"148 483 LINE",
"142 543 LINE",
"74 543 LINE",
"74 -220 LINE"
);
},
{
closed = 1;
nodes = (
"213 56 OFFCURVE",
"178 60 OFFCURVE",
"154 66 CURVE",
"154 415 LINE",
"186 462 OFFCURVE",
"236 482 OFFCURVE",
"284 482 CURVE SMOOTH",
"371 482 OFFCURVE",
"435 436 OFFCURVE",
"435 274 CURVE SMOOTH",
"435 119 OFFCURVE",
"370 56 OFFCURVE",
"244 56 CURVE SMOOTH"
);
}
);
width = 562;
}
);
leftKerningGroup = n;
leftMetricsKey = n;
rightKerningGroup = o;
rightMetricsKey = o;
unicode = 0070;
userData = {
com.typemytype.robofont.layerData = {
};
};
},
{
glyphname = thorn;
lastChange = "2016-12-22 13:06:28 +0000";
layers = (
{
color = -1;
layerId = "A5DE6A3D-57BF-416A-9BB2-6BD11ABBF04E";
paths = (
{
closed = 1;
nodes = (
"154 -220 LINE",
"154 -3 LINE",
"180 -6 OFFCURVE",
"212 -9 OFFCURVE",
"242 -9 CURVE SMOOTH",
"422 -9 OFFCURVE",
"516 86 OFFCURVE",
"516 281 CURVE SMOOTH",
"516 479 OFFCURVE",
"422 551 OFFCURVE",
"309 551 CURVE SMOOTH",
"243 551 OFFCURVE",
"192 525 OFFCURVE",
"159 486 CURVE",
"154 486 LINE",
"154 808 LINE",
"74 808 LINE",
"74 -220 LINE"
);
},
{
closed = 1;
nodes = (
"213 56 OFFCURVE",
"178 60 OFFCURVE",
"154 66 CURVE",
"154 417 LINE",
"186 462 OFFCURVE",
"237 482 OFFCURVE",
"285 482 CURVE SMOOTH",
"371 482 OFFCURVE",
"435 436 OFFCURVE",
"435 274 CURVE SMOOTH",
"435 119 OFFCURVE",
"370 56 OFFCURVE",
"244 56 CURVE SMOOTH"
);
}
);
width = 562;
}
);
leftKerningGroup = KERN_h_2ND;
leftMetricsKey = n;
rightKerningGroup = o;
rightMetricsKey = o;
unicode = 00FE;
userData = {
com.typemytype.robofont.layerData = {
};
};
},
{
glyphname = q;
lastChange = "2016-12-22 13:06:28 +0000";
layers = (
{
color = -1;
layerId = "A5DE6A3D-57BF-416A-9BB2-6BD11ABBF04E";
paths = (
{
closed = 1;
nodes = (
"488 -220 LINE",
"488 526 LINE",
"437 543 OFFCURVE",
"377 551 OFFCURVE",
"320 551 CURVE SMOOTH",
"140 551 OFFCURVE",
"46 456 OFFCURVE",
"46 260 CURVE SMOOTH",
"46 63 OFFCURVE",
"140 -9 OFFCURVE",
"253 -9 CURVE SMOOTH",
"319 -9 OFFCURVE",
"370 17 OFFCURVE",
"403 55 CURVE",
"408 55 LINE",
"408 -220 LINE"
);
},
{
closed = 1;
nodes = (
"191 60 OFFCURVE",
"127 105 OFFCURVE",
"127 267 CURVE SMOOTH",
"127 423 OFFCURVE",
"192 486 OFFCURVE",
"314 486 CURVE SMOOTH",
"349 486 OFFCURVE",
"383 480 OFFCURVE",
"408 473 CURVE",
"408 122 LINE",
"376 79 OFFCURVE",
"325 60 OFFCURVE",
"277 60 CURVE SMOOTH"
);
}
);
width = 562;
}
);
leftKerningGroup = o;
leftMetricsKey = o;
rightKerningGroup = u;
rightMetricsKey = "=|n";
unicode = 0071;
userData = {
com.typemytype.robofont.layerData = {
};
};
},
{
glyphname = r;
lastChange = "2016-12-22 13:06:28 +0000";
layers = (
{
anchors = (
{
name = bottom;
position = "{114, 0}";
},
{
name = top;
position = "{210, 600}";
}
);
color = -1;
layerId = "A5DE6A3D-57BF-416A-9BB2-6BD11ABBF04E";
paths = (
{
closed = 1;
nodes = (
"154 0 LINE",
"154 396 LINE",
"190 448 OFFCURVE",
"254 473 OFFCURVE",
"308 473 CURVE SMOOTH",
"324 473 OFFCURVE",
"339 472 OFFCURVE",
"355 470 CURVE",
"355 544 LINE",
"341 547 OFFCURVE",
"328 548 OFFCURVE",
"311 548 CURVE SMOOTH",
"251 548 OFFCURVE",
"190 521 OFFCURVE",
"153 472 CURVE",
"148 472 LINE",
"141 543 LINE",
"74 543 LINE",
"74 0 LINE"
);
}
);
width = 360;
}
);
leftKerningGroup = n;
leftMetricsKey = n;
rightKerningGroup = r;
unicode = 0072;
userData = {
com.typemytype.robofont.layerData = {
};
};
},
{
glyphname = s;
lastChange = "2016-12-22 13:06:28 +0000";
layers = (
{
anchors = (
{
name = bottom;
position = "{226, 0}";
},
{
name = top;
position = "{226, 600}";
}
);
color = -1;
layerId = "A5DE6A3D-57BF-416A-9BB2-6BD11ABBF04E";
paths = (
{
closed = 1;
nodes = (
"342 -10 OFFCURVE",
"415 51 OFFCURVE",
"415 150 CURVE SMOOTH",
"415 231 OFFCURVE",
"374 276 OFFCURVE",
"274 297 CURVE SMOOTH",
"201 312 LINE SMOOTH",
"140 325 OFFCURVE",
"120 353 OFFCURVE",
"120 396 CURVE SMOOTH",
"120 447 OFFCURVE",
"156 487 OFFCURVE",
"263 487 CURVE SMOOTH",
"305 487 OFFCURVE",
"342 483 OFFCURVE",
"386 471 CURVE",
"386 536 LINE",
"347 546 OFFCURVE",
"305 551 OFFCURVE",
"261 551 CURVE SMOOTH",
"111 551 OFFCURVE",
"43 485 OFFCURVE",
"43 394 CURVE SMOOTH",
"43 316 OFFCURVE",
"82 268 OFFCURVE",
"181 246 CURVE SMOOTH",
"254 232 LINE SMOOTH",
"314 218 OFFCURVE",
"338 195 OFFCURVE",
"338 146 CURVE SMOOTH",
"338 88 OFFCURVE",
"298 54 OFFCURVE",
"201 54 CURVE SMOOTH",
"153 54 OFFCURVE",
"106 60 OFFCURVE",
"53 76 CURVE",
"53 11 LINE",
"100 -3 OFFCURVE",
"149 -10 OFFCURVE",
"200 -10 CURVE SMOOTH"
);
}
);
width = 448;
}
);
leftKerningGroup = s;
rightKerningGroup = s;
unicode = 0073;
userData = {
com.typemytype.robofont.layerData = {
};
};
},
{
glyphname = germandbls;
lastChange = "2016-12-22 13:06:28 +0000";
layers = (
{
color = -1;
layerId = "A5DE6A3D-57BF-416A-9BB2-6BD11ABBF04E";
paths = (
{
closed = 1;
nodes = (
"586 -10 OFFCURVE",
"659 51 OFFCURVE",
"659 150 CURVE SMOOTH",
"659 231 OFFCURVE",
"619 275 OFFCURVE",
"519 297 CURVE SMOOTH",
"445 312 LINE SMOOTH",
"386 325 OFFCURVE",
"364 353 OFFCURVE",
"364 396 CURVE SMOOTH",
"364 447 OFFCURVE",
"401 487 OFFCURVE",
"507 487 CURVE SMOOTH",
"540 487 OFFCURVE",
"561 484 OFFCURVE",
"581 481 CURVE",
"589 509 OFFCURVE",
"595 550 OFFCURVE",
"595 587 CURVE SMOOTH",
"595 750 OFFCURVE",
"497 818 OFFCURVE",
"365 818 CURVE SMOOTH",
"205 818 OFFCURVE",
"110 730 OFFCURVE",
"110 555 CURVE SMOOTH",
"110 0 LINE",
"190 0 LINE",
"190 554 LINE SMOOTH",
"190 699 OFFCURVE",
"254 756 OFFCURVE",
"369 756 CURVE SMOOTH",
"463 756 OFFCURVE",
"533 714 OFFCURVE",
"533 590 CURVE SMOOTH",
"533 564 OFFCURVE",
"529 536 OFFCURVE",
"523 511 CURVE",
"568 544 LINE",
"546 547 OFFCURVE",
"519 549 OFFCURVE",
"499 549 CURVE SMOOTH",
"356 549 OFFCURVE",
"288 485 OFFCURVE",
"288 393 CURVE SMOOTH",
"288 316 OFFCURVE",
"327 267 OFFCURVE",
"425 246 CURVE SMOOTH",
"499 232 LINE SMOOTH",
"559 218 OFFCURVE",
"582 195 OFFCURVE",
"582 146 CURVE SMOOTH",
"582 88 OFFCURVE",
"542 54 OFFCURVE",
"445 54 CURVE SMOOTH",
"397 54 OFFCURVE",
"350 60 OFFCURVE",
"298 75 CURVE",
"298 11 LINE",
"344 -3 OFFCURVE",
"394 -10 OFFCURVE",
"445 -10 CURVE SMOOTH"
);
},
{
closed = 1;
nodes = (
"148 475 LINE",
"148 543 LINE",
"8 543 LINE",
"8 475 LINE"
);
}
);
width = 692;
}
);
leftKerningGroup = t;
leftMetricsKey = f;
rightKerningGroup = s;
rightMetricsKey = s;
unicode = 00DF;
},
{
glyphname = t;
lastChange = "2016-12-22 13:06:28 +0000";
layers = (
{
anchors = (
{
name = bottom;
position = "{236, 0}";
},
{
name = caronalt;
position = "{274, 808}";
},
{
name = stroke;
position = "{106, 317}";
},
{
name = top;
position = "{146, 745}";
},
{
name = topright;
position = "{348, 808}";
}
);
color = -1;
layerId = "A5DE6A3D-57BF-416A-9BB2-6BD11ABBF04E";
paths = (
{
closed = 1;
nodes = (
"310 -9 OFFCURVE",
"338 -6 OFFCURVE",
"365 0 CURVE",
"365 68 LINE",
"339 63 OFFCURVE",
"319 60 OFFCURVE",
"299 60 CURVE SMOOTH",
"224 60 OFFCURVE",
"186 92 OFFCURVE",
"186 183 CURVE SMOOTH",
"186 740 LINE",
"119 740 LINE",
"106 543 LINE",
"106 170 LINE SMOOTH",
"106 45 OFFCURVE",
"170 -9 OFFCURVE",
"282 -9 CURVE SMOOTH"
);
},
{
closed = 1;
nodes = (
"357 476 LINE",
"357 543 LINE",
"4 543 LINE",
"4 476 LINE"
);
}
);
width = 372;
}
);
leftKerningGroup = t;
rightKerningGroup = t;
unicode = 0074;
userData = {
com.typemytype.robofont.layerData = {
};
};
},
{
glyphname = u;
lastChange = "2016-12-22 13:06:35 +0000";
layers = (
{
anchors = (
{
name = bottom;
position = "{279, 0}";
},
{
name = ogonek;
position = "{488, 0}";
},
{
name = top;
position = "{279, 600}";
},
{
name = topright;
position = "{414, 543}";
}
);
color = -1;
layerId = "A5DE6A3D-57BF-416A-9BB2-6BD11ABBF04E";
paths = (
{
closed = 1;
nodes = (
"305 -9 OFFCURVE",
"364 14 OFFCURVE",
"409 60 CURVE",
"414 60 LINE",
"420 0 LINE",
"488 0 LINE",
"488 543 LINE",
"408 543 LINE",
"408 134 LINE",
"369 83 OFFCURVE",
"309 62 OFFCURVE",
"260 62 CURVE SMOOTH",
"195 62 OFFCURVE",
"149 93 OFFCURVE",
"149 186 CURVE SMOOTH",
"149 543 LINE",
"69 543 LINE",
"69 182 LINE SMOOTH",
"69 42 OFFCURVE",
"142 -9 OFFCURVE",
"242 -9 CURVE SMOOTH"
);
}
);
width = 562;
}
);
leftKerningGroup = u;
leftMetricsKey = "=|n";
rightKerningGroup = u;
rightMetricsKey = "=|n";
unicode = 0075;
userData = {
com.typemytype.robofont.layerData = {
};
};
},
{
glyphname = uhorn;
lastChange = "2016-12-22 13:06:35 +0000";
layers = (
{
anchors = (
{
name = bottom;
position = "{279, 0}";
},
{
name = ogonek;
position = "{488, 0}";
},
{
name = top;
position = "{279, 600}";
}
);
color = -1;
layerId = "A5DE6A3D-57BF-416A-9BB2-6BD11ABBF04E";
paths = (
{
closed = 1;
nodes = (
"305 -9 OFFCURVE",
"364 14 OFFCURVE",
"409 60 CURVE",
"414 60 LINE",
"420 0 LINE",
"488 0 LINE",
"488 527 LINE",
"454 494 LINE",
"540 494 OFFCURVE",
"595 537 OFFCURVE",
"595 621 CURVE SMOOTH",
"595 650 OFFCURVE",
"592 670 OFFCURVE",
"583 695 CURVE",
"525 695 LINE",
"532 670 OFFCURVE",
"537 650 OFFCURVE",
"537 624 CURVE SMOOTH",
"537 566 OFFCURVE",
"500 543 OFFCURVE",
"441 543 CURVE SMOOTH",
"408 543 LINE",
"408 134 LINE",
"369 83 OFFCURVE",
"309 62 OFFCURVE",
"260 62 CURVE SMOOTH",
"195 62 OFFCURVE",
"149 93 OFFCURVE",
"149 186 CURVE SMOOTH",
"149 543 LINE",
"69 543 LINE",
"69 182 LINE SMOOTH",
"69 42 OFFCURVE",
"142 -9 OFFCURVE",
"242 -9 CURVE SMOOTH"
);
}
);
width = 572;
}
);
leftKerningGroup = u;
leftMetricsKey = u;
widthMetricsKey = "=u+10";
rightKerningGroup = uhorn;
unicode = 01B0;
},
{
glyphname = uhorntilde;
lastChange = "2016-12-22 13:06:28 +0000";
layers = (
{
color = -1;
layerId = "A5DE6A3D-57BF-416A-9BB2-6BD11ABBF04E";
paths = (
{
closed = 1;
nodes = (
"304 -9 OFFCURVE",
"363 14 OFFCURVE",
"408 60 CURVE",
"413 60 LINE",
"419 0 LINE",
"487 0 LINE",
"487 527 LINE",
"453 494 LINE",
"539 494 OFFCURVE",
"594 537 OFFCURVE",
"594 621 CURVE SMOOTH",
"594 650 OFFCURVE",
"591 670 OFFCURVE",
"582 695 CURVE",
"524 695 LINE",
"531 670 OFFCURVE",
"536 650 OFFCURVE",
"536 624 CURVE SMOOTH",
"536 566 OFFCURVE",
"499 543 OFFCURVE",
"440 543 CURVE SMOOTH",
"407 543 LINE",
"407 134 LINE",
"368 83 OFFCURVE",
"308 62 OFFCURVE",
"259 62 CURVE SMOOTH",
"194 62 OFFCURVE",
"148 93 OFFCURVE",
"148 186 CURVE SMOOTH",
"148 543 LINE",
"68 543 LINE",
"68 182 LINE SMOOTH",
"68 42 OFFCURVE",
"141 -9 OFFCURVE",
"241 -9 CURVE SMOOTH"
);
},
{
closed = 1;
nodes = (
"383 672 OFFCURVE",
"410 684 OFFCURVE",
"430 706 CURVE",
"430 764 LINE",
"406 738 OFFCURVE",
"381 726 OFFCURVE",
"349 726 CURVE SMOOTH",
"305 726 OFFCURVE",
"262 767 OFFCURVE",
"207 767 CURVE SMOOTH",
"173 767 OFFCURVE",
"146 755 OFFCURVE",
"125 733 CURVE",
"125 675 LINE",
"150 701 OFFCURVE",
"174 713 OFFCURVE",
"206 713 CURVE SMOOTH",
"251 713 OFFCURVE",
"294 672 OFFCURVE",
"348 672 CURVE SMOOTH"
);
}
);
width = 574;
}
);
leftKerningGroup = u;
rightKerningGroup = uhorn;
unicode = 1EEF;
},
{
glyphname = v;
lastChange = "2016-12-22 13:06:28 +0000";
layers = (
{
anchors = (
{
name = bottom;
position = "{264, 0}";
},
{
name = top;
position = "{264, 600}";
}
);
color = -1;
layerId = "A5DE6A3D-57BF-416A-9BB2-6BD11ABBF04E";
paths = (
{
closed = 1;
nodes = (
"314 0 LINE",
"519 543 LINE",
"439 543 LINE",
"260 58 LINE",
"270 58 LINE",
"92 543 LINE",
"7 543 LINE",
"211 0 LINE"
);
}
);
width = 526;
}
);
leftKerningGroup = v;
rightKerningGroup = v;
unicode = 0076;
userData = {
com.typemytype.robofont.layerData = {
};
};
},
{
glyphname = w;
lastChange = "2016-12-22 13:06:28 +0000";
layers = (
{
anchors = (
{
name = bottom;
position = "{422, 0}";
},
{
name = top;
position = "{422, 600}";
}
);
color = -1;
layerId = "A5DE6A3D-57BF-416A-9BB2-6BD11ABBF04E";
paths = (
{
closed = 1;
nodes = (
"282 0 LINE",
"427 478 LINE",
"418 478 LINE",
"562 0 LINE",
"656 0 LINE",
"814 543 LINE",
"739 543 LINE",
"603 70 LINE",
"612 70 LINE",
"470 543 LINE",
"376 543 LINE",
"234 70 LINE",
"242 70 LINE",
"107 543 LINE",
"29 543 LINE",
"187 0 LINE"
);
}
);
width = 843;
}
);
leftKerningGroup = v;
rightKerningGroup = v;
unicode = 0077;
userData = {
com.typemytype.robofont.layerData = {
};
};
},
{
glyphname = x;
lastChange = "2016-12-22 13:06:28 +0000";
layers = (
{
anchors = (
{
name = bottom;
position = "{252, 0}";
},
{
name = top;
position = "{252, 600}";
}
);
color = -1;
layerId = "A5DE6A3D-57BF-416A-9BB2-6BD11ABBF04E";
paths = (
{
closed = 1;
nodes = (
"497 0 LINE",
"299 275 LINE",
"252 333 LINE",
"102 543 LINE",
"10 543 LINE",
"203 273 LINE",
"251 216 LINE",
"406 0 LINE"
);
},
{
closed = 1;
nodes = (
"96 0 LINE",
"251 216 LINE",
"299 275 LINE",
"492 543 LINE",
"403 543 LINE",
"252 333 LINE",
"203 273 LINE",
"6 0 LINE"
);
}
);
width = 502;
}
);
leftKerningGroup = x;
rightKerningGroup = x;
unicode = 0078;
userData = {
com.typemytype.robofont.layerData = {
};
};
},
{
glyphname = y;
lastChange = "2016-12-22 13:06:28 +0000";
layers = (
{
anchors = (
{
name = bottom;
position = "{406, 0}";
},
{
name = top;
position = "{264, 600}";
}
);
color = -1;
layerId = "A5DE6A3D-57BF-416A-9BB2-6BD11ABBF04E";
paths = (
{
closed = 1;
nodes = (
"231 -220 LINE",
"519 543 LINE",
"439 543 LINE",
"260 58 LINE",
"235 0 LINE",
"151 -220 LINE"
);
},
{
closed = 1;
nodes = (
"288 0 LINE",
"92 543 LINE",
"7 543 LINE",
"211 0 LINE"
);
}
);
width = 526;
}
);
leftKerningGroup = v;
leftMetricsKey = v;
widthMetricsKey = v;
rightKerningGroup = v;
unicode = 0079;
userData = {
com.typemytype.robofont.layerData = {
};
};
},
{
glyphname = z;
lastChange = "2016-12-22 13:06:28 +0000";
layers = (
{
anchors = (
{
name = bottom;
position = "{230, 0}";
},
{
name = top;
position = "{230, 600}";
}
);
color = -1;
layerId = "A5DE6A3D-57BF-416A-9BB2-6BD11ABBF04E";
paths = (
{
closed = 1;
nodes = (
"431 0 LINE",
"431 66 LINE",
"117 66 LINE",
"117 48 LINE",
"425 493 LINE",
"425 543 LINE",
"36 543 LINE",
"36 476 LINE",
"337 476 LINE",
"337 495 LINE",
"30 50 LINE",
"30 0 LINE"
);
}
);
width = 456;
}
);
leftKerningGroup = z;
rightKerningGroup = z;
unicode = 007A;
userData = {
com.typemytype.robofont.layerData = {
};
};
},
{
color = 9;
export = 0;
glyphname = o.comb;
lastChange = "2016-12-22 13:06:28 +0000";
layers = (
{
anchors = (
{
name = bottom;
position = "{276, -13}";
},
{
name = center;
position = "{276, 271}";
},
{
name = ogonek;
position = "{343, 6}";
},
{
name = top;
position = "{277, 609}";
},
{
name = topright;
position = "{392, 543}";
}
);
color = -1;
layerId = "A5DE6A3D-57BF-416A-9BB2-6BD11ABBF04E";
paths = (
{
closed = 1;
nodes = (
"416 -10 OFFCURVE",
"507 76 OFFCURVE",
"507 271 CURVE SMOOTH",
"507 467 OFFCURVE",
"417 551 OFFCURVE",
"276 551 CURVE SMOOTH",
"135 551 OFFCURVE",
"46 466 OFFCURVE",
"46 271 CURVE SMOOTH",
"46 74 OFFCURVE",
"137 -10 OFFCURVE",
"276 -10 CURVE SMOOTH"
);
},
{
closed = 1;
nodes = (
"184 55 OFFCURVE",
"126 108 OFFCURVE",
"126 272 CURVE SMOOTH",
"126 434 OFFCURVE",
"184 487 OFFCURVE",
"276 487 CURVE SMOOTH",
"369 487 OFFCURVE",
"427 434 OFFCURVE",
"427 270 CURVE SMOOTH",
"427 108 OFFCURVE",
"369 55 OFFCURVE",
"276 55 CURVE SMOOTH"
);
}
);
width = 553;
}
);
leftKerningGroup = KERN_o_2ND;
leftMetricsKey = o;
rightKerningGroup = KERN_o_1ST;
rightMetricsKey = o;
userData = {
com.typemytype.robofont.layerData = {
};
};
},
{
color = 9;
export = 0;
glyphname = f.short;
lastChange = "2016-12-22 13:06:28 +0000";
layers = (
{
color = -1;
layerId = "A5DE6A3D-57BF-416A-9BB2-6BD11ABBF04E";
paths = (
{
closed = 1;
nodes = (
"190 0 LINE",
"190 630 LINE SMOOTH",
"190 716 OFFCURVE",
"230 751 OFFCURVE",
"310 751 CURVE SMOOTH",
"332 751 OFFCURVE",
"353 749 OFFCURVE",
"375 744 CURVE",
"375 811 LINE",
"352 816 OFFCURVE",
"326 818 OFFCURVE",
"302 818 CURVE SMOOTH",
"177 818 OFFCURVE",
"110 751 OFFCURVE",
"110 626 CURVE SMOOTH",
"110 0 LINE"
);
},
{
closed = 1;
nodes = (
"360 476 LINE",
"360 543 LINE",
"8 543 LINE",
"8 476 LINE"
);
}
);
width = 356;
}
);
leftKerningGroup = KERN_f_2ND;
rightKerningGroup = KERN_f_1ST;
userData = {
com.typemytype.robofont.layerData = {
};
};
},
{
glyphname = a.sc;
lastChange = "2016-12-22 13:06:28 +0000";
layers = (
{
anchors = (
{
name = bottom;
position = "{294, 0}";
},
{
name = ogonek;
position = "{574, 0}";
},
{
name = top;
position = "{294, 615}";
}
);
color = -1;
layerId = "A5DE6A3D-57BF-416A-9BB2-6BD11ABBF04E";
paths = (
{
closed = 1;
nodes = (
"94 0 LINE",
"299 560 LINE",
"287 560 LINE",
"493 0 LINE",
"574 0 LINE",
"351 595 LINE",
"236 595 LINE",
"14 0 LINE"
);
},
{
closed = 1;
nodes = (
"452 185 LINE",
"434 249 LINE",
"153 249 LINE",
"135 185 LINE"
);
}
);
width = 588;
}
);
leftKerningGroup = a.sc;
note = "\012    520\012  ";
rightKerningGroup = a.sc;
},
{
glyphname = ae.sc;
lastChange = "2016-12-22 13:06:28 +0000";
layers = (
{
anchors = (
{
name = bottom;
position = "{428, 0}";
},
{
name = top;
position = "{402, 615}";
}
);
color = -1;
layerId = "A5DE6A3D-57BF-416A-9BB2-6BD11ABBF04E";
paths = (
{
closed = 1;
nodes = (
"94 0 LINE",
"294 531 LINE",
"400 531 LINE",
"401 595 LINE",
"239 595 LINE",
"14 0 LINE"
);
},
{
closed = 1;
nodes = (
"417 186 LINE",
"417 249 LINE",
"155 249 LINE",
"137 186 LINE"
);
},
{
closed = 1;
nodes = (
"771 0 LINE",
"771 64 LINE",
"479 64 LINE",
"445 531 LINE",
"767 531 LINE",
"767 595 LINE",
"362 595 LINE",
"406 0 LINE"
);
},
{
closed = 1;
nodes = (
"725 273 LINE",
"725 336 LINE",
"430 336 LINE",
"430 273 LINE"
);
}
);
width = 806;
}
);
leftKerningGroup = a.sc;
leftMetricsKey = a.sc;
rightKerningGroup = e.sc;
rightMetricsKey = e.sc;
},
{
glyphname = b.sc;
lastChange = "2016-12-22 13:06:28 +0000";
layers = (
{
anchors = (
{
name = bottom;
position = "{292, 0}";
},
{
name = top;
position = "{292, 615}";
}
);
color = -1;
layerId = "A5DE6A3D-57BF-416A-9BB2-6BD11ABBF04E";
paths = (
{
closed = 1;
nodes = (
"449 -5 OFFCURVE",
"528 54 OFFCURVE",
"528 163 CURVE SMOOTH",
"528 247 OFFCURVE",
"477 299 OFFCURVE",
"384 310 CURVE",
"383 305 LINE",
"471 317 OFFCURVE",
"510 374 OFFCURVE",
"510 441 CURVE SMOOTH",
"510 549 OFFCURVE",
"436 602 OFFCURVE",
"263 602 CURVE SMOOTH",
"200 602 OFFCURVE",
"137 595 OFFCURVE",
"84 584 CURVE",
"84 4 LINE",
"138 -2 OFFCURVE",
"193 -5 OFFCURVE",
"247 -5 CURVE SMOOTH"
);
},
{
closed = 1;
nodes = (
"225 53 OFFCURVE",
"195 55 OFFCURVE",
"162 59 CURVE",
"162 534 LINE",
"194 539 OFFCURVE",
"230 542 OFFCURVE",
"270 542 CURVE SMOOTH",
"388 542 OFFCURVE",
"433 512 OFFCURVE",
"433 438 CURVE SMOOTH",
"433 373 OFFCURVE",
"395 336 OFFCURVE",
"282 336 CURVE SMOOTH",
"152 336 LINE",
"152 275 LINE",
"294 275 LINE SMOOTH",
"405 275 OFFCURVE",
"452 239 OFFCURVE",
"452 166 CURVE SMOOTH",
"452 91 OFFCURVE",
"405 53 OFFCURVE",
"261 53 CURVE SMOOTH"
);
}
);
width = 563;
}
);
leftKerningGroup = h.sc;
leftMetricsKey = h.sc;
rightKerningGroup = b.sc;
},
{
glyphname = c.sc;
lastChange = "2016-12-22 13:06:28 +0000";
layers = (
{
anchors = (
{
name = bottom;
position = "{311, 0}";
},
{
name = top;
position = "{306, 615}";
}
);
color = -1;
layerId = "A5DE6A3D-57BF-416A-9BB2-6BD11ABBF04E";
paths = (
{
closed = 1;
nodes = (
"392 -7 OFFCURVE",
"441 0 OFFCURVE",
"483 14 CURVE",
"483 82 LINE",
"434 67 OFFCURVE",
"392 60 OFFCURVE",
"346 60 CURVE SMOOTH",
"211 60 OFFCURVE",
"131 118 OFFCURVE",
"131 298 CURVE SMOOTH",
"131 470 OFFCURVE",
"208 535 OFFCURVE",
"351 535 CURVE SMOOTH",
"396 535 OFFCURVE",
"439 530 OFFCURVE",
"483 518 CURVE",
"483 586 LINE",
"441 597 OFFCURVE",
"395 602 OFFCURVE",
"347 602 CURVE SMOOTH",
"158 602 OFFCURVE",
"47 508 OFFCURVE",
"47 297 CURVE SMOOTH",
"47 75 OFFCURVE",
"160 -7 OFFCURVE",
"339 -7 CURVE SMOOTH"
);
}
);
width = 501;
}
);
leftKerningGroup = o.sc;
leftMetricsKey = o.sc;
rightKerningGroup = c.sc;
},
{
glyphname = d.sc;
lastChange = "2016-12-22 13:06:35 +0000";
layers = (
{
anchors = (
{
name = bottom;
position = "{291, 0}";
},
{
name = center;
position = "{315, 297}";
},
{
name = stroke;
position = "{84, 304}";
},
{
name = top;
position = "{288, 615}";
}
);
color = -1;
layerId = "A5DE6A3D-57BF-416A-9BB2-6BD11ABBF04E";
paths = (
{
closed = 1;
nodes = (
"461 -5 OFFCURVE",
"576 88 OFFCURVE",
"576 297 CURVE SMOOTH",
"576 504 OFFCURVE",
"466 601 OFFCURVE",
"254 601 CURVE SMOOTH",
"199 601 OFFCURVE",
"136 595 OFFCURVE",
"84 585 CURVE",
"84 4 LINE",
"137 -3 OFFCURVE",
"189 -5 OFFCURVE",
"238 -5 CURVE SMOOTH"
);
},
{
closed = 1;
nodes = (
"223 61 OFFCURVE",
"193 62 OFFCURVE",
"165 65 CURVE",
"165 528 LINE",
"192 532 OFFCURVE",
"227 536 OFFCURVE",
"259 536 CURVE SMOOTH",
"415 536 OFFCURVE",
"493 465 OFFCURVE",
"493 298 CURVE SMOOTH",
"493 129 OFFCURVE",
"414 61 OFFCURVE",
"256 61 CURVE SMOOTH"
);
}
);
width = 623;
}
);
leftKerningGroup = h.sc;
leftMetricsKey = h.sc;
rightKerningGroup = o.sc;
rightMetricsKey = o.sc;
},
{
glyphname = e.sc;
lastChange = "2016-12-22 13:06:28 +0000";
layers = (
{
anchors = (
{
name = bottom;
position = "{294, 0}";
},
{
name = ogonek;
position = "{452, 0}";
},
{
name = top;
position = "{293, 615}";
},
{
name = topleft;
position = "{31, 595}";
}
);
color = -1;
layerId = "A5DE6A3D-57BF-416A-9BB2-6BD11ABBF04E";
paths = (
{
closed = 1;
nodes = (
"488 0 LINE",
"488 64 LINE",
"164 64 LINE",
"164 531 LINE",
"484 531 LINE",
"484 595 LINE",
"84 595 LINE",
"84 0 LINE"
);
},
{
closed = 1;
nodes = (
"442 273 LINE",
"442 336 LINE",
"135 336 LINE",
"135 273 LINE"
);
}
);
width = 523;
}
);
leftKerningGroup = h.sc;
leftMetricsKey = h.sc;
rightKerningGroup = e.sc;
},
{
glyphname = schwa.sc;
lastChange = "2016-12-22 13:06:28 +0000";
layers = (
{
anchors = (
{
name = bottom;
position = "{313, 0}";
},
{
name = top;
position = "{313, 615}";
}
);
color = -1;
layerId = "A5DE6A3D-57BF-416A-9BB2-6BD11ABBF04E";
paths = (
{
closed = 1;
nodes = (
"470 -7 OFFCURVE",
"578 84 OFFCURVE",
"578 294 CURVE SMOOTH",
"578 512 OFFCURVE",
"461 602 OFFCURVE",
"249 602 CURVE SMOOTH",
"193 602 OFFCURVE",
"134 597 OFFCURVE",
"77 584 CURVE",
"77 517 LINE",
"131 531 OFFCURVE",
"193 537 OFFCURVE",
"246 537 CURVE SMOOTH",
"411 537 OFFCURVE",
"498 476 OFFCURVE",
"498 292 CURVE SMOOTH",
"498 115 OFFCURVE",
"428 56 OFFCURVE",
"313 56 CURVE SMOOTH",
"192 56 OFFCURVE",
"124 117 OFFCURVE",
"124 293 CURVE",
"94 266 LINE",
"525 266 LINE",
"525 325 LINE",
"42 325 LINE",
"42 294 LINE SMOOTH",
"42 82 OFFCURVE",
"150 -7 OFFCURVE",
"312 -7 CURVE SMOOTH"
);
}
);
width = 625;
}
);
leftKerningGroup = o.sc;
leftMetricsKey = "=o.sc-5";
rightKerningGroup = o.sc;
rightMetricsKey = o.sc;
},
{
glyphname = f.sc;
lastChange = "2016-12-22 13:06:28 +0000";
layers = (
{
color = -1;
layerId = "A5DE6A3D-57BF-416A-9BB2-6BD11ABBF04E";
paths = (
{
closed = 1;
nodes = (
"164.994 0 LINE",
"164.994 529.99 LINE",
"481 530 LINE",
"481 595 LINE",
"84 595 LINE",
"84 0 LINE"
);
},
{
closed = 1;
nodes = (
"439 265 LINE",
"439 330 LINE",
"140 330 LINE",
"140 265 LINE"
);
}
);
width = 504;
}
);
leftKerningGroup = h.sc;
leftMetricsKey = h.sc;
rightKerningGroup = f.sc;
},
{
glyphname = g.sc;
lastChange = "2016-12-22 13:06:28 +0000";
layers = (
{
anchors = (
{
name = bottom;
position = "{325, 0}";
},
{
name = top;
position = "{325, 615}";
}
);
color = -1;
layerId = "A5DE6A3D-57BF-416A-9BB2-6BD11ABBF04E";
paths = (
{
closed = 1;
nodes = (
"422 -5 OFFCURVE",
"471 -2 OFFCURVE",
"521 7 CURVE",
"521 289 LINE",
"445 289 LINE",
"445 39 LINE",
"477 69 LINE",
"446 63 OFFCURVE",
"407 60 OFFCURVE",
"371 60 CURVE SMOOTH",
"212 60 OFFCURVE",
"131 130 OFFCURVE",
"131 296 CURVE SMOOTH",
"131 472 OFFCURVE",
"219 536 OFFCURVE",
"370 536 CURVE SMOOTH",
"414 536 OFFCURVE",
"457 530 OFFCURVE",
"506 518 CURVE",
"506 585 LINE",
"464 596 OFFCURVE",
"414 602 OFFCURVE",
"364 602 CURVE SMOOTH",
"168 602 OFFCURVE",
"46 509 OFFCURVE",
"47 297 CURVE SMOOTH",
"47 88 OFFCURVE",
"159 -5 OFFCURVE",
"377 -5 CURVE SMOOTH"
);
}
);
width = 594;
}
);
leftKerningGroup = o.sc;
leftMetricsKey = o.sc;
rightKerningGroup = g.sc;
},
{
glyphname = h.sc;
lastChange = "2016-12-22 13:06:28 +0000";
layers = (
{
anchors = (
{
name = bottom;
position = "{326, 0}";
},
{
name = center;
position = "{326, 468}";
},
{
name = top;
position = "{326, 615}";
},
{
name = topleft;
position = "{31, 595}";
}
);
color = -1;
layerId = "A5DE6A3D-57BF-416A-9BB2-6BD11ABBF04E";
paths = (
{
closed = 1;
nodes = (
"164.994 0 LINE",
"165 271 LINE",
"486 271 LINE",
"486 0 LINE",
"567 0 LINE",
"567 595 LINE",
"486 595 LINE",
"486 340 LINE",
"165 340 LINE",
"164.994 595 LINE",
"84 595 LINE",
"84 0 LINE"
);
}
);
width = 651;
}
);
leftKerningGroup = h.sc;
rightKerningGroup = h.sc;
},
{
glyphname = i.sc;
lastChange = "2016-12-22 13:06:28 +0000";
layers = (
{
anchors = (
{
name = bottom;
position = "{125, 0}";
},
{
name = ogonek;
position = "{164.994, 0}";
},
{
name = top;
position = "{125, 615}";
}
);
color = -1;
layerId = "A5DE6A3D-57BF-416A-9BB2-6BD11ABBF04E";
paths = (
{
closed = 1;
nodes = (
"164.994 0 LINE",
"164.994 595 LINE",
"84 595 LINE",
"84 0 LINE"
);
}
);
width = 249;
}
);
leftKerningGroup = h.sc;
leftMetricsKey = h.sc;
rightKerningGroup = h.sc;
rightMetricsKey = h.sc;
},
{
glyphname = j.sc;
lastChange = "2016-12-22 13:06:28 +0000";
layers = (
{
anchors = (
{
name = bottom;
position = "{180, 0}";
},
{
name = top;
position = "{125, 615}";
}
);
color = -1;
layerId = "A5DE6A3D-57BF-416A-9BB2-6BD11ABBF04E";
paths = (
{
closed = 1;
nodes = (
"136 -56 OFFCURVE",
"162 16 OFFCURVE",
"165 111 CURVE",
"164.994 595 LINE",
"84 595 LINE",
"84 117 LINE SMOOTH",
"84 26 OFFCURVE",
"63 -36 OFFCURVE",
"10 -104 CURVE",
"62 -139 LINE"
);
}
);
width = 249;
}
);
leftKerningGroup = h.sc;
widthMetricsKey = i.sc;
rightKerningGroup = h.sc;
rightMetricsKey = i.sc;
},
{
glyphname = k.sc;
lastChange = "2016-12-22 13:06:28 +0000";
layers = (
{
anchors = (
{
name = bottom;
position = "{294, 0}";
},
{
name = top;
position = "{292, 615}";
}
);
color = -1;
layerId = "A5DE6A3D-57BF-416A-9BB2-6BD11ABBF04E";
paths = (
{
closed = 1;
nodes = (
"561 0 LINE",
"309 317 LINE",
"308 295 LINE",
"543 595 LINE",
"455 595 LINE",
"227 304 LINE",
"470 0 LINE"
);
},
{
closed = 1;
nodes = (
"164.994 0 LINE",
"164.994 595 LINE",
"84 595 LINE",
"84 0 LINE"
);
},
{
closed = 1;
nodes = (
"263 270 LINE",
"263 340 LINE",
"152 340 LINE",
"152 270 LINE"
);
}
);
width = 549;
}
);
leftKerningGroup = h.sc;
leftMetricsKey = h.sc;
rightKerningGroup = k.sc;
},
{
glyphname = l.sc;
lastChange = "2016-12-22 13:06:28 +0000";
layers = (
{
anchors = (
{
name = bottom;
position = "{279, 0}";
},
{
name = caronalt;
position = "{317, 595}";
},
{
name = periodcentered;
position = "{352, 330}";
},
{
name = slash;
position = "{125, 323}";
},
{
name = top;
position = "{125, 615}";
}
);
color = -1;
layerId = "A5DE6A3D-57BF-416A-9BB2-6BD11ABBF04E";
paths = (
{
closed = 1;
nodes = (
"473 0 LINE",
"473 67 LINE",
"165 67 LINE",
"164.994 595 LINE",
"84 595 LINE",
"84 0 LINE"
);
}
);
width = 478;
}
);
leftKerningGroup = h.sc;
leftMetricsKey = h.sc;
rightKerningGroup = l.sc;
},
{
color = 0;
glyphname = ldot.sc;
lastChange = "2016-12-22 13:06:28 +0000";
layers = (
{
anchors = (
{
name = bottom;
position = "{279, 0}";
},
{
name = caronalt;
position = "{317, 595}";
},
{
name = periodcentered;
position = "{352, 330}";
},
{
name = slash;
position = "{125, 323}";
},
{
name = top;
position = "{125, 615}";
}
);
color = -1;
layerId = "A5DE6A3D-57BF-416A-9BB2-6BD11ABBF04E";
paths = (
{
closed = 1;
nodes = (
"473 0 LINE",
"473 67 LINE",
"165 67 LINE",
"164.994 595 LINE",
"84 595 LINE",
"84 0 LINE"
);
},
{
closed = 1;
nodes = (
"387 281 OFFCURVE",
"406 299 OFFCURVE",
"406 330 CURVE SMOOTH",
"406 360 OFFCURVE",
"387 379 OFFCURVE",
"352 379 CURVE SMOOTH",
"317 379 OFFCURVE",
"298 360 OFFCURVE",
"298 330 CURVE SMOOTH",
"298 299 OFFCURVE",
"317 281 OFFCURVE",
"352 281 CURVE SMOOTH"
);
}
);
width = 478;
}
);
leftKerningGroup = h.sc;
rightKerningGroup = l.sc;
},
{
glyphname = m.sc;
lastChange = "2016-12-22 13:06:28 +0000";
layers = (
{
anchors = (
{
name = bottom;
position = "{398.995, 0}";
},
{
name = top;
position = "{398.995, 615}";
}
);
color = -1;
layerId = "A5DE6A3D-57BF-416A-9BB2-6BD11ABBF04E";
paths = (
{
closed = 1;
nodes = (
"161 0 LINE",
"161 526 LINE",
"138 526 LINE",
"360 83 LINE",
"429 83 LINE",
"647 526 LINE",
"628 526 LINE",
"628 0 LINE",
"703 0 LINE",
"703 595 LINE",
"608 595 LINE",
"388 146 LINE",
"403 146 LINE",
"181 595 LINE",
"86 595 LINE",
"86 0 LINE"
);
}
);
width = 789;
}
);
leftKerningGroup = h.sc;
leftMetricsKey = "=h.sc+2";
rightKerningGroup = h.sc;
rightMetricsKey = "=h.sc+2";
},
{
glyphname = n.sc;
lastChange = "2016-12-22 13:06:35 +0000";
layers = (
{
anchors = (
{
name = bottom;
position = "{331, 0}";
},
{
name = top;
position = "{331, 615}";
}
);
color = -1;
layerId = "A5DE6A3D-57BF-416A-9BB2-6BD11ABBF04E";
paths = (
{
closed = 1;
nodes = (
"160 0 LINE",
"160 501 LINE",
"143 501 LINE",
"496 0 LINE",
"577 0 LINE",
"577 595 LINE",
"502 595 LINE",
"502 94 LINE",
"518 94 LINE",
"165 595 LINE",
"84 595 LINE",
"84 0 LINE"
);
}
);
width = 661;
}
);
leftKerningGroup = h.sc;
leftMetricsKey = h.sc;
rightKerningGroup = h.sc;
rightMetricsKey = h.sc;
},
{
glyphname = eng.sc;
lastChange = "2016-12-22 13:06:35 +0000";
layers = (
{
color = -1;
layerId = "A5DE6A3D-57BF-416A-9BB2-6BD11ABBF04E";
paths = (
{
closed = 1;
nodes = (
"160 0 LINE",
"160 501 LINE",
"143 501 LINE",
"500 -6 LINE",
"518 94 LINE",
"165 595 LINE",
"84 595 LINE",
"84 0 LINE"
);
},
{
closed = 1;
nodes = (
"551 -150 OFFCURVE",
"574 -78 OFFCURVE",
"577 18 CURVE",
"577 595 LINE",
"502 595 LINE",
"502 24 LINE SMOOTH",
"502 -67 OFFCURVE",
"480 -129 OFFCURVE",
"427 -197 CURVE",
"478 -232 LINE"
);
}
);
width = 661;
}
);
leftKerningGroup = h.sc;
leftMetricsKey = n.sc;
widthMetricsKey = n.sc;
rightKerningGroup = h.sc;
},
{
glyphname = o.sc;
lastChange = "2016-12-22 13:06:28 +0000";
layers = (
{
anchors = (
{
name = bottom;
position = "{314, 0}";
},
{
name = center;
position = "{314, 297}";
},
{
name = ogonek;
position = "{391, 0}";
},
{
name = top;
position = "{314, 615}";
},
{
name = topleft;
position = "{23, 595}";
},
{
name = topright;
position = "{389, 595}";
}
);
color = -1;
layerId = "A5DE6A3D-57BF-416A-9BB2-6BD11ABBF04E";
paths = (
{
closed = 1;
nodes = (
"475 -7 OFFCURVE",
"582 85 OFFCURVE",
"582 297 CURVE SMOOTH",
"582 510 OFFCURVE",
"476 602 OFFCURVE",
"314 602 CURVE SMOOTH",
"155 602 OFFCURVE",
"47 510 OFFCURVE",
"47 297 CURVE SMOOTH",
"47 85 OFFCURVE",
"154 -7 OFFCURVE",
"314 -7 CURVE SMOOTH"
);
},
{
closed = 1;
nodes = (
"202 58 OFFCURVE",
"130 122 OFFCURVE",
"130 300 CURVE SMOOTH",
"130 473 OFFCURVE",
"203 537 OFFCURVE",
"314 537 CURVE SMOOTH",
"427 537 OFFCURVE",
"500 473 OFFCURVE",
"500 295 CURVE SMOOTH",
"500 122 OFFCURVE",
"427 58 OFFCURVE",
"314 58 CURVE SMOOTH"
);
}
);
width = 629;
}
);
leftKerningGroup = o.sc;
rightKerningGroup = o.sc;
},
{
glyphname = ohorn.sc;
lastChange = "2016-12-22 13:06:28 +0000";
layers = (
{
anchors = (
{
name = bottom;
position = "{314, 0}";
},
{
name = top;
position = "{314, 615}";
}
);
color = -1;
layerId = "A5DE6A3D-57BF-416A-9BB2-6BD11ABBF04E";
paths = (
{
closed = 1;
nodes = (
"475 -7 OFFCURVE",
"582 83 OFFCURVE",
"582 297 CURVE SMOOTH",
"582 435 OFFCURVE",
"538 522 OFFCURVE",
"464 565 CURVE",
"459 549 LINE",
"537 549 OFFCURVE",
"585 585 OFFCURVE",
"585 654 CURVE SMOOTH",
"585 677 OFFCURVE",
"582 694 OFFCURVE",
"575 714 CURVE",
"517 714 LINE",
"523 694 OFFCURVE",
"526 677 OFFCURVE",
"526 657 CURVE SMOOTH",
"526 612 OFFCURVE",
"495 593 OFFCURVE",
"444 593 CURVE SMOOTH",
"398 593 OFFCURVE",
"359 602 OFFCURVE",
"314 602 CURVE SMOOTH",
"155 602 OFFCURVE",
"47 510 OFFCURVE",
"47 297 CURVE SMOOTH",
"47 85 OFFCURVE",
"154 -7 OFFCURVE",
"314 -7 CURVE SMOOTH"
);
},
{
closed = 1;
nodes = (
"202 58 OFFCURVE",
"130 122 OFFCURVE",
"130 300 CURVE SMOOTH",
"130 473 OFFCURVE",
"203 537 OFFCURVE",
"314 537 CURVE SMOOTH",
"427 537 OFFCURVE",
"500 473 OFFCURVE",
"500 295 CURVE SMOOTH",
"500 122 OFFCURVE",
"427 58 OFFCURVE",
"314 58 CURVE SMOOTH"
);
}
);
width = 629;
}
);
leftKerningGroup = o.sc;
leftMetricsKey = o.sc;
widthMetricsKey = o.sc;
rightKerningGroup = o.sc;
},
{
glyphname = ohorntilde.sc;
lastChange = "2016-12-22 13:06:28 +0000";
layers = (
{
color = -1;
layerId = "A5DE6A3D-57BF-416A-9BB2-6BD11ABBF04E";
paths = (
{
closed = 1;
nodes = (
"475 -7 OFFCURVE",
"582 83 OFFCURVE",
"582 297 CURVE SMOOTH",
"582 435 OFFCURVE",
"538 522 OFFCURVE",
"464 565 CURVE",
"459 549 LINE",
"537 549 OFFCURVE",
"585 585 OFFCURVE",
"585 654 CURVE SMOOTH",
"585 677 OFFCURVE",
"582 694 OFFCURVE",
"575 714 CURVE",
"517 714 LINE",
"523 694 OFFCURVE",
"526 677 OFFCURVE",
"526 657 CURVE SMOOTH",
"526 612 OFFCURVE",
"495 593 OFFCURVE",
"444 593 CURVE SMOOTH",
"398 593 OFFCURVE",
"359 602 OFFCURVE",
"314 602 CURVE SMOOTH",
"155 602 OFFCURVE",
"47 510 OFFCURVE",
"47 297 CURVE SMOOTH",
"47 85 OFFCURVE",
"154 -7 OFFCURVE",
"314 -7 CURVE SMOOTH"
);
},
{
closed = 1;
nodes = (
"202 58 OFFCURVE",
"130 122 OFFCURVE",
"130 300 CURVE SMOOTH",
"130 473 OFFCURVE",
"203 537 OFFCURVE",
"314 537 CURVE SMOOTH",
"427 537 OFFCURVE",
"500 473 OFFCURVE",
"500 295 CURVE SMOOTH",
"500 122 OFFCURVE",
"427 58 OFFCURVE",
"314 58 CURVE SMOOTH"
);
},
{
closed = 1;
nodes = (
"426 689 OFFCURVE",
"453 700 OFFCURVE",
"473 721 CURVE",
"473 777 LINE",
"449 753 OFFCURVE",
"425 741 OFFCURVE",
"390 741 CURVE SMOOTH",
"341 741 OFFCURVE",
"298 779 OFFCURVE",
"240 779 CURVE SMOOTH",
"202 779 OFFCURVE",
"176 768 OFFCURVE",
"156 747 CURVE",
"156 692 LINE",
"180 716 OFFCURVE",
"204 727 OFFCURVE",
"239 727 CURVE SMOOTH",
"288 727 OFFCURVE",
"330 689 OFFCURVE",
"389 689 CURVE SMOOTH"
);
}
);
width = 629;
}
);
leftKerningGroup = o.sc;
rightKerningGroup = o.sc;
},
{
glyphname = oogonek.sc;
lastChange = "2016-12-22 13:06:28 +0000";
layers = (
{
anchors = (
{
name = top;
position = "{314, 615}";
}
);
color = -1;
layerId = "A5DE6A3D-57BF-416A-9BB2-6BD11ABBF04E";
paths = (
{
closed = 1;
nodes = (
"383 -208 OFFCURVE",
"412 -201 OFFCURVE",
"440 -189 CURVE",
"440 -149 LINE",
"407 -162 OFFCURVE",
"384 -168 OFFCURVE",
"360 -168 CURVE SMOOTH",
"311 -168 OFFCURVE",
"286 -148 OFFCURVE",
"286 -110 CURVE SMOOTH",
"286 -70 OFFCURVE",
"310 -29 OFFCURVE",
"414 8 CURVE SMOOTH",
"517 42 OFFCURVE",
"582 132 OFFCURVE",
"582 297 CURVE SMOOTH",
"582 510 OFFCURVE",
"476 602 OFFCURVE",
"314 602 CURVE SMOOTH",
"155 602 OFFCURVE",
"47 510 OFFCURVE",
"47 297 CURVE SMOOTH",
"47 85 OFFCURVE",
"154 -7 OFFCURVE",
"314 -7 CURVE SMOOTH",
"336 -7 LINE",
"335 9 LINE",
"263 -24 OFFCURVE",
"235 -66 OFFCURVE",
"235 -116 CURVE SMOOTH",
"235 -174 OFFCURVE",
"276 -208 OFFCURVE",
"353 -208 CURVE SMOOTH"
);
},
{
closed = 1;
nodes = (
"202 58 OFFCURVE",
"130 122 OFFCURVE",
"130 300 CURVE SMOOTH",
"130 473 OFFCURVE",
"203 537 OFFCURVE",
"314 537 CURVE SMOOTH",
"427 537 OFFCURVE",
"500 473 OFFCURVE",
"500 295 CURVE SMOOTH",
"500 122 OFFCURVE",
"427 58 OFFCURVE",
"314 58 CURVE SMOOTH"
);
}
);
width = 629;
}
);
leftKerningGroup = o.sc;
rightKerningGroup = o.sc;
},
{
glyphname = oe.sc;
lastChange = "2016-12-22 13:06:28 +0000";
layers = (
{
anchors = (
{
name = bottom;
position = "{487, 0}";
},
{
name = top;
position = "{487, 615}";
}
);
color = -1;
layerId = "A5DE6A3D-57BF-416A-9BB2-6BD11ABBF04E";
paths = (
{
closed = 1;
nodes = (
"419 -4 OFFCURVE",
"464 0 OFFCURVE",
"506 0 CURVE SMOOTH",
"837 0 LINE",
"837 64 LINE",
"526 64 LINE",
"526 531 LINE",
"833 531 LINE",
"833 595 LINE",
"502 595 LINE SMOOTH",
"463 595 OFFCURVE",
"415 600 OFFCURVE",
"369 600 CURVE SMOOTH",
"160 600 OFFCURVE",
"47 504 OFFCURVE",
"47 297 CURVE SMOOTH",
"47 89 OFFCURVE",
"158 -4 OFFCURVE",
"374 -4 CURVE SMOOTH"
);
},
{
closed = 1;
nodes = (
"208 61 OFFCURVE",
"130 130 OFFCURVE",
"130 297 CURVE SMOOTH",
"130 464 OFFCURVE",
"206 535 OFFCURVE",
"358 535 CURVE SMOOTH",
"389 535 OFFCURVE",
"417 533 OFFCURVE",
"447 530 CURVE",
"447 65 LINE",
"421 62 OFFCURVE",
"393 61 OFFCURVE",
"361 61 CURVE SMOOTH"
);
},
{
closed = 1;
nodes = (
"790 273 LINE",
"790 336 LINE",
"500 336 LINE",
"500 273 LINE"
);
}
);
width = 872;
}
);
leftKerningGroup = o.sc;
leftMetricsKey = o.sc;
rightKerningGroup = e.sc;
rightMetricsKey = e.sc;
},
{
glyphname = p.sc;
lastChange = "2016-12-22 13:06:28 +0000";
layers = (
{
color = -1;
layerId = "A5DE6A3D-57BF-416A-9BB2-6BD11ABBF04E";
paths = (
{
closed = 1;
nodes = (
"164.994 0 LINE",
"165 193 LINE",
"190 191 OFFCURVE",
"216 190 OFFCURVE",
"245 190 CURVE SMOOTH",
"425 190 OFFCURVE",
"510 262 OFFCURVE",
"510 396 CURVE SMOOTH",
"510 538 OFFCURVE",
"421 602 OFFCURVE",
"251 602 CURVE SMOOTH",
"191 602 OFFCURVE",
"138 596 OFFCURVE",
"84 586 CURVE",
"84 0 LINE"
);
},
{
closed = 1;
nodes = (
"216 252 OFFCURVE",
"191 253 OFFCURVE",
"165 256 CURVE",
"165 533 LINE",
"193 538 OFFCURVE",
"223 540 OFFCURVE",
"257 540 CURVE SMOOTH",
"374 540 OFFCURVE",
"430 496 OFFCURVE",
"430 395 CURVE SMOOTH",
"430 297 OFFCURVE",
"375 252 OFFCURVE",
"246 252 CURVE SMOOTH"
);
}
);
width = 554;
}
);
leftKerningGroup = h.sc;
leftMetricsKey = h.sc;
rightKerningGroup = p.sc;
},
{
glyphname = thorn.sc;
lastChange = "2016-12-22 13:06:28 +0000";
layers = (
{
color = -1;
layerId = "A5DE6A3D-57BF-416A-9BB2-6BD11ABBF04E";
paths = (
{
closed = 1;
nodes = (
"164.994 0 LINE",
"165 103 LINE",
"191 101 OFFCURVE",
"217 100 OFFCURVE",
"245 100 CURVE SMOOTH",
"425 100 OFFCURVE",
"510 172 OFFCURVE",
"510 306 CURVE SMOOTH",
"510 448 OFFCURVE",
"421 511 OFFCURVE",
"252 511 CURVE SMOOTH",
"217 511 OFFCURVE",
"188 508 OFFCURVE",
"165 505 CURVE",
"165 595 LINE",
"84 595 LINE",
"84 0 LINE"
);
},
{
closed = 1;
nodes = (
"216 161 OFFCURVE",
"191 163 OFFCURVE",
"165 166 CURVE",
"165 443 LINE",
"193 447 OFFCURVE",
"223 450 OFFCURVE",
"257 450 CURVE SMOOTH",
"374 450 OFFCURVE",
"430 406 OFFCURVE",
"430 305 CURVE SMOOTH",
"430 208 OFFCURVE",
"375 161 OFFCURVE",
"246 161 CURVE SMOOTH"
);
}
);
width = 559;
}
);
leftKerningGroup = h.sc;
leftMetricsKey = h.sc;
rightKerningGroup = thorn.sc;
rightMetricsKey = "=p.sc+5";
},
{
glyphname = q.sc;
lastChange = "2016-12-22 13:06:28 +0000";
layers = (
{
color = -1;
layerId = "A5DE6A3D-57BF-416A-9BB2-6BD11ABBF04E";
paths = (
{
closed = 1;
nodes = (
"571 -35 LINE",
"476 -26 OFFCURVE",
"371 -9 OFFCURVE",
"292 23 CURVE",
"273 3 LINE",
"475 -23 OFFCURVE",
"582 85 OFFCURVE",
"582 297 CURVE SMOOTH",
"582 510 OFFCURVE",
"476 602 OFFCURVE",
"314 602 CURVE SMOOTH",
"155 602 OFFCURVE",
"47 510 OFFCURVE",
"47 296 CURVE SMOOTH",
"47 62 OFFCURVE",
"163 -52 OFFCURVE",
"559 -100 CURVE"
);
},
{
closed = 1;
nodes = (
"202 58 OFFCURVE",
"130 122 OFFCURVE",
"130 300 CURVE SMOOTH",
"130 473 OFFCURVE",
"203 537 OFFCURVE",
"314 537 CURVE SMOOTH",
"427 537 OFFCURVE",
"500 473 OFFCURVE",
"500 295 CURVE SMOOTH",
"500 122 OFFCURVE",
"427 58 OFFCURVE",
"314 58 CURVE SMOOTH"
);
}
);
width = 629;
}
);
leftKerningGroup = o.sc;
leftMetricsKey = o.sc;
widthMetricsKey = o.sc;
rightKerningGroup = o.sc;
},
{
glyphname = r.sc;
lastChange = "2016-12-22 13:06:28 +0000";
layers = (
{
anchors = (
{
name = bottom;
position = "{307, 0}";
},
{
name = top;
position = "{281, 615}";
}
);
color = -1;
layerId = "A5DE6A3D-57BF-416A-9BB2-6BD11ABBF04E";
paths = (
{
closed = 1;
nodes = (
"164 0 LINE",
"164 244 LINE",
"191 241 OFFCURVE",
"218 240 OFFCURVE",
"248 240 CURVE SMOOTH",
"417 240 OFFCURVE",
"510 302 OFFCURVE",
"509 422 CURVE SMOOTH",
"509 544 OFFCURVE",
"426 602 OFFCURVE",
"257 602 CURVE SMOOTH",
"192 602 OFFCURVE",
"134 594 OFFCURVE",
"84 585 CURVE",
"84 0 LINE"
);
},
{
closed = 1;
nodes = (
"558 0 LINE",
"337 279 LINE",
"250 279 LINE",
"468 0 LINE"
);
},
{
closed = 1;
nodes = (
"214 301 OFFCURVE",
"196 302 OFFCURVE",
"164 304 CURVE",
"164 533 LINE",
"195 538 OFFCURVE",
"223 541 OFFCURVE",
"263 541 CURVE SMOOTH",
"381 541 OFFCURVE",
"432 506 OFFCURVE",
"432 421 CURVE SMOOTH",
"432 340 OFFCURVE",
"378 301 OFFCURVE",
"248 301 CURVE SMOOTH"
);
}
);
width = 589;
}
);
leftKerningGroup = h.sc;
leftMetricsKey = h.sc;
rightKerningGroup = r.sc;
},
{
glyphname = s.sc;
lastChange = "2016-12-22 13:06:28 +0000";
layers = (
{
anchors = (
{
name = bottom;
position = "{237, 0}";
},
{
name = top;
position = "{237, 615}";
}
);
color = -1;
layerId = "A5DE6A3D-57BF-416A-9BB2-6BD11ABBF04E";
paths = (
{
closed = 1;
nodes = (
"358 -7 OFFCURVE",
"436 59 OFFCURVE",
"436 164 CURVE SMOOTH",
"436 252 OFFCURVE",
"387 301 OFFCURVE",
"263 329 CURVE SMOOTH",
"232 336 LINE SMOOTH",
"143 357 OFFCURVE",
"116 383 OFFCURVE",
"116 439 CURVE SMOOTH",
"116 500 OFFCURVE",
"160 537 OFFCURVE",
"271 537 CURVE SMOOTH",
"317 537 OFFCURVE",
"363 531 OFFCURVE",
"408 519 CURVE",
"408 585 LINE",
"368 596 OFFCURVE",
"317 602 OFFCURVE",
"270 602 CURVE SMOOTH",
"110 602 OFFCURVE",
"36 535 OFFCURVE",
"36 434 CURVE SMOOTH",
"36 345 OFFCURVE",
"87 296 OFFCURVE",
"206 269 CURVE SMOOTH",
"237 262 LINE SMOOTH",
"329 241 OFFCURVE",
"357 214 OFFCURVE",
"357 160 CURVE SMOOTH",
"357 94 OFFCURVE",
"311 58 OFFCURVE",
"206 58 CURVE SMOOTH",
"159 58 OFFCURVE",
"102 66 OFFCURVE",
"47 83 CURVE",
"47 16 LINE",
"95 1 OFFCURVE",
"154 -7 OFFCURVE",
"206 -7 CURVE SMOOTH"
);
}
);
width = 473;
}
);
leftKerningGroup = s.sc;
rightKerningGroup = s.sc;
},
{
glyphname = germandbls.sc;
lastChange = "2016-12-22 13:06:35 +0000";
layers = (
{
color = -1;
layerId = "A5DE6A3D-57BF-416A-9BB2-6BD11ABBF04E";
paths = (
{
closed = 1;
nodes = (
"640 -7 OFFCURVE",
"717 59 OFFCURVE",
"717 164 CURVE SMOOTH",
"717 252 OFFCURVE",
"668 301 OFFCURVE",
"546 329 CURVE SMOOTH",
"516 336 LINE SMOOTH",
"428 356 OFFCURVE",
"402 383 OFFCURVE",
"402 439 CURVE SMOOTH",
"402 500 OFFCURVE",
"446 537 OFFCURVE",
"554 537 CURVE SMOOTH",
"599 537 OFFCURVE",
"645 531 OFFCURVE",
"689 519 CURVE",
"689 585 LINE",
"650 596 OFFCURVE",
"600 602 OFFCURVE",
"553 602 CURVE SMOOTH",
"396 602 OFFCURVE",
"323 535 OFFCURVE",
"323 434 CURVE SMOOTH",
"323 345 OFFCURVE",
"373 296 OFFCURVE",
"491 269 CURVE SMOOTH",
"521 262 LINE SMOOTH",
"611 241 OFFCURVE",
"638 214 OFFCURVE",
"638 160 CURVE SMOOTH",
"638 94 OFFCURVE",
"593 58 OFFCURVE",
"491 58 CURVE SMOOTH",
"444 58 OFFCURVE",
"388 66 OFFCURVE",
"334 83 CURVE",
"334 16 LINE",
"381 1 OFFCURVE",
"439 -7 OFFCURVE",
"490 -7 CURVE SMOOTH"
);
},
{
closed = 1;
nodes = (
"164.994 0 LINE",
"165 385 LINE SMOOTH",
"165 489 OFFCURVE",
"212 537 OFFCURVE",
"316 537 CURVE SMOOTH",
"347 537 OFFCURVE",
"373 532 OFFCURVE",
"395 523 CURVE",
"451 574 LINE",
"413 592 OFFCURVE",
"368 602 OFFCURVE",
"316 602 CURVE SMOOTH",
"160 602 OFFCURVE",
"84 527 OFFCURVE",
"84 376 CURVE SMOOTH",
"84 0 LINE"
);
}
);
width = 754;
}
);
leftKerningGroup = h.sc;
leftMetricsKey = h.sc;
rightKerningGroup = s.sc;
rightMetricsKey = s.sc;
},
{
glyphname = t.sc;
lastChange = "2016-12-22 13:06:28 +0000";
layers = (
{
anchors = (
{
name = bottom;
position = "{255, 0}";
},
{
name = center;
position = "{255, 307}";
},
{
name = top;
position = "{255, 615}";
}
);
color = -1;
layerId = "A5DE6A3D-57BF-416A-9BB2-6BD11ABBF04E";
paths = (
{
closed = 1;
nodes = (
"296 0 LINE",
"296 528 LINE",
"504 528 LINE",
"504 595 LINE",
"6 595 LINE",
"6 528 LINE",
"215 528 LINE",
"215 0 LINE"
);
}
);
width = 510;
}
);
leftKerningGroup = t.sc;
rightKerningGroup = t.sc;
},
{
glyphname = u.sc;
lastChange = "2016-12-22 13:06:28 +0000";
layers = (
{
anchors = (
{
name = bottom;
position = "{320, 0}";
},
{
name = ogonek;
position = "{393, 1}";
},
{
name = top;
position = "{320, 615}";
},
{
name = topright;
position = "{484, 595}";
}
);
color = -1;
layerId = "A5DE6A3D-57BF-416A-9BB2-6BD11ABBF04E";
paths = (
{
closed = 1;
nodes = (
"484 -7 OFFCURVE",
"558 68 OFFCURVE",
"558 230 CURVE SMOOTH",
"558 595 LINE",
"479 595 LINE",
"479 222 LINE SMOOTH",
"479 109 OFFCURVE",
"430 59 OFFCURVE",
"320 59 CURVE SMOOTH",
"211 59 OFFCURVE",
"161 109 OFFCURVE",
"161 222 CURVE SMOOTH",
"161 595 LINE",
"81 595 LINE",
"81 230 LINE SMOOTH",
"81 68 OFFCURVE",
"156 -7 OFFCURVE",
"320 -7 CURVE SMOOTH"
);
}
);
width = 639;
}
);
leftKerningGroup = u.sc;
rightKerningGroup = u.sc;
},
{
glyphname = uhorn.sc;
lastChange = "2016-12-22 13:06:28 +0000";
layers = (
{
anchors = (
{
name = bottom;
position = "{320, 0}";
},
{
name = top;
position = "{320, 615}";
}
);
color = -1;
layerId = "A5DE6A3D-57BF-416A-9BB2-6BD11ABBF04E";
paths = (
{
closed = 1;
nodes = (
"484 -7 OFFCURVE",
"558 68 OFFCURVE",
"558 230 CURVE SMOOTH",
"558 556 LINE",
"614 564 OFFCURVE",
"649 597 OFFCURVE",
"649 654 CURVE SMOOTH",
"649 677 OFFCURVE",
"646 694 OFFCURVE",
"639 714 CURVE",
"581 714 LINE",
"587 694 OFFCURVE",
"590 677 OFFCURVE",
"590 657 CURVE SMOOTH",
"590 612 OFFCURVE",
"560 595 OFFCURVE",
"508 595 CURVE SMOOTH",
"479 595 LINE",
"479 222 LINE SMOOTH",
"479 109 OFFCURVE",
"430 59 OFFCURVE",
"320 59 CURVE SMOOTH",
"211 59 OFFCURVE",
"161 109 OFFCURVE",
"161 222 CURVE SMOOTH",
"161 595 LINE",
"81 595 LINE",
"81 230 LINE SMOOTH",
"81 68 OFFCURVE",
"156 -7 OFFCURVE",
"320 -7 CURVE SMOOTH"
);
}
);
width = 639;
}
);
leftKerningGroup = u.sc;
leftMetricsKey = u.sc;
widthMetricsKey = u.sc;
rightKerningGroup = u.sc;
},
{
glyphname = uhorntilde.sc;
lastChange = "2016-12-22 13:06:28 +0000";
layers = (
{
color = -1;
layerId = "A5DE6A3D-57BF-416A-9BB2-6BD11ABBF04E";
paths = (
{
closed = 1;
nodes = (
"484 -7 OFFCURVE",
"558 68 OFFCURVE",
"558 230 CURVE SMOOTH",
"558 556 LINE",
"614 564 OFFCURVE",
"649 597 OFFCURVE",
"649 654 CURVE SMOOTH",
"649 677 OFFCURVE",
"646 694 OFFCURVE",
"639 714 CURVE",
"581 714 LINE",
"587 694 OFFCURVE",
"590 677 OFFCURVE",
"590 657 CURVE SMOOTH",
"590 612 OFFCURVE",
"560 595 OFFCURVE",
"508 595 CURVE SMOOTH",
"479 595 LINE",
"479 222 LINE SMOOTH",
"479 109 OFFCURVE",
"430 59 OFFCURVE",
"320 59 CURVE SMOOTH",
"211 59 OFFCURVE",
"161 109 OFFCURVE",
"161 222 CURVE SMOOTH",
"161 595 LINE",
"81 595 LINE",
"81 230 LINE SMOOTH",
"81 68 OFFCURVE",
"156 -7 OFFCURVE",
"320 -7 CURVE SMOOTH"
);
},
{
closed = 1;
nodes = (
"434 689 OFFCURVE",
"461 700 OFFCURVE",
"481 721 CURVE",
"481 777 LINE",
"457 753 OFFCURVE",
"432 741 OFFCURVE",
"397 741 CURVE SMOOTH",
"347 741 OFFCURVE",
"304 779 OFFCURVE",
"244 779 CURVE SMOOTH",
"206 779 OFFCURVE",
"179 768 OFFCURVE",
"158 747 CURVE",
"158 692 LINE",
"183 716 OFFCURVE",
"207 727 OFFCURVE",
"243 727 CURVE SMOOTH",
"293 727 OFFCURVE",
"336 689 OFFCURVE",
"396 689 CURVE SMOOTH"
);
}
);
width = 639;
}
);
leftKerningGroup = u.sc;
rightKerningGroup = u.sc;
},
{
glyphname = uogonek.sc;
lastChange = "2016-12-22 13:06:28 +0000";
layers = (
{
color = -1;
layerId = "A5DE6A3D-57BF-416A-9BB2-6BD11ABBF04E";
paths = (
{
closed = 1;
nodes = (
"479 222 LINE SMOOTH",
"479 109 OFFCURVE",
"430 59 OFFCURVE",
"320 59 CURVE SMOOTH",
"211 59 OFFCURVE",
"161 109 OFFCURVE",
"161 222 CURVE SMOOTH",
"161 595 LINE",
"81 595 LINE",
"81 230 LINE SMOOTH",
"81 68 OFFCURVE",
"156 -7 OFFCURVE",
"320 -7 CURVE SMOOTH",
"339 -7 LINE",
"337 9 LINE",
"264 -23 OFFCURVE",
"237 -67 OFFCURVE",
"237 -115 CURVE SMOOTH",
"237 -173 OFFCURVE",
"278 -207 OFFCURVE",
"355 -207 CURVE SMOOTH",
"386 -207 OFFCURVE",
"414 -201 OFFCURVE",
"442 -189 CURVE",
"442 -149 LINE",
"409 -162 OFFCURVE",
"386 -167 OFFCURVE",
"362 -167 CURVE SMOOTH",
"313 -167 OFFCURVE",
"288 -147 OFFCURVE",
"288 -109 CURVE SMOOTH",
"288 -70 OFFCURVE",
"317 -22 OFFCURVE",
"411 2 CURVE SMOOTH",
"512 28 OFFCURVE",
"558 102 OFFCURVE",
"558 230 CURVE SMOOTH",
"558 595 LINE",
"479 595 LINE"
);
}
);
width = 639;
}
);
leftKerningGroup = u.sc;
rightKerningGroup = u.sc;
},
{
glyphname = v.sc;
lastChange = "2016-12-22 13:06:28 +0000";
layers = (
{
color = -1;
layerId = "A5DE6A3D-57BF-416A-9BB2-6BD11ABBF04E";
paths = (
{
closed = 1;
nodes = (
"345 0 LINE",
"566 595 LINE",
"486 595 LINE",
"279 34 LINE",
"295 34 LINE",
"90 595 LINE",
"5 595 LINE",
"226 0 LINE"
);
}
);
width = 571;
}
);
leftKerningGroup = v.sc;
rightKerningGroup = v.sc;
},
{
glyphname = w.sc;
lastChange = "2016-12-22 13:06:28 +0000";
layers = (
{
anchors = (
{
name = bottom;
position = "{463, 0}";
},
{
name = top;
position = "{463, 615}";
}
);
color = -1;
layerId = "A5DE6A3D-57BF-416A-9BB2-6BD11ABBF04E";
paths = (
{
closed = 1;
nodes = (
"308 0 LINE",
"474 548 LINE",
"453 548 LINE",
"616 0 LINE",
"722 0 LINE",
"897 595 LINE",
"820 595 LINE",
"657 36 LINE",
"675 36 LINE",
"511 595 LINE",
"417 595 LINE",
"250 36 LINE",
"271 36 LINE",
"109 595 LINE",
"27 595 LINE",
"203 0 LINE"
);
}
);
width = 924;
}
);
leftKerningGroup = v.sc;
rightKerningGroup = v.sc;
},
{
glyphname = x.sc;
lastChange = "2016-12-22 13:06:28 +0000";
layers = (
{
color = -1;
layerId = "A5DE6A3D-57BF-416A-9BB2-6BD11ABBF04E";
paths = (
{
closed = 1;
nodes = (
"554 0 LINE",
"328 306 LINE",
"280 363 LINE",
"106 595 LINE",
"14 595 LINE",
"231 305 LINE",
"279 247 LINE",
"462 0 LINE"
);
},
{
closed = 1;
nodes = (
"96 0 LINE",
"279 247 LINE",
"328 306 LINE",
"543 595 LINE",
"454 595 LINE",
"280 363 LINE",
"231 305 LINE",
"5 0 LINE"
);
}
);
width = 559;
}
);
leftKerningGroup = x.sc;
rightKerningGroup = x.sc;
},
{
glyphname = y.sc;
lastChange = "2016-12-22 13:06:28 +0000";
layers = (
{
anchors = (
{
name = bottom;
position = "{255, 0}";
},
{
name = top;
position = "{255, 615}";
},
{
name = topleft;
position = "{1, 595}";
}
);
color = -1;
layerId = "A5DE6A3D-57BF-416A-9BB2-6BD11ABBF04E";
paths = (
{
closed = 1;
nodes = (
"296 0 LINE",
"296 294 LINE",
"279 235 LINE",
"521 595 LINE",
"438 595 LINE",
"244 311 LINE",
"270 311 LINE",
"74 595 LINE",
"-14 595 LINE",
"232 235 LINE",
"215 294 LINE",
"214.996 0 LINE"
);
}
);
width = 510;
}
);
leftKerningGroup = y.sc;
rightKerningGroup = y.sc;
},
{
glyphname = z.sc;
lastChange = "2016-12-22 13:06:28 +0000";
layers = (
{
anchors = (
{
name = bottom;
position = "{253, 0}";
},
{
name = top;
position = "{254, 615}";
}
);
color = -1;
layerId = "A5DE6A3D-57BF-416A-9BB2-6BD11ABBF04E";
paths = (
{
closed = 1;
nodes = (
"477 0 LINE",
"477 67 LINE",
"119 67 LINE",
"124 50 LINE",
"472 551 LINE",
"472 595 LINE",
"35 595 LINE",
"35 528 LINE",
"382 528 LINE",
"378 545 LINE",
"30 44 LINE",
"30 0 LINE"
);
}
);
width = 507;
}
);
leftKerningGroup = z.sc;
rightKerningGroup = z.sc;
},
{
glyphname = ordfeminine;
lastChange = "2016-12-22 13:06:28 +0000";
layers = (
{
color = -1;
layerId = "A5DE6A3D-57BF-416A-9BB2-6BD11ABBF04E";
paths = (
{
closed = 1;
nodes = (
"224 297 OFFCURVE",
"274 317 OFFCURVE",
"303 353 CURVE",
"308 353 LINE",
"314 305 LINE",
"376 305 LINE",
"376 586 LINE SMOOTH",
"376 707 OFFCURVE",
"316 747 OFFCURVE",
"196 747 CURVE SMOOTH",
"153 747 OFFCURVE",
"103 741 OFFCURVE",
"63 727 CURVE",
"63 667 LINE",
"105 681 OFFCURVE",
"149 687 OFFCURVE",
"185 687 CURVE SMOOTH",
"265 687 OFFCURVE",
"302 666 OFFCURVE",
"302 593 CURVE SMOOTH",
"302 403 LINE",
"272 368 OFFCURVE",
"231 353 OFFCURVE",
"194 353 CURVE SMOOTH",
"136 353 OFFCURVE",
"108 379 OFFCURVE",
"108 426 CURVE SMOOTH",
"108 471 OFFCURVE",
"136 495 OFFCURVE",
"207 502 CURVE SMOOTH",
"329 514 LINE",
"321 559 LINE",
"199 547 LINE SMOOTH",
"82 537 OFFCURVE",
"33 495 OFFCURVE",
"33 418 CURVE SMOOTH",
"33 344 OFFCURVE",
"85 297 OFFCURVE",
"172 297 CURVE SMOOTH"
);
}
);
width = 431;
}
);
leftKerningGroup = ord;
rightKerningGroup = ord;
unicode = 00AA;
},
{
glyphname = ordmasculine;
lastChange = "2016-12-22 13:06:28 +0000";
layers = (
{
color = -1;
layerId = "A5DE6A3D-57BF-416A-9BB2-6BD11ABBF04E";
paths = (
{
closed = 1;
nodes = (
"355 297 OFFCURVE",
"432 369 OFFCURVE",
"432 523 CURVE SMOOTH",
"432 677 OFFCURVE",
"355 747 OFFCURVE",
"234 747 CURVE SMOOTH",
"114 747 OFFCURVE",
"36 678 OFFCURVE",
"36 523 CURVE SMOOTH",
"36 369 OFFCURVE",
"114 297 OFFCURVE",
"234 297 CURVE SMOOTH"
);
},
{
closed = 1;
nodes = (
"160 357 OFFCURVE",
"112 399 OFFCURVE",
"112 523 CURVE SMOOTH",
"112 648 OFFCURVE",
"160 687 OFFCURVE",
"234 687 CURVE SMOOTH",
"308 687 OFFCURVE",
"356 648 OFFCURVE",
"356 523 CURVE SMOOTH",
"356 399 OFFCURVE",
"308 357 OFFCURVE",
"234 357 CURVE SMOOTH"
);
}
);
width = 469;
}
);
leftKerningGroup = ord;
rightKerningGroup = ord;
unicode = 00BA;
},
{
glyphname = Delta;
lastChange = "2016-12-22 13:06:28 +0000";
layers = (
{
color = -1;
layerId = "A5DE6A3D-57BF-416A-9BB2-6BD11ABBF04E";
paths = (
{
closed = 1;
nodes = (
"658 0 LINE",
"393 740 LINE",
"278 740 LINE",
"13 0 LINE"
);
},
{
closed = 1;
nodes = (
"341 700 LINE",
"328 700 LINE",
"565 34 LINE",
"576 69 LINE",
"94 69 LINE",
"105 34 LINE"
);
}
);
width = 671;
}
);
leftKerningGroup = A;
leftMetricsKey = A;
rightKerningGroup = A;
rightMetricsKey = A;
unicode = 0394;
},
{
glyphname = Omega;
lastChange = "2016-12-22 13:06:28 +0000";
layers = (
{
color = -1;
layerId = "A5DE6A3D-57BF-416A-9BB2-6BD11ABBF04E";
paths = (
{
closed = 1;
nodes = (
"307 0 LINE",
"307 58 LINE",
"190 142 OFFCURVE",
"135 243 OFFCURVE",
"135 394 CURVE SMOOTH",
"135 590 OFFCURVE",
"216 680 OFFCURVE",
"358 680 CURVE SMOOTH",
"500 680 OFFCURVE",
"581 590 OFFCURVE",
"581 394 CURVE SMOOTH",
"581 243 OFFCURVE",
"527 142 OFFCURVE",
"410 58 CURVE",
"410 0 LINE",
"665 0 LINE",
"665 68 LINE",
"470 68 LINE",
"465 40 LINE",
"594 113 OFFCURVE",
"665 234 OFFCURVE",
"665 398 CURVE SMOOTH",
"665 629 OFFCURVE",
"550 749 OFFCURVE",
"358 749 CURVE SMOOTH",
"167 749 OFFCURVE",
"51 629 OFFCURVE",
"51 398 CURVE SMOOTH",
"51 234 OFFCURVE",
"122 113 OFFCURVE",
"252 40 CURVE",
"247 68 LINE",
"51 68 LINE",
"51 0 LINE"
);
}
);
width = 717;
}
);
leftMetricsKey = O;
rightMetricsKey = O;
unicode = 03A9;
},
{
color = 1;
glyphname = Delta.tf;
lastChange = "2016-12-22 13:06:28 +0000";
layers = (
{
color = -1;
layerId = "A5DE6A3D-57BF-416A-9BB2-6BD11ABBF04E";
paths = (
{
closed = 1;
nodes = (
"564 0 LINE",
"338 740 LINE",
"240 740 LINE",
"14 0 LINE"
);
},
{
closed = 1;
nodes = (
"301 701 LINE",
"277 701 LINE",
"478 34 LINE",
"493 69 LINE",
"84 69 LINE",
"99 34 LINE"
);
}
);
width = 578;
}
);
widthMetricsKey = zero.tf;
},
{
color = 1;
glyphname = Omega.tf;
lastChange = "2016-12-22 13:06:28 +0000";
layers = (
{
color = -1;
layerId = "A5DE6A3D-57BF-416A-9BB2-6BD11ABBF04E";
paths = (
{
closed = 1;
nodes = (
"252 0 LINE",
"252 58 LINE",
"165 142 OFFCURVE",
"132 242 OFFCURVE",
"132 394 CURVE SMOOTH",
"132 610 OFFCURVE",
"193 679 OFFCURVE",
"289 679 CURVE SMOOTH",
"386 680 OFFCURVE",
"447 610 OFFCURVE",
"447 394 CURVE SMOOTH",
"447 242 OFFCURVE",
"413 142 OFFCURVE",
"326 58 CURVE",
"326 0 LINE",
"533 0 LINE",
"533 68 LINE",
"376 68 LINE",
"372 40 LINE",
"475 113 OFFCURVE",
"528 234 OFFCURVE",
"528 398 CURVE SMOOTH",
"528 645 OFFCURVE",
"437 749 OFFCURVE",
"289 749 CURVE SMOOTH",
"141 749 OFFCURVE",
"51 645 OFFCURVE",
"51 398 CURVE SMOOTH",
"51 234 OFFCURVE",
"103 113 OFFCURVE",
"207 40 CURVE",
"202 68 LINE",
"45 68 LINE",
"45 0 LINE"
);
}
);
width = 578;
}
);
widthMetricsKey = zero.tf;
},
{
glyphname = pi;
lastChange = "2016-12-22 13:06:28 +0000";
layers = (
{
color = -1;
layerId = "A5DE6A3D-57BF-416A-9BB2-6BD11ABBF04E";
paths = (
{
closed = 1;
nodes = (
"599 -9 OFFCURVE",
"628 -6 OFFCURVE",
"649 -1 CURVE",
"649 67 LINE",
"629 63 OFFCURVE",
"610 60 OFFCURVE",
"593 60 CURVE SMOOTH",
"528 60 OFFCURVE",
"498 87 OFFCURVE",
"498 171 CURVE SMOOTH",
"498 505 LINE",
"416 505 LINE",
"418 158 LINE SMOOTH",
"419 39 OFFCURVE",
"476 -9 OFFCURVE",
"575 -9 CURVE SMOOTH"
);
},
{
closed = 1;
nodes = (
"186 -1 LINE",
"186 505 LINE",
"106 505 LINE",
"106 -1 LINE"
);
},
{
closed = 1;
nodes = (
"600 476 LINE",
"600 543 LINE",
"4 543 LINE",
"4 476 LINE"
);
}
);
width = 656;
}
);
leftMetricsKey = t;
rightMetricsKey = t;
unicode = 03C0;
},
{
color = 1;
glyphname = mu.tf;
lastChange = "2016-12-22 13:06:28 +0000";
layers = (
{
color = -1;
layerId = "A5DE6A3D-57BF-416A-9BB2-6BD11ABBF04E";
paths = (
{
closed = 1;
nodes = (
"323 -9 OFFCURVE",
"378 14 OFFCURVE",
"420 60 CURVE",
"425 60 LINE",
"431 0 LINE",
"498 0 LINE",
"498 543 LINE",
"418 543 LINE",
"418 134 LINE",
"380 83 OFFCURVE",
"319 62 OFFCURVE",
"271 62 CURVE SMOOTH",
"205 62 OFFCURVE",
"160 93 OFFCURVE",
"160 186 CURVE SMOOTH",
"160 265 LINE",
"116 265 LINE",
"116 182 LINE SMOOTH",
"116 42 OFFCURVE",
"174 -9 OFFCURVE",
"265 -9 CURVE SMOOTH"
);
},
{
closed = 1;
nodes = (
"160 -220 LINE",
"160 542 LINE",
"80 542 LINE",
"80 -220 LINE"
);
}
);
width = 578;
}
);
widthMetricsKey = zero.tf;
userData = {
com.typemytype.robofont.layerData = {
};
};
},
{
color = 1;
glyphname = pi.tf;
lastChange = "2016-12-22 13:06:28 +0000";
layers = (
{
color = -1;
layerId = "A5DE6A3D-57BF-416A-9BB2-6BD11ABBF04E";
paths = (
{
closed = 1;
nodes = (
"530 -9 OFFCURVE",
"557 -6 OFFCURVE",
"578 -1 CURVE",
"578 67 LINE",
"558 63 OFFCURVE",
"539 60 OFFCURVE",
"522 60 CURVE SMOOTH",
"469 60 OFFCURVE",
"442 87 OFFCURVE",
"442 166 CURVE SMOOTH",
"442 505 LINE",
"363 505 LINE",
"365 151 LINE SMOOTH",
"366 39 OFFCURVE",
"417 -9 OFFCURVE",
"504 -9 CURVE SMOOTH"
);
},
{
closed = 1;
nodes = (
"166 -1 LINE",
"166 505 LINE",
"89 505 LINE",
"89 -1 LINE"
);
},
{
closed = 1;
nodes = (
"531 476 LINE",
"531 543 LINE",
"0 543 LINE",
"0 476 LINE"
);
}
);
width = 578;
}
);
widthMetricsKey = zero.tf;
},
{
glyphname = zero;
lastChange = "2016-12-22 13:06:35 +0000";
layers = (
{
color = -1;
layerId = "A5DE6A3D-57BF-416A-9BB2-6BD11ABBF04E";
paths = (
{
closed = 1;
nodes = (
"467 -9 OFFCURVE",
"566 95 OFFCURVE",
"566 370 CURVE SMOOTH",
"566 645 OFFCURVE",
"468 749 OFFCURVE",
"311 749 CURVE SMOOTH",
"154 749 OFFCURVE",
"56 645 OFFCURVE",
"56 370 CURVE SMOOTH",
"56 95 OFFCURVE",
"155 -9 OFFCURVE",
"311 -9 CURVE SMOOTH"
);
},
{
closed = 1;
nodes = (
"205 61 OFFCURVE",
"138 132 OFFCURVE",
"138 371 CURVE SMOOTH",
"138 608 OFFCURVE",
"205 679 OFFCURVE",
"311 679 CURVE SMOOTH",
"417 679 OFFCURVE",
"484 608 OFFCURVE",
"484 369 CURVE SMOOTH",
"484 132 OFFCURVE",
"417 61 OFFCURVE",
"311 61 CURVE SMOOTH"
);
}
);
width = 623;
}
);
leftKerningGroup = O;
leftMetricsKey = "=O+5";
note = "\012    600\012  ";
rightKerningGroup = O;
rightMetricsKey = "=O+5";
unicode = 0030;
userData = {
com.typemytype.robofont.layerData = {
};
};
},
{
glyphname = one;
lastChange = "2016-12-22 13:06:28 +0000";
layers = (
{
color = -1;
layerId = "A5DE6A3D-57BF-416A-9BB2-6BD11ABBF04E";
paths = (
{
closed = 1;
nodes = (
"274 0 LINE",
"274 742 LINE",
"223 742 LINE",
"11 590 LINE",
"11 510 LINE",
"223 661 LINE",
"193 681 LINE",
"193 0 LINE"
);
}
);
width = 363;
}
);
leftKerningGroup = one;
rightKerningGroup = H;
rightMetricsKey = "=H+5";
unicode = 0031;
userData = {
com.typemytype.robofont.layerData = {
};
};
},
{
glyphname = two;
lastChange = "2016-12-22 13:06:28 +0000";
layers = (
{
color = -1;
layerId = "A5DE6A3D-57BF-416A-9BB2-6BD11ABBF04E";
paths = (
{
closed = 1;
nodes = (
"460 0 LINE",
"460 70 LINE",
"113 70 LINE",
"120 47 LINE",
"308 294 LINE SMOOTH",
"392 404 OFFCURVE",
"420 473 OFFCURVE",
"420 552 CURVE SMOOTH",
"421 689 OFFCURVE",
"336 749 OFFCURVE",
"187 749 CURVE SMOOTH",
"127 749 OFFCURVE",
"63 738 OFFCURVE",
"20 721 CURVE",
"20 651 LINE",
"69 670 OFFCURVE",
"123 680 OFFCURVE",
"181 680 CURVE SMOOTH",
"287 680 OFFCURVE",
"339 641 OFFCURVE",
"339 545 CURVE SMOOTH",
"339 482 OFFCURVE",
"313 422 OFFCURVE",
"240 326 CURVE SMOOTH",
"29 45 LINE",
"29 0 LINE"
);
}
);
width = 491;
}
);
leftKerningGroup = two;
rightKerningGroup = two;
unicode = 0032;
userData = {
com.typemytype.robofont.layerData = {
};
};
},
{
glyphname = three;
lastChange = "2016-12-22 13:06:28 +0000";
layers = (
{
color = -1;
layerId = "A5DE6A3D-57BF-416A-9BB2-6BD11ABBF04E";
paths = (
{
closed = 1;
nodes = (
"379 -9 OFFCURVE",
"469 68 OFFCURVE",
"469 200 CURVE SMOOTH",
"469 307 OFFCURVE",
"404 373 OFFCURVE",
"283 389 CURVE",
"282 378 LINE",
"383 399 OFFCURVE",
"445 466 OFFCURVE",
"445 562 CURVE SMOOTH",
"445 681 OFFCURVE",
"363 749 OFFCURVE",
"211 749 CURVE SMOOTH",
"152 749 OFFCURVE",
"89 739 OFFCURVE",
"42 722 CURVE",
"42 656 LINE",
"94 675 OFFCURVE",
"149 684 OFFCURVE",
"204 684 CURVE SMOOTH",
"311 684 OFFCURVE",
"366 639 OFFCURVE",
"366 556 CURVE SMOOTH",
"366 464 OFFCURVE",
"298 413 OFFCURVE",
"166 413 CURVE SMOOTH",
"117 413 LINE",
"117 347 LINE",
"206 347 LINE SMOOTH",
"334 347 OFFCURVE",
"391 294 OFFCURVE",
"391 204 CURVE SMOOTH",
"391 108 OFFCURVE",
"328 56 OFFCURVE",
"201 56 CURVE SMOOTH",
"145 56 OFFCURVE",
"82 66 OFFCURVE",
"24 85 CURVE",
"24 19 LINE",
"79 0 OFFCURVE",
"141 -9 OFFCURVE",
"203 -9 CURVE SMOOTH"
);
}
);
width = 503;
}
);
leftKerningGroup = three;
rightKerningGroup = B;
unicode = 0033;
userData = {
com.typemytype.robofont.layerData = {
};
};
},
{
glyphname = four;
lastChange = "2016-12-22 13:06:28 +0000";
layers = (
{
color = -1;
layerId = "A5DE6A3D-57BF-416A-9BB2-6BD11ABBF04E";
paths = (
{
closed = 1;
nodes = (
"569 177 LINE",
"569 244 LINE",
"93 244 LINE",
"104 222 LINE",
"391 740 LINE",
"310 740 LINE",
"23 223 LINE",
"23 177 LINE"
);
},
{
closed = 1;
nodes = (
"464 0 LINE",
"464 490 LINE",
"400 490 LINE",
"389 244 LINE",
"389 0 LINE"
);
}
);
width = 588;
}
);
leftKerningGroup = four;
rightKerningGroup = four;
unicode = 0034;
userData = {
com.typemytype.robofont.layerData = {
};
};
},
{
glyphname = five;
lastChange = "2016-12-22 13:06:28 +0000";
layers = (
{
color = -1;
layerId = "A5DE6A3D-57BF-416A-9BB2-6BD11ABBF04E";
paths = (
{
closed = 1;
nodes = (
"390 -9 OFFCURVE",
"482 67 OFFCURVE",
"482 209 CURVE SMOOTH",
"482 345 OFFCURVE",
"395 414 OFFCURVE",
"186 426 CURVE SMOOTH",
"93 432 LINE",
"144 396 LINE",
"165 707 LINE",
"128 674 LINE",
"451 674 LINE",
"451 740 LINE",
"90 740 LINE",
"65 367 LINE",
"158 362 LINE SMOOTH",
"342 351 OFFCURVE",
"403 305 OFFCURVE",
"403 208 CURVE SMOOTH",
"403 108 OFFCURVE",
"342 57 OFFCURVE",
"215 57 CURVE SMOOTH",
"157 57 OFFCURVE",
"94 67 OFFCURVE",
"38 86 CURVE",
"38 20 LINE",
"91 1 OFFCURVE",
"154 -9 OFFCURVE",
"216 -9 CURVE SMOOTH"
);
}
);
width = 509;
}
);
leftKerningGroup = five;
rightKerningGroup = five;
unicode = 0035;
userData = {
com.typemytype.robofont.layerData = {
};
};
},
{
glyphname = six;
lastChange = "2016-12-22 13:06:28 +0000";
layers = (
{
color = -1;
layerId = "A5DE6A3D-57BF-416A-9BB2-6BD11ABBF04E";
paths = (
{
closed = 1;
nodes = (
"451 -9 OFFCURVE",
"544 66 OFFCURVE",
"544 210 CURVE SMOOTH",
"544 356 OFFCURVE",
"450 425 OFFCURVE",
"316 425 CURVE SMOOTH",
"242 425 OFFCURVE",
"167 399 OFFCURVE",
"125 355 CURVE",
"125 288 LINE",
"169 340 OFFCURVE",
"242 362 OFFCURVE",
"303 362 CURVE SMOOTH",
"403 362 OFFCURVE",
"468 315 OFFCURVE",
"468 207 CURVE SMOOTH",
"468 101 OFFCURVE",
"405 55 OFFCURVE",
"320 55 CURVE SMOOTH",
"212 55 OFFCURVE",
"142 121 OFFCURVE",
"142 337 CURVE SMOOTH",
"142 365 LINE SMOOTH",
"142 589 OFFCURVE",
"222 683 OFFCURVE",
"378 683 CURVE SMOOTH",
"422 683 OFFCURVE",
"470 676 OFFCURVE",
"510 660 CURVE",
"510 727 LINE",
"471 743 OFFCURVE",
"422 749 OFFCURVE",
"375 749 CURVE SMOOTH",
"174 749 OFFCURVE",
"62 625 OFFCURVE",
"62 346 CURVE SMOOTH",
"62 86 OFFCURVE",
"165 -9 OFFCURVE",
"319 -9 CURVE SMOOTH"
);
}
);
width = 573;
}
);
leftKerningGroup = O;
rightKerningGroup = six;
unicode = 0036;
userData = {
com.typemytype.robofont.layerData = {
};
};
},
{
glyphname = seven;
lastChange = "2016-12-22 13:06:28 +0000";
layers = (
{
color = -1;
layerId = "A5DE6A3D-57BF-416A-9BB2-6BD11ABBF04E";
paths = (
{
closed = 1;
nodes = (
"168 0 LINE",
"439 695 LINE",
"439 740 LINE",
"5 740 LINE",
"5 670 LINE",
"384 670 LINE",
"360 696 LINE",
"83 0 LINE"
);
}
);
width = 467;
}
);
leftKerningGroup = seven;
rightKerningGroup = V;
unicode = 0037;
userData = {
com.typemytype.robofont.layerData = {
};
};
},
{
glyphname = eight;
lastChange = "2016-12-22 13:06:28 +0000";
layers = (
{
color = -1;
layerId = "A5DE6A3D-57BF-416A-9BB2-6BD11ABBF04E";
paths = (
{
closed = 1;
nodes = (
"482 -9 OFFCURVE",
"573 71 OFFCURVE",
"573 191 CURVE SMOOTH",
"573 297 OFFCURVE",
"512 359 OFFCURVE",
"340 402 CURVE SMOOTH",
"193 437 OFFCURVE",
"151 480 OFFCURVE",
"151 559 CURVE SMOOTH",
"151 637 OFFCURVE",
"205 687 OFFCURVE",
"312 687 CURVE SMOOTH",
"416 687 OFFCURVE",
"476 641 OFFCURVE",
"476 557 CURVE SMOOTH",
"476 480 OFFCURVE",
"437 432 OFFCURVE",
"346 393 CURVE",
"403 368 LINE",
"501 407 OFFCURVE",
"549 474 OFFCURVE",
"549 563 CURVE SMOOTH",
"549 678 OFFCURVE",
"461 749 OFFCURVE",
"313 749 CURVE SMOOTH",
"160 749 OFFCURVE",
"72 674 OFFCURVE",
"72 556 CURVE SMOOTH",
"72 448 OFFCURVE",
"135 380 OFFCURVE",
"308 339 CURVE SMOOTH",
"449 305 OFFCURVE",
"495 266 OFFCURVE",
"495 186 CURVE SMOOTH",
"495 101 OFFCURVE",
"432 53 OFFCURVE",
"316 53 CURVE SMOOTH",
"190 53 OFFCURVE",
"126 103 OFFCURVE",
"126 193 CURVE SMOOTH",
"126 270 OFFCURVE",
"176 333 OFFCURVE",
"269 361 CURVE",
"208 386 LINE",
"108 353 OFFCURVE",
"48 281 OFFCURVE",
"48 186 CURVE SMOOTH",
"48 64 OFFCURVE",
"139 -9 OFFCURVE",
"315 -9 CURVE SMOOTH"
);
}
);
width = 622;
}
);
leftKerningGroup = eight;
rightKerningGroup = B;
unicode = 0038;
userData = {
com.typemytype.robofont.layerData = {
};
};
},
{
glyphname = zero.osf;
lastChange = "2016-12-22 13:06:35 +0000";
layers = (
{
color = -1;
layerId = "A5DE6A3D-57BF-416A-9BB2-6BD11ABBF04E";
paths = (
{
closed = 1;
nodes = (
"463 -9 OFFCURVE",
"566 85 OFFCURVE",
"566 271 CURVE SMOOTH",
"566 457 OFFCURVE",
"463 551 OFFCURVE",
"308 551 CURVE SMOOTH",
"153 551 OFFCURVE",
"51 457 OFFCURVE",
"51 271 CURVE SMOOTH",
"51 85 OFFCURVE",
"153 -9 OFFCURVE",
"308 -9 CURVE SMOOTH"
);
},
{
closed = 1;
nodes = (
"200 56 OFFCURVE",
"132 121 OFFCURVE",
"132 271 CURVE SMOOTH",
"132 421 OFFCURVE",
"200 485 OFFCURVE",
"308 485 CURVE SMOOTH",
"416 485 OFFCURVE",
"484 422 OFFCURVE",
"484 271 CURVE SMOOTH",
"484 121 OFFCURVE",
"416 56 OFFCURVE",
"308 56 CURVE SMOOTH"
);
}
);
width = 617;
}
);
leftKerningGroup = o;
leftMetricsKey = "=o+5";
note = "\012    600\012  ";
rightKerningGroup = o;
rightMetricsKey = "=o+5";
userData = {
com.typemytype.robofont.layerData = {
};
};
},
{
glyphname = one.osf;
lastChange = "2016-12-22 13:06:28 +0000";
layers = (
{
color = -1;
layerId = "A5DE6A3D-57BF-416A-9BB2-6BD11ABBF04E";
paths = (
{
closed = 1;
nodes = (
"267 0 LINE",
"267 546 LINE",
"215 546 LINE",
"3 408 LINE",
"3 330 LINE",
"215 467 LINE",
"186 484 LINE",
"186 0 LINE"
);
}
);
width = 346;
}
);
leftKerningGroup = one.osf;
rightKerningGroup = u;
rightMetricsKey = "=|n+5";
userData = {
com.typemytype.robofont.layerData = {
};
};
},
{
glyphname = two.osf;
lastChange = "2016-12-22 13:06:28 +0000";
layers = (
{
color = -1;
layerId = "A5DE6A3D-57BF-416A-9BB2-6BD11ABBF04E";
paths = (
{
closed = 1;
nodes = (
"473 0 LINE",
"473 65 LINE",
"125 65 LINE",
"135 41 LINE",
"262 146 LINE SMOOTH",
"392 252 OFFCURVE",
"428 317 OFFCURVE",
"428 391 CURVE SMOOTH",
"428 495 OFFCURVE",
"353 551 OFFCURVE",
"204 551 CURVE SMOOTH",
"146 551 OFFCURVE",
"80 540 OFFCURVE",
"33 521 CURVE",
"33 455 LINE",
"89 476 OFFCURVE",
"143 485 OFFCURVE",
"197 485 CURVE SMOOTH",
"304 485 OFFCURVE",
"346 450 OFFCURVE",
"346 383 CURVE SMOOTH",
"346 326 OFFCURVE",
"317 275 OFFCURVE",
"189 170 CURVE SMOOTH",
"42 49 LINE",
"42 0 LINE"
);
}
);
width = 496;
}
);
leftKerningGroup = two.osf;
rightKerningGroup = two.osf;
userData = {
com.typemytype.robofont.layerData = {
};
};
},
{
glyphname = three.osf;
lastChange = "2016-12-22 13:06:28 +0000";
layers = (
{
color = -1;
layerId = "A5DE6A3D-57BF-416A-9BB2-6BD11ABBF04E";
paths = (
{
closed = 1;
nodes = (
"359 -210 OFFCURVE",
"450 -133 OFFCURVE",
"450 0 CURVE SMOOTH",
"450 107 OFFCURVE",
"384 174 OFFCURVE",
"263 190 CURVE",
"263 179 LINE",
"364 199 OFFCURVE",
"425 267 OFFCURVE",
"425 363 CURVE SMOOTH",
"425 482 OFFCURVE",
"343 551 OFFCURVE",
"191 551 CURVE SMOOTH",
"132 551 OFFCURVE",
"69 541 OFFCURVE",
"22 524 CURVE",
"22 457 LINE",
"75 476 OFFCURVE",
"130 485 OFFCURVE",
"185 485 CURVE SMOOTH",
"292 485 OFFCURVE",
"346 441 OFFCURVE",
"346 357 CURVE SMOOTH",
"346 265 OFFCURVE",
"279 214 OFFCURVE",
"146 214 CURVE SMOOTH",
"98 214 LINE",
"98 147 LINE",
"186 147 LINE SMOOTH",
"314 147 OFFCURVE",
"371 94 OFFCURVE",
"371 4 CURVE SMOOTH",
"371 -93 OFFCURVE",
"308 -144 OFFCURVE",
"181 -144 CURVE SMOOTH",
"126 -144 OFFCURVE",
"62 -134 OFFCURVE",
"5 -116 CURVE",
"5 -182 LINE",
"60 -200 OFFCURVE",
"122 -210 OFFCURVE",
"183 -210 CURVE SMOOTH"
);
}
);
width = 494;
}
);
leftKerningGroup = three.osf;
rightKerningGroup = three.osf;
userData = {
com.typemytype.robofont.layerData = {
};
};
},
{
glyphname = four.osf;
lastChange = "2016-12-22 13:06:28 +0000";
layers = (
{
color = -1;
layerId = "A5DE6A3D-57BF-416A-9BB2-6BD11ABBF04E";
paths = (
{
closed = 1;
nodes = (
"551 0 LINE",
"551 66 LINE",
"86 66 LINE",
"98 44 LINE",
"379 543 LINE",
"298 543 LINE",
"17 45 LINE",
"17 0 LINE"
);
},
{
closed = 1;
nodes = (
"456 -200 LINE",
"456 313 LINE",
"392 313 LINE",
"381 66 LINE",
"380.997 -200 LINE"
);
}
);
width = 568;
}
);
leftKerningGroup = four.osf;
rightKerningGroup = four.osf;
userData = {
com.typemytype.robofont.layerData = {
};
};
},
{
glyphname = five.osf;
lastChange = "2016-12-22 13:06:28 +0000";
layers = (
{
color = -1;
layerId = "A5DE6A3D-57BF-416A-9BB2-6BD11ABBF04E";
paths = (
{
closed = 1;
nodes = (
"382 -209 OFFCURVE",
"474 -133 OFFCURVE",
"474 10 CURVE SMOOTH",
"474 147 OFFCURVE",
"387 216 OFFCURVE",
"179 228 CURVE SMOOTH",
"87 234 LINE",
"138 198 LINE",
"159 510 LINE",
"122 476 LINE",
"445 476 LINE",
"445 543 LINE",
"84 543 LINE",
"59 169 LINE",
"151 163 LINE SMOOTH",
"334 153 OFFCURVE",
"395 106 OFFCURVE",
"395 9 CURVE SMOOTH",
"395 -92 OFFCURVE",
"333 -143 OFFCURVE",
"207 -143 CURVE SMOOTH",
"151 -143 OFFCURVE",
"87 -133 OFFCURVE",
"31 -114 CURVE",
"31 -180 LINE",
"85 -199 OFFCURVE",
"147 -209 OFFCURVE",
"209 -209 CURVE SMOOTH"
);
}
);
width = 499;
}
);
leftKerningGroup = five.osf;
rightKerningGroup = five.osf;
userData = {
com.typemytype.robofont.layerData = {
};
};
},
{
glyphname = six.osf;
lastChange = "2016-12-22 13:06:28 +0000";
layers = (
{
color = -1;
layerId = "A5DE6A3D-57BF-416A-9BB2-6BD11ABBF04E";
paths = (
{
closed = 1;
nodes = (
"445 -9 OFFCURVE",
"539 66 OFFCURVE",
"539 210 CURVE SMOOTH",
"539 356 OFFCURVE",
"445 425 OFFCURVE",
"310 425 CURVE SMOOTH",
"237 425 OFFCURVE",
"162 399 OFFCURVE",
"120 355 CURVE",
"120 288 LINE",
"163 340 OFFCURVE",
"237 362 OFFCURVE",
"297 362 CURVE SMOOTH",
"398 362 OFFCURVE",
"463 315 OFFCURVE",
"463 207 CURVE SMOOTH",
"463 101 OFFCURVE",
"399 55 OFFCURVE",
"315 55 CURVE SMOOTH",
"207 55 OFFCURVE",
"136 121 OFFCURVE",
"136 337 CURVE SMOOTH",
"136 365 LINE SMOOTH",
"136 589 OFFCURVE",
"217 683 OFFCURVE",
"372 683 CURVE SMOOTH",
"417 683 OFFCURVE",
"465 676 OFFCURVE",
"505 660 CURVE",
"505 727 LINE",
"465 743 OFFCURVE",
"417 749 OFFCURVE",
"370 749 CURVE SMOOTH",
"168 749 OFFCURVE",
"56 625 OFFCURVE",
"56 346 CURVE SMOOTH",
"56 86 OFFCURVE",
"160 -9 OFFCURVE",
"314 -9 CURVE SMOOTH"
);
}
);
width = 574;
}
);
leftKerningGroup = O;
rightKerningGroup = six;
userData = {
com.typemytype.robofont.layerData = {
};
};
},
{
glyphname = seven.osf;
lastChange = "2016-12-22 13:06:28 +0000";
layers = (
{
color = -1;
layerId = "A5DE6A3D-57BF-416A-9BB2-6BD11ABBF04E";
paths = (
{
closed = 1;
nodes = (
"163 -200 LINE",
"435 498 LINE",
"435 543 LINE",
"0 543 LINE",
"0 473 LINE",
"380 473 LINE",
"356 499 LINE",
"78 -200 LINE"
);
}
);
width = 459;
}
);
leftKerningGroup = seven.osf;
rightKerningGroup = seven.osf;
userData = {
com.typemytype.robofont.layerData = {
};
};
},
{
glyphname = eight.osf;
lastChange = "2016-12-22 13:06:28 +0000";
layers = (
{
color = -1;
layerId = "A5DE6A3D-57BF-416A-9BB2-6BD11ABBF04E";
paths = (
{
closed = 1;
nodes = (
"482 -9 OFFCURVE",
"574 71 OFFCURVE",
"574 191 CURVE SMOOTH",
"574 297 OFFCURVE",
"512 359 OFFCURVE",
"340 402 CURVE SMOOTH",
"194 437 OFFCURVE",
"152 480 OFFCURVE",
"152 559 CURVE SMOOTH",
"152 637 OFFCURVE",
"206 687 OFFCURVE",
"312 687 CURVE SMOOTH",
"417 687 OFFCURVE",
"477 641 OFFCURVE",
"477 557 CURVE SMOOTH",
"477 480 OFFCURVE",
"438 432 OFFCURVE",
"346 393 CURVE",
"403 368 LINE",
"501 407 OFFCURVE",
"550 474 OFFCURVE",
"550 563 CURVE SMOOTH",
"550 678 OFFCURVE",
"461 749 OFFCURVE",
"313 749 CURVE SMOOTH",
"160 749 OFFCURVE",
"72 674 OFFCURVE",
"72 556 CURVE SMOOTH",
"72 448 OFFCURVE",
"136 380 OFFCURVE",
"308 339 CURVE SMOOTH",
"449 305 OFFCURVE",
"496 266 OFFCURVE",
"496 186 CURVE SMOOTH",
"496 101 OFFCURVE",
"433 53 OFFCURVE",
"316 53 CURVE SMOOTH",
"191 53 OFFCURVE",
"127 103 OFFCURVE",
"127 193 CURVE SMOOTH",
"127 270 OFFCURVE",
"176 333 OFFCURVE",
"270 361 CURVE",
"208 386 LINE",
"108 353 OFFCURVE",
"49 281 OFFCURVE",
"49 186 CURVE SMOOTH",
"49 64 OFFCURVE",
"140 -9 OFFCURVE",
"316 -9 CURVE SMOOTH"
);
}
);
width = 623;
}
);
leftKerningGroup = eight;
rightKerningGroup = B;
userData = {
com.typemytype.robofont.layerData = {
};
};
},
{
glyphname = nine.osf;
lastChange = "2016-12-22 13:06:28 +0000";
layers = (
{
color = -1;
layerId = "A5DE6A3D-57BF-416A-9BB2-6BD11ABBF04E";
paths = (
{
closed = 1;
nodes = (
"406 -209 OFFCURVE",
"518 -85 OFFCURVE",
"518 195 CURVE SMOOTH",
"518 456 OFFCURVE",
"414 552 OFFCURVE",
"260 552 CURVE SMOOTH",
"128 552 OFFCURVE",
"35 477 OFFCURVE",
"35 332 CURVE SMOOTH",
"35 185 OFFCURVE",
"129 116 OFFCURVE",
"263 116 CURVE SMOOTH",
"337 116 OFFCURVE",
"412 142 OFFCURVE",
"454 186 CURVE",
"454 253 LINE",
"410 201 OFFCURVE",
"337 179 OFFCURVE",
"276 179 CURVE SMOOTH",
"176 179 OFFCURVE",
"111 226 OFFCURVE",
"111 335 CURVE SMOOTH",
"111 442 OFFCURVE",
"174 488 OFFCURVE",
"259 488 CURVE SMOOTH",
"367 488 OFFCURVE",
"437 422 OFFCURVE",
"437 205 CURVE SMOOTH",
"437 176 LINE SMOOTH",
"437 -49 OFFCURVE",
"357 -143 OFFCURVE",
"201 -143 CURVE SMOOTH",
"157 -143 OFFCURVE",
"109 -136 OFFCURVE",
"69 -120 CURVE",
"69 -187 LINE",
"108 -203 OFFCURVE",
"157 -209 OFFCURVE",
"204 -209 CURVE SMOOTH"
);
}
);
width = 574;
}
);
leftKerningGroup = o;
leftMetricsKey = "=|six.osf";
rightKerningGroup = nine.osf;
rightMetricsKey = "=|six.osf";
userData = {
com.typemytype.robofont.layerData = {
};
};
},
{
glyphname = zero.tf;
lastChange = "2016-12-22 13:06:28 +0000";
layers = (
{
color = -1;
layerId = "A5DE6A3D-57BF-416A-9BB2-6BD11ABBF04E";
paths = (
{
closed = 1;
nodes = (
"435 -9 OFFCURVE",
"528 95 OFFCURVE",
"528 370 CURVE SMOOTH",
"528 645 OFFCURVE",
"437 749 OFFCURVE",
"289 749 CURVE SMOOTH",
"141 749 OFFCURVE",
"51 645 OFFCURVE",
"51 370 CURVE SMOOTH",
"51 95 OFFCURVE",
"143 -9 OFFCURVE",
"289 -9 CURVE SMOOTH"
);
},
{
closed = 1;
nodes = (
"193 60 OFFCURVE",
"132 130 OFFCURVE",
"132 371 CURVE SMOOTH",
"132 610 OFFCURVE",
"193 680 OFFCURVE",
"289 680 CURVE SMOOTH",
"386 680 OFFCURVE",
"447 610 OFFCURVE",
"447 369 CURVE SMOOTH",
"447 130 OFFCURVE",
"386 60 OFFCURVE",
"289 60 CURVE SMOOTH"
);
}
);
width = 578;
}
);
note = "\012    600\012  ";
},
{
glyphname = one.tf;
lastChange = "2016-12-22 13:06:28 +0000";
layers = (
{
color = -1;
layerId = "A5DE6A3D-57BF-416A-9BB2-6BD11ABBF04E";
paths = (
{
closed = 1;
nodes = (
"360 0 LINE",
"360 742 LINE",
"309 742 LINE",
"103 595 LINE",
"103 514 LINE",
"309 661 LINE",
"279 683 LINE",
"279 0 LINE"
);
},
{
closed = 1;
nodes = (
"526 0 LINE",
"526 70 LINE",
"106 70 LINE",
"106 0 LINE"
);
}
);
width = 578;
}
);
},
{
glyphname = two.tf;
lastChange = "2016-12-22 13:06:28 +0000";
layers = (
{
color = -1;
layerId = "A5DE6A3D-57BF-416A-9BB2-6BD11ABBF04E";
paths = (
{
closed = 1;
nodes = (
"512 0 LINE",
"512 70 LINE",
"155 70 LINE",
"161 47 LINE",
"356 294 LINE SMOOTH",
"443 404 OFFCURVE",
"476 473 OFFCURVE",
"476 552 CURVE SMOOTH",
"477 689 OFFCURVE",
"388 749 OFFCURVE",
"234 749 CURVE SMOOTH",
"170 749 OFFCURVE",
"104 738 OFFCURVE",
"59 721 CURVE",
"59 651 LINE",
"109 670 OFFCURVE",
"165 680 OFFCURVE",
"227 680 CURVE SMOOTH",
"339 680 OFFCURVE",
"395 641 OFFCURVE",
"395 545 CURVE SMOOTH",
"395 482 OFFCURVE",
"365 422 OFFCURVE",
"289 326 CURVE SMOOTH",
"68 45 LINE",
"68 0 LINE"
);
}
);
width = 578;
}
);
},
{
glyphname = three.tf;
lastChange = "2016-12-22 13:06:28 +0000";
layers = (
{
color = -1;
layerId = "A5DE6A3D-57BF-416A-9BB2-6BD11ABBF04E";
paths = (
{
closed = 1;
nodes = (
"422 -9 OFFCURVE",
"516 68 OFFCURVE",
"516 200 CURVE SMOOTH",
"516 307 OFFCURVE",
"448 374 OFFCURVE",
"322 389 CURVE",
"322 378 LINE",
"426 399 OFFCURVE",
"491 466 OFFCURVE",
"491 562 CURVE SMOOTH",
"491 681 OFFCURVE",
"406 749 OFFCURVE",
"247 749 CURVE SMOOTH",
"186 749 OFFCURVE",
"120 739 OFFCURVE",
"71 722 CURVE",
"71 656 LINE",
"126 675 OFFCURVE",
"183 684 OFFCURVE",
"241 684 CURVE SMOOTH",
"354 684 OFFCURVE",
"412 639 OFFCURVE",
"412 556 CURVE SMOOTH",
"412 464 OFFCURVE",
"340 413 OFFCURVE",
"200 413 CURVE SMOOTH",
"150 413 LINE",
"150 347 LINE",
"242 347 LINE SMOOTH",
"377 347 OFFCURVE",
"438 294 OFFCURVE",
"438 204 CURVE SMOOTH",
"438 108 OFFCURVE",
"371 56 OFFCURVE",
"237 56 CURVE SMOOTH",
"179 56 OFFCURVE",
"113 66 OFFCURVE",
"53 85 CURVE",
"53 19 LINE",
"110 0 OFFCURVE",
"175 -9 OFFCURVE",
"239 -9 CURVE SMOOTH"
);
}
);
width = 578;
}
);
},
{
glyphname = four.tf;
lastChange = "2016-12-22 13:06:28 +0000";
layers = (
{
color = -1;
layerId = "A5DE6A3D-57BF-416A-9BB2-6BD11ABBF04E";
paths = (
{
closed = 1;
nodes = (
"559 177 LINE",
"559 244 LINE",
"92 244 LINE",
"104 222 LINE",
"380 740 LINE",
"300 740 LINE",
"23 223 LINE",
"23 177 LINE"
);
},
{
closed = 1;
nodes = (
"454 0 LINE",
"454 490 LINE",
"390 490 LINE",
"379 244 LINE",
"379 0 LINE"
);
}
);
width = 578;
}
);
},
{
glyphname = five.tf;
lastChange = "2016-12-22 13:06:28 +0000";
layers = (
{
color = -1;
layerId = "A5DE6A3D-57BF-416A-9BB2-6BD11ABBF04E";
paths = (
{
closed = 1;
nodes = (
"430 -9 OFFCURVE",
"526 67 OFFCURVE",
"526 209 CURVE SMOOTH",
"526 345 OFFCURVE",
"435 414 OFFCURVE",
"217 426 CURVE SMOOTH",
"121 432 LINE",
"170 396 LINE",
"192 707 LINE",
"157 674 LINE",
"494 674 LINE",
"494 740 LINE",
"118 740 LINE",
"92 367 LINE",
"188 362 LINE SMOOTH",
"381 351 OFFCURVE",
"447 305 OFFCURVE",
"447 208 CURVE SMOOTH",
"447 108 OFFCURVE",
"381 57 OFFCURVE",
"247 57 CURVE SMOOTH",
"188 57 OFFCURVE",
"121 67 OFFCURVE",
"63 86 CURVE",
"63 20 LINE",
"118 1 OFFCURVE",
"184 -9 OFFCURVE",
"249 -9 CURVE SMOOTH"
);
}
);
width = 578;
}
);
},
{
glyphname = six.tf;
lastChange = "2016-12-22 13:06:28 +0000";
layers = (
{
color = -1;
layerId = "A5DE6A3D-57BF-416A-9BB2-6BD11ABBF04E";
paths = (
{
closed = 1;
nodes = (
"450 -9 OFFCURVE",
"542 66 OFFCURVE",
"542 210 CURVE SMOOTH",
"542 356 OFFCURVE",
"449 425 OFFCURVE",
"318 425 CURVE SMOOTH",
"246 425 OFFCURVE",
"173 399 OFFCURVE",
"132 355 CURVE",
"132 288 LINE",
"175 340 OFFCURVE",
"246 362 OFFCURVE",
"306 362 CURVE SMOOTH",
"403 362 OFFCURVE",
"466 315 OFFCURVE",
"466 207 CURVE SMOOTH",
"466 101 OFFCURVE",
"405 55 OFFCURVE",
"322 55 CURVE SMOOTH",
"217 55 OFFCURVE",
"149 121 OFFCURVE",
"149 337 CURVE SMOOTH",
"149 365 LINE SMOOTH",
"149 589 OFFCURVE",
"227 683 OFFCURVE",
"379 683 CURVE SMOOTH",
"422 683 OFFCURVE",
"469 676 OFFCURVE",
"508 660 CURVE",
"508 727 LINE",
"470 743 OFFCURVE",
"422 749 OFFCURVE",
"377 749 CURVE SMOOTH",
"180 749 OFFCURVE",
"69 625 OFFCURVE",
"69 346 CURVE SMOOTH",
"69 86 OFFCURVE",
"171 -9 OFFCURVE",
"322 -9 CURVE SMOOTH"
);
}
);
width = 578;
}
);
},
{
glyphname = seven.tf;
lastChange = "2016-12-22 13:06:28 +0000";
layers = (
{
color = -1;
layerId = "A5DE6A3D-57BF-416A-9BB2-6BD11ABBF04E";
paths = (
{
closed = 1;
nodes = (
"212 0 LINE",
"515 695 LINE",
"515.003 740 LINE",
"38 740 LINE",
"38 670 LINE",
"458 670 LINE",
"434 696 LINE",
"127 0 LINE"
);
}
);
width = 578;
}
);
},
{
glyphname = eight.tf;
lastChange = "2016-12-22 13:06:28 +0000";
layers = (
{
color = -1;
layerId = "A5DE6A3D-57BF-416A-9BB2-6BD11ABBF04E";
paths = (
{
closed = 1;
nodes = (
"451 -9 OFFCURVE",
"537 71 OFFCURVE",
"537 191 CURVE SMOOTH",
"537 297 OFFCURVE",
"479 359 OFFCURVE",
"317 402 CURVE SMOOTH",
"180 437 OFFCURVE",
"142 480 OFFCURVE",
"142 559 CURVE SMOOTH",
"142 637 OFFCURVE",
"192 687 OFFCURVE",
"290 687 CURVE SMOOTH",
"386 687 OFFCURVE",
"442 641 OFFCURVE",
"442 557 CURVE SMOOTH",
"442 480 OFFCURVE",
"406 432 OFFCURVE",
"321 393 CURVE",
"376 368 LINE",
"469 407 OFFCURVE",
"514 474 OFFCURVE",
"514 563 CURVE SMOOTH",
"514 678 OFFCURVE",
"431 749 OFFCURVE",
"291 749 CURVE SMOOTH",
"146 749 OFFCURVE",
"63 674 OFFCURVE",
"63 557 CURVE SMOOTH",
"63 448 OFFCURVE",
"123 380 OFFCURVE",
"286 339 CURVE SMOOTH",
"417 306 OFFCURVE",
"459 267 OFFCURVE",
"459 186 CURVE SMOOTH",
"459 101 OFFCURVE",
"401 53 OFFCURVE",
"294 53 CURVE SMOOTH",
"178 53 OFFCURVE",
"119 103 OFFCURVE",
"119 193 CURVE SMOOTH",
"119 270 OFFCURVE",
"164 333 OFFCURVE",
"251 361 CURVE",
"192 386 LINE",
"97 353 OFFCURVE",
"41 281 OFFCURVE",
"41 186 CURVE SMOOTH",
"41 64 OFFCURVE",
"128 -9 OFFCURVE",
"294 -9 CURVE SMOOTH"
);
}
);
width = 578;
}
);
},
{
glyphname = nine.tf;
lastChange = "2016-12-22 13:06:28 +0000";
layers = (
{
color = -1;
layerId = "A5DE6A3D-57BF-416A-9BB2-6BD11ABBF04E";
paths = (
{
closed = 1;
nodes = (
"399 -9 OFFCURVE",
"509 115 OFFCURVE",
"509 394 CURVE SMOOTH",
"509 654 OFFCURVE",
"407 749 OFFCURVE",
"257 749 CURVE SMOOTH",
"128 749 OFFCURVE",
"36 674 OFFCURVE",
"36 530 CURVE SMOOTH",
"36 384 OFFCURVE",
"129 315 OFFCURVE",
"260 315 CURVE SMOOTH",
"332 315 OFFCURVE",
"405 341 OFFCURVE",
"446 385 CURVE",
"446 452 LINE",
"403 400 OFFCURVE",
"332 378 OFFCURVE",
"273 378 CURVE SMOOTH",
"175 378 OFFCURVE",
"112 425 OFFCURVE",
"112 533 CURVE SMOOTH",
"112 639 OFFCURVE",
"173 685 OFFCURVE",
"256 685 CURVE SMOOTH",
"361 685 OFFCURVE",
"429 619 OFFCURVE",
"429 403 CURVE SMOOTH",
"429 375 LINE SMOOTH",
"429 151 OFFCURVE",
"351 57 OFFCURVE",
"199 57 CURVE SMOOTH",
"156 57 OFFCURVE",
"109 64 OFFCURVE",
"70 80 CURVE",
"70 13 LINE",
"109 -3 OFFCURVE",
"156 -9 OFFCURVE",
"202 -9 CURVE SMOOTH"
);
}
);
width = 578;
}
);
},
{
glyphname = zero.tosf;
lastChange = "2016-12-22 13:06:28 +0000";
layers = (
{
color = -1;
layerId = "A5DE6A3D-57BF-416A-9BB2-6BD11ABBF04E";
paths = (
{
closed = 1;
nodes = (
"437 -9 OFFCURVE",
"530 88 OFFCURVE",
"530 271 CURVE SMOOTH",
"530 454 OFFCURVE",
"437 551 OFFCURVE",
"289 551 CURVE SMOOTH",
"142 551 OFFCURVE",
"48 454 OFFCURVE",
"48 271 CURVE SMOOTH",
"48 88 OFFCURVE",
"142 -9 OFFCURVE",
"289 -9 CURVE SMOOTH"
);
},
{
closed = 1;
nodes = (
"190 56 OFFCURVE",
"129 123 OFFCURVE",
"129 271 CURVE SMOOTH",
"129 419 OFFCURVE",
"190 485 OFFCURVE",
"289 485 CURVE SMOOTH",
"389 485 OFFCURVE",
"449 419 OFFCURVE",
"449 271 CURVE SMOOTH",
"449 123 OFFCURVE",
"389 56 OFFCURVE",
"289 56 CURVE SMOOTH"
);
}
);
width = 578;
}
);
note = "\012    600\012  ";
},
{
glyphname = one.tosf;
lastChange = "2016-12-22 13:06:28 +0000";
layers = (
{
color = -1;
layerId = "A5DE6A3D-57BF-416A-9BB2-6BD11ABBF04E";
paths = (
{
closed = 1;
nodes = (
"358 0 LINE",
"358 546 LINE",
"306 546 LINE",
"100 420 LINE",
"100 346 LINE",
"306 472 LINE",
"276 487 LINE",
"276 0 LINE"
);
},
{
closed = 1;
nodes = (
"529 0 LINE",
"529 67 LINE",
"103 67 LINE",
"103 0 LINE"
);
}
);
width = 578;
}
);
},
{
glyphname = two.tosf;
lastChange = "2016-12-22 13:06:28 +0000";
layers = (
{
color = -1;
layerId = "A5DE6A3D-57BF-416A-9BB2-6BD11ABBF04E";
paths = (
{
closed = 1;
nodes = (
"525 0 LINE",
"525 65 LINE",
"161 65 LINE",
"167 41 LINE",
"323 166 LINE SMOOTH",
"443 254 OFFCURVE",
"482 317 OFFCURVE",
"482 391 CURVE SMOOTH",
"482 496 OFFCURVE",
"404 551 OFFCURVE",
"245 551 CURVE SMOOTH",
"183 551 OFFCURVE",
"113 540 OFFCURVE",
"64 521 CURVE",
"64 455 LINE",
"122 476 OFFCURVE",
"180 485 OFFCURVE",
"237 485 CURVE SMOOTH",
"354 485 OFFCURVE",
"401 450 OFFCURVE",
"401 383 CURVE SMOOTH",
"401 326 OFFCURVE",
"368 278 OFFCURVE",
"249 190 CURVE SMOOTH",
"72 49 LINE",
"72 0 LINE"
);
}
);
width = 578;
}
);
},
{
glyphname = three.tosf;
lastChange = "2016-12-22 13:06:28 +0000";
layers = (
{
color = -1;
layerId = "A5DE6A3D-57BF-416A-9BB2-6BD11ABBF04E";
paths = (
{
closed = 1;
nodes = (
"407 -210 OFFCURVE",
"502 -133 OFFCURVE",
"502 0 CURVE SMOOTH",
"502 107 OFFCURVE",
"434 174 OFFCURVE",
"307 190 CURVE",
"307 179 LINE",
"412 199 OFFCURVE",
"477 267 OFFCURVE",
"477 363 CURVE SMOOTH",
"477 482 OFFCURVE",
"391 551 OFFCURVE",
"232 551 CURVE SMOOTH",
"170 551 OFFCURVE",
"105 541 OFFCURVE",
"56 524 CURVE",
"56 457 LINE",
"110 476 OFFCURVE",
"168 485 OFFCURVE",
"225 485 CURVE SMOOTH",
"339 485 OFFCURVE",
"397 441 OFFCURVE",
"397 357 CURVE SMOOTH",
"397 265 OFFCURVE",
"325 214 OFFCURVE",
"185 214 CURVE SMOOTH",
"134 214 LINE",
"134 147 LINE",
"227 147 LINE SMOOTH",
"363 147 OFFCURVE",
"424 94 OFFCURVE",
"424 4 CURVE SMOOTH",
"424 -93 OFFCURVE",
"356 -144 OFFCURVE",
"222 -144 CURVE SMOOTH",
"164 -144 OFFCURVE",
"97 -134 OFFCURVE",
"37 -116 CURVE",
"37 -182 LINE",
"95 -200 OFFCURVE",
"159 -210 OFFCURVE",
"223 -210 CURVE SMOOTH"
);
}
);
width = 578;
}
);
},
{
glyphname = four.tosf;
lastChange = "2016-12-22 13:06:28 +0000";
layers = (
{
color = -1;
layerId = "A5DE6A3D-57BF-416A-9BB2-6BD11ABBF04E";
paths = (
{
closed = 1;
nodes = (
"550 0 LINE",
"550 66 LINE",
"96 66 LINE",
"108 44 LINE",
"384 543 LINE",
"303 543 LINE",
"27 45 LINE",
"27 0 LINE"
);
},
{
closed = 1;
nodes = (
"456 -200 LINE",
"456 313 LINE",
"391 313 LINE",
"381 66 LINE",
"381 -200 LINE"
);
}
);
width = 578;
}
);
},
{
glyphname = five.tosf;
lastChange = "2016-12-22 13:06:28 +0000";
layers = (
{
color = -1;
layerId = "A5DE6A3D-57BF-416A-9BB2-6BD11ABBF04E";
paths = (
{
closed = 1;
nodes = (
"428 -209 OFFCURVE",
"523 -133 OFFCURVE",
"523 10 CURVE SMOOTH",
"523 147 OFFCURVE",
"432 216 OFFCURVE",
"215 228 CURVE SMOOTH",
"119 234 LINE",
"168 198 LINE",
"190 510 LINE",
"155 476 LINE",
"493 476 LINE",
"493 543 LINE",
"116 543 LINE",
"89 169 LINE",
"186 163 LINE SMOOTH",
"378 153 OFFCURVE",
"445 106 OFFCURVE",
"445 9 CURVE SMOOTH",
"445 -92 OFFCURVE",
"378 -143 OFFCURVE",
"245 -143 CURVE SMOOTH",
"185 -143 OFFCURVE",
"120 -133 OFFCURVE",
"61 -114 CURVE",
"61 -180 LINE",
"116 -199 OFFCURVE",
"182 -209 OFFCURVE",
"247 -209 CURVE SMOOTH"
);
}
);
width = 578;
}
);
},
{
glyphname = six.tosf;
lastChange = "2016-12-22 13:06:28 +0000";
layers = (
{
color = -1;
layerId = "A5DE6A3D-57BF-416A-9BB2-6BD11ABBF04E";
paths = (
{
closed = 1;
nodes = (
"450 -9 OFFCURVE",
"542 66 OFFCURVE",
"542 210 CURVE SMOOTH",
"542 356 OFFCURVE",
"449 425 OFFCURVE",
"318 425 CURVE SMOOTH",
"246 425 OFFCURVE",
"173 399 OFFCURVE",
"132 355 CURVE",
"132 288 LINE",
"175 340 OFFCURVE",
"246 362 OFFCURVE",
"306 362 CURVE SMOOTH",
"403 362 OFFCURVE",
"466 315 OFFCURVE",
"466 207 CURVE SMOOTH",
"466 101 OFFCURVE",
"405 55 OFFCURVE",
"322 55 CURVE SMOOTH",
"217 55 OFFCURVE",
"149 121 OFFCURVE",
"149 337 CURVE SMOOTH",
"149 365 LINE SMOOTH",
"149 589 OFFCURVE",
"227 683 OFFCURVE",
"379 683 CURVE SMOOTH",
"422 683 OFFCURVE",
"469 676 OFFCURVE",
"508 660 CURVE",
"508 727 LINE",
"470 743 OFFCURVE",
"422 749 OFFCURVE",
"377 749 CURVE SMOOTH",
"180 749 OFFCURVE",
"69 625 OFFCURVE",
"69 346 CURVE SMOOTH",
"69 86 OFFCURVE",
"171 -9 OFFCURVE",
"322 -9 CURVE SMOOTH"
);
}
);
width = 578;
}
);
},
{
glyphname = seven.tosf;
lastChange = "2016-12-22 13:06:28 +0000";
layers = (
{
color = -1;
layerId = "A5DE6A3D-57BF-416A-9BB2-6BD11ABBF04E";
paths = (
{
closed = 1;
nodes = (
"212 -200 LINE",
"515 498 LINE",
"515 543 LINE",
"38 543 LINE",
"38 473 LINE",
"458 473 LINE",
"435 499 LINE",
"127 -200 LINE"
);
}
);
width = 578;
}
);
},
{
glyphname = eight.tosf;
lastChange = "2016-12-22 13:06:28 +0000";
layers = (
{
color = -1;
layerId = "A5DE6A3D-57BF-416A-9BB2-6BD11ABBF04E";
paths = (
{
closed = 1;
nodes = (
"451 -9 OFFCURVE",
"537 71 OFFCURVE",
"537 191 CURVE SMOOTH",
"537 297 OFFCURVE",
"479 359 OFFCURVE",
"317 402 CURVE SMOOTH",
"180 437 OFFCURVE",
"142 480 OFFCURVE",
"142 559 CURVE SMOOTH",
"142 637 OFFCURVE",
"192 687 OFFCURVE",
"290 687 CURVE SMOOTH",
"386 687 OFFCURVE",
"442 641 OFFCURVE",
"442 557 CURVE SMOOTH",
"442 480 OFFCURVE",
"406 432 OFFCURVE",
"321 393 CURVE",
"376 368 LINE",
"469 407 OFFCURVE",
"514 474 OFFCURVE",
"514 563 CURVE SMOOTH",
"514 678 OFFCURVE",
"431 749 OFFCURVE",
"291 749 CURVE SMOOTH",
"146 749 OFFCURVE",
"63 674 OFFCURVE",
"63 557 CURVE SMOOTH",
"63 448 OFFCURVE",
"123 380 OFFCURVE",
"286 339 CURVE SMOOTH",
"417 306 OFFCURVE",
"459 267 OFFCURVE",
"459 186 CURVE SMOOTH",
"459 101 OFFCURVE",
"401 53 OFFCURVE",
"294 53 CURVE SMOOTH",
"178 53 OFFCURVE",
"119 103 OFFCURVE",
"119 193 CURVE SMOOTH",
"119 270 OFFCURVE",
"164 333 OFFCURVE",
"251 361 CURVE",
"192 386 LINE",
"97 353 OFFCURVE",
"41 281 OFFCURVE",
"41 186 CURVE SMOOTH",
"41 64 OFFCURVE",
"128 -9 OFFCURVE",
"294 -9 CURVE SMOOTH"
);
}
);
width = 578;
}
);
},
{
glyphname = nine.tosf;
lastChange = "2016-12-22 13:06:28 +0000";
layers = (
{
color = -1;
layerId = "A5DE6A3D-57BF-416A-9BB2-6BD11ABBF04E";
paths = (
{
closed = 1;
nodes = (
"399 -209 OFFCURVE",
"509 -85 OFFCURVE",
"509 195 CURVE SMOOTH",
"509 456 OFFCURVE",
"407 552 OFFCURVE",
"257 552 CURVE SMOOTH",
"128 552 OFFCURVE",
"36 477 OFFCURVE",
"36 332 CURVE SMOOTH",
"36 185 OFFCURVE",
"129 116 OFFCURVE",
"260 116 CURVE SMOOTH",
"332 116 OFFCURVE",
"405 142 OFFCURVE",
"446 186 CURVE",
"446 253 LINE",
"403 201 OFFCURVE",
"332 179 OFFCURVE",
"273 179 CURVE SMOOTH",
"175 179 OFFCURVE",
"112 226 OFFCURVE",
"112 335 CURVE SMOOTH",
"112 442 OFFCURVE",
"173 488 OFFCURVE",
"256 488 CURVE SMOOTH",
"361 488 OFFCURVE",
"429 422 OFFCURVE",
"429 205 CURVE SMOOTH",
"429 176 LINE SMOOTH",
"429 -49 OFFCURVE",
"351 -143 OFFCURVE",
"199 -143 CURVE SMOOTH",
"156 -143 OFFCURVE",
"109 -136 OFFCURVE",
"70 -120 CURVE",
"70 -187 LINE",
"109 -203 OFFCURVE",
"156 -209 OFFCURVE",
"202 -209 CURVE SMOOTH"
);
}
);
width = 578;
}
);
},
{
glyphname = zero.dnom;
lastChange = "2016-12-22 13:06:28 +0000";
layers = (
{
color = -1;
layerId = "A5DE6A3D-57BF-416A-9BB2-6BD11ABBF04E";
paths = (
{
closed = 1;
nodes = (
"297 -74 OFFCURVE",
"362 -7 OFFCURVE",
"362 182 CURVE SMOOTH",
"362 371 OFFCURVE",
"295 438 OFFCURVE",
"197 438 CURVE SMOOTH",
"99 438 OFFCURVE",
"32 371 OFFCURVE",
"32 182 CURVE SMOOTH",
"32 -7 OFFCURVE",
"98 -74 OFFCURVE",
"197 -74 CURVE SMOOTH"
);
},
{
closed = 1;
nodes = (
"137 -18 OFFCURVE",
"98 24 OFFCURVE",
"98 182 CURVE SMOOTH",
"98 341 OFFCURVE",
"139 382 OFFCURVE",
"197 382 CURVE SMOOTH",
"256 382 OFFCURVE",
"296 341 OFFCURVE",
"296 182 CURVE SMOOTH",
"296 22 OFFCURVE",
"257 -18 OFFCURVE",
"197 -18 CURVE SMOOTH"
);
}
);
width = 394;
}
);
note = "\012    546\012  ";
userData = {
com.typemytype.robofont.layerData = {
};
};
},
{
glyphname = one.dnom;
lastChange = "2016-12-22 13:06:28 +0000";
layers = (
{
color = -1;
layerId = "A5DE6A3D-57BF-416A-9BB2-6BD11ABBF04E";
paths = (
{
closed = 1;
nodes = (
"251 -57 LINE",
"251 434 LINE",
"208 434 LINE",
"69 336 LINE",
"69 273 LINE",
"208 370 LINE",
"185 388 LINE",
"185 -57 LINE"
);
},
{
closed = 1;
nodes = (
"360 -68 LINE",
"360 -11 LINE",
"70 -11 LINE",
"70 -68 LINE"
);
}
);
width = 394;
}
);
userData = {
com.typemytype.robofont.layerData = {
};
};
},
{
glyphname = two.dnom;
lastChange = "2016-12-22 13:06:28 +0000";
layers = (
{
color = -1;
layerId = "A5DE6A3D-57BF-416A-9BB2-6BD11ABBF04E";
paths = (
{
closed = 1;
nodes = (
"351 -68 LINE",
"351 -11 LINE",
"117 -11 LINE",
"121 -29 LINE",
"248 131 LINE SMOOTH",
"305 202 OFFCURVE",
"327 249 OFFCURVE",
"327 302 CURVE SMOOTH",
"328 397 OFFCURVE",
"267 438 OFFCURVE",
"159 438 CURVE SMOOTH",
"115 438 OFFCURVE",
"70 432 OFFCURVE",
"39 419 CURVE",
"39 362 LINE",
"72 375 OFFCURVE",
"110 382 OFFCURVE",
"152 382 CURVE SMOOTH",
"225 382 OFFCURVE",
"260 356 OFFCURVE",
"260 296 CURVE SMOOTH",
"260 256 OFFCURVE",
"241 217 OFFCURVE",
"191 155 CURVE SMOOTH",
"45 -31 LINE",
"45 -68 LINE"
);
}
);
width = 394;
}
);
userData = {
com.typemytype.robofont.layerData = {
};
};
},
{
glyphname = three.dnom;
lastChange = "2016-12-22 13:06:28 +0000";
layers = (
{
color = -1;
layerId = "A5DE6A3D-57BF-416A-9BB2-6BD11ABBF04E";
paths = (
{
closed = 1;
nodes = (
"288 -74 OFFCURVE",
"353 -22 OFFCURVE",
"353 68 CURVE SMOOTH",
"353 139 OFFCURVE",
"308 184 OFFCURVE",
"227 195 CURVE",
"227 188 LINE",
"294 202 OFFCURVE",
"336 246 OFFCURVE",
"336 310 CURVE SMOOTH",
"336 392 OFFCURVE",
"277 438 OFFCURVE",
"167 438 CURVE SMOOTH",
"125 438 OFFCURVE",
"79 432 OFFCURVE",
"47 420 CURVE",
"47 366 LINE",
"83 379 OFFCURVE",
"123 385 OFFCURVE",
"161 385 CURVE SMOOTH",
"234 385 OFFCURVE",
"271 357 OFFCURVE",
"271 305 CURVE SMOOTH",
"271 248 OFFCURVE",
"227 215 OFFCURVE",
"140 215 CURVE SMOOTH",
"98 215 LINE",
"98 161 LINE",
"166 161 LINE SMOOTH",
"251 161 OFFCURVE",
"289 128 OFFCURVE",
"289 72 CURVE SMOOTH",
"289 11 OFFCURVE",
"247 -21 OFFCURVE",
"160 -21 CURVE SMOOTH",
"121 -21 OFFCURVE",
"76 -15 OFFCURVE",
"35 -1 CURVE",
"35 -56 LINE",
"74 -68 OFFCURVE",
"119 -74 OFFCURVE",
"162 -74 CURVE SMOOTH"
);
}
);
width = 394;
}
);
userData = {
com.typemytype.robofont.layerData = {
};
};
},
{
glyphname = four.dnom;
lastChange = "2016-12-22 13:06:28 +0000";
layers = (
{
color = -1;
layerId = "A5DE6A3D-57BF-416A-9BB2-6BD11ABBF04E";
paths = (
{
closed = 1;
nodes = (
"381 48 LINE",
"381 102 LINE",
"72 102 LINE",
"80 85 LINE",
"260 432 LINE",
"196 432 LINE",
"15 85 LINE",
"15 48 LINE"
);
},
{
closed = 1;
nodes = (
"313 -68 LINE",
"313 263 LINE",
"265 263 LINE",
"252 102 LINE",
"252 -68 LINE"
);
}
);
width = 394;
}
);
userData = {
com.typemytype.robofont.layerData = {
};
};
},
{
glyphname = five.dnom;
lastChange = "2016-12-22 13:06:28 +0000";
layers = (
{
color = -1;
layerId = "A5DE6A3D-57BF-416A-9BB2-6BD11ABBF04E";
paths = (
{
closed = 1;
nodes = (
"293 -74 OFFCURVE",
"359 -22 OFFCURVE",
"359 76 CURVE SMOOTH",
"359 168 OFFCURVE",
"297 215 OFFCURVE",
"150 224 CURVE SMOOTH",
"86 227 LINE",
"125 200 LINE",
"139 406 LINE",
"111 378 LINE",
"338 378 LINE",
"338 432 LINE",
"78 432 LINE",
"61 175 LINE",
"131 171 LINE SMOOTH",
"253 164 OFFCURVE",
"295 135 OFFCURVE",
"295 73 CURVE SMOOTH",
"295 11 OFFCURVE",
"253 -21 OFFCURVE",
"167 -21 CURVE SMOOTH",
"127 -21 OFFCURVE",
"81 -14 OFFCURVE",
"42 -1 CURVE",
"42 -55 LINE",
"79 -67 OFFCURVE",
"124 -74 OFFCURVE",
"168 -74 CURVE SMOOTH"
);
}
);
width = 394;
}
);
userData = {
com.typemytype.robofont.layerData = {
};
};
},
{
glyphname = six.dnom;
lastChange = "2016-12-22 13:06:28 +0000";
layers = (
{
color = -1;
layerId = "A5DE6A3D-57BF-416A-9BB2-6BD11ABBF04E";
paths = (
{
closed = 1;
nodes = (
"309 -74 OFFCURVE",
"371 -22 OFFCURVE",
"371 76 CURVE SMOOTH",
"371 176 OFFCURVE",
"308 223 OFFCURVE",
"221 223 CURVE SMOOTH",
"172 223 OFFCURVE",
"124 205 OFFCURVE",
"97 177 CURVE",
"97 124 LINE",
"125 158 OFFCURVE",
"170 172 OFFCURVE",
"208 172 CURVE SMOOTH",
"270 172 OFFCURVE",
"310 142 OFFCURVE",
"310 74 CURVE SMOOTH",
"310 6 OFFCURVE",
"271 -23 OFFCURVE",
"219 -23 CURVE SMOOTH",
"153 -23 OFFCURVE",
"110 20 OFFCURVE",
"110 154 CURVE SMOOTH",
"110 181 LINE SMOOTH",
"110 325 OFFCURVE",
"160 384 OFFCURVE",
"260 384 CURVE SMOOTH",
"289 384 OFFCURVE",
"321 380 OFFCURVE",
"347 369 CURVE",
"347 424 LINE",
"321 434 OFFCURVE",
"289 438 OFFCURVE",
"257 438 CURVE SMOOTH",
"120 438 OFFCURVE",
"44 352 OFFCURVE",
"44 166 CURVE SMOOTH",
"44 -9 OFFCURVE",
"115 -74 OFFCURVE",
"220 -74 CURVE SMOOTH"
);
}
);
width = 394;
}
);
userData = {
com.typemytype.robofont.layerData = {
};
};
},
{
glyphname = seven.dnom;
lastChange = "2016-12-22 13:06:28 +0000";
layers = (
{
color = -1;
layerId = "A5DE6A3D-57BF-416A-9BB2-6BD11ABBF04E";
paths = (
{
closed = 1;
nodes = (
"155 -68 LINE",
"352 395 LINE",
"352 432 LINE",
"26 432 LINE",
"26 375 LINE",
"307 375 LINE",
"285 396 LINE",
"85 -68 LINE"
);
}
);
width = 394;
}
);
userData = {
com.typemytype.robofont.layerData = {
};
};
},
{
glyphname = eight.dnom;
lastChange = "2016-12-22 13:06:28 +0000";
layers = (
{
color = -1;
layerId = "A5DE6A3D-57BF-416A-9BB2-6BD11ABBF04E";
paths = (
{
closed = 1;
nodes = (
"309 -74 OFFCURVE",
"368 -19 OFFCURVE",
"368 63 CURVE SMOOTH",
"368 135 OFFCURVE",
"330 178 OFFCURVE",
"219 208 CURVE SMOOTH",
"128 232 OFFCURVE",
"104 259 OFFCURVE",
"104 309 CURVE SMOOTH",
"104 358 OFFCURVE",
"136 389 OFFCURVE",
"198 389 CURVE SMOOTH",
"259 389 OFFCURVE",
"294 360 OFFCURVE",
"294 307 CURVE SMOOTH",
"294 258 OFFCURVE",
"271 228 OFFCURVE",
"217 201 CURVE",
"261 182 LINE",
"324 209 OFFCURVE",
"354 254 OFFCURVE",
"354 312 CURVE SMOOTH",
"354 391 OFFCURVE",
"296 438 OFFCURVE",
"199 438 CURVE SMOOTH",
"98 438 OFFCURVE",
"41 387 OFFCURVE",
"41 307 CURVE SMOOTH",
"41 233 OFFCURVE",
"80 186 OFFCURVE",
"191 157 CURVE SMOOTH",
"277 135 OFFCURVE",
"305 110 OFFCURVE",
"305 59 CURVE SMOOTH",
"305 6 OFFCURVE",
"269 -25 OFFCURVE",
"201 -25 CURVE SMOOTH",
"127 -25 OFFCURVE",
"89 7 OFFCURVE",
"89 64 CURVE SMOOTH",
"89 113 OFFCURVE",
"118 153 OFFCURVE",
"174 171 CURVE",
"127 191 LINE",
"63 168 OFFCURVE",
"26 121 OFFCURVE",
"26 58 CURVE SMOOTH",
"26 -24 OFFCURVE",
"84 -74 OFFCURVE",
"200 -74 CURVE SMOOTH"
);
}
);
width = 394;
}
);
userData = {
com.typemytype.robofont.layerData = {
};
};
},
{
glyphname = nine.dnom;
lastChange = "2016-12-22 13:06:28 +0000";
layers = (
{
color = -1;
layerId = "A5DE6A3D-57BF-416A-9BB2-6BD11ABBF04E";
paths = (
{
closed = 1;
nodes = (
"274 -74 OFFCURVE",
"350 12 OFFCURVE",
"350 198 CURVE SMOOTH",
"350 373 OFFCURVE",
"279 438 OFFCURVE",
"176 438 CURVE SMOOTH",
"86 438 OFFCURVE",
"23 386 OFFCURVE",
"23 288 CURVE SMOOTH",
"23 188 OFFCURVE",
"87 141 OFFCURVE",
"173 141 CURVE SMOOTH",
"222 141 OFFCURVE",
"270 159 OFFCURVE",
"297 187 CURVE",
"297 240 LINE",
"269 206 OFFCURVE",
"224 192 OFFCURVE",
"186 192 CURVE SMOOTH",
"124 192 OFFCURVE",
"85 222 OFFCURVE",
"85 290 CURVE SMOOTH",
"85 358 OFFCURVE",
"123 387 OFFCURVE",
"176 387 CURVE SMOOTH",
"241 387 OFFCURVE",
"284 344 OFFCURVE",
"284 210 CURVE SMOOTH",
"284 183 LINE SMOOTH",
"284 39 OFFCURVE",
"234 -20 OFFCURVE",
"134 -20 CURVE SMOOTH",
"105 -20 OFFCURVE",
"73 -16 OFFCURVE",
"47 -5 CURVE",
"47 -60 LINE",
"73 -70 OFFCURVE",
"105 -74 OFFCURVE",
"137 -74 CURVE SMOOTH"
);
}
);
width = 394;
}
);
userData = {
com.typemytype.robofont.layerData = {
};
};
},
{
glyphname = zero.numr;
lastChange = "2016-12-22 13:06:28 +0000";
layers = (
{
color = -1;
layerId = "A5DE6A3D-57BF-416A-9BB2-6BD11ABBF04E";
paths = (
{
closed = 1;
nodes = (
"297 302 OFFCURVE",
"362 369 OFFCURVE",
"362 558 CURVE SMOOTH",
"362 747 OFFCURVE",
"295 814 OFFCURVE",
"197 814 CURVE SMOOTH",
"99 814 OFFCURVE",
"32 747 OFFCURVE",
"32 558 CURVE SMOOTH",
"32 369 OFFCURVE",
"98 302 OFFCURVE",
"197 302 CURVE SMOOTH"
);
},
{
closed = 1;
nodes = (
"137 358 OFFCURVE",
"98 400 OFFCURVE",
"98 558 CURVE SMOOTH",
"98 717 OFFCURVE",
"139 758 OFFCURVE",
"197 758 CURVE SMOOTH",
"256 758 OFFCURVE",
"296 717 OFFCURVE",
"296 558 CURVE SMOOTH",
"296 398 OFFCURVE",
"257 358 OFFCURVE",
"197 358 CURVE SMOOTH"
);
}
);
width = 394;
}
);
userData = {
com.typemytype.robofont.layerData = {
};
};
},
{
glyphname = one.numr;
lastChange = "2016-12-22 13:06:28 +0000";
layers = (
{
color = -1;
layerId = "A5DE6A3D-57BF-416A-9BB2-6BD11ABBF04E";
paths = (
{
closed = 1;
nodes = (
"251 319 LINE",
"251 810 LINE",
"208 810 LINE",
"69 712 LINE",
"69 649 LINE",
"208 746 LINE",
"185 764 LINE",
"185 319 LINE"
);
},
{
closed = 1;
nodes = (
"360 308 LINE",
"360 365 LINE",
"70 365 LINE",
"70 308 LINE"
);
}
);
width = 394;
}
);
userData = {
com.typemytype.robofont.layerData = {
};
};
},
{
glyphname = two.numr;
lastChange = "2016-12-22 13:06:28 +0000";
layers = (
{
color = -1;
layerId = "A5DE6A3D-57BF-416A-9BB2-6BD11ABBF04E";
paths = (
{
closed = 1;
nodes = (
"351 308 LINE",
"351 365 LINE",
"117 365 LINE",
"121 347 LINE",
"248 507 LINE SMOOTH",
"305 578 OFFCURVE",
"327 625 OFFCURVE",
"327 678 CURVE SMOOTH",
"328 773 OFFCURVE",
"267 814 OFFCURVE",
"159 814 CURVE SMOOTH",
"115 814 OFFCURVE",
"70 808 OFFCURVE",
"39 795 CURVE",
"39 738 LINE",
"72 751 OFFCURVE",
"110 758 OFFCURVE",
"152 758 CURVE SMOOTH",
"225 758 OFFCURVE",
"260 732 OFFCURVE",
"260 672 CURVE SMOOTH",
"260 632 OFFCURVE",
"241 593 OFFCURVE",
"191 531 CURVE SMOOTH",
"45 345 LINE",
"45 308 LINE"
);
}
);
width = 394;
}
);
userData = {
com.typemytype.robofont.layerData = {
};
};
},
{
glyphname = three.numr;
lastChange = "2016-12-22 13:06:28 +0000";
layers = (
{
color = -1;
layerId = "A5DE6A3D-57BF-416A-9BB2-6BD11ABBF04E";
paths = (
{
closed = 1;
nodes = (
"288 302 OFFCURVE",
"353 354 OFFCURVE",
"353 444 CURVE SMOOTH",
"353 515 OFFCURVE",
"308 560 OFFCURVE",
"227 571 CURVE",
"227 564 LINE",
"294 578 OFFCURVE",
"336 622 OFFCURVE",
"336 686 CURVE SMOOTH",
"336 768 OFFCURVE",
"277 814 OFFCURVE",
"167 814 CURVE SMOOTH",
"125 814 OFFCURVE",
"79 808 OFFCURVE",
"47 796 CURVE",
"47 742 LINE",
"83 755 OFFCURVE",
"123 761 OFFCURVE",
"161 761 CURVE SMOOTH",
"234 761 OFFCURVE",
"271 733 OFFCURVE",
"271 681 CURVE SMOOTH",
"271 624 OFFCURVE",
"227 591 OFFCURVE",
"140 591 CURVE SMOOTH",
"98 591 LINE",
"98 537 LINE",
"166 537 LINE SMOOTH",
"251 537 OFFCURVE",
"289 504 OFFCURVE",
"289 448 CURVE SMOOTH",
"289 387 OFFCURVE",
"247 355 OFFCURVE",
"160 355 CURVE SMOOTH",
"121 355 OFFCURVE",
"76 361 OFFCURVE",
"35 375 CURVE",
"35 320 LINE",
"74 308 OFFCURVE",
"119 302 OFFCURVE",
"162 302 CURVE SMOOTH"
);
}
);
width = 394;
}
);
userData = {
com.typemytype.robofont.layerData = {
};
};
},
{
glyphname = four.numr;
lastChange = "2016-12-22 13:06:28 +0000";
layers = (
{
color = -1;
layerId = "A5DE6A3D-57BF-416A-9BB2-6BD11ABBF04E";
paths = (
{
closed = 1;
nodes = (
"381 424 LINE",
"381 478 LINE",
"72 478 LINE",
"80 461 LINE",
"260 808 LINE",
"196 808 LINE",
"15 461 LINE",
"15 424 LINE"
);
},
{
closed = 1;
nodes = (
"313 308 LINE",
"313 639 LINE",
"265 639 LINE",
"252 478 LINE",
"252 308 LINE"
);
}
);
width = 394;
}
);
userData = {
com.typemytype.robofont.layerData = {
};
};
},
{
glyphname = five.numr;
lastChange = "2016-12-22 13:06:28 +0000";
layers = (
{
color = -1;
layerId = "A5DE6A3D-57BF-416A-9BB2-6BD11ABBF04E";
paths = (
{
closed = 1;
nodes = (
"293 302 OFFCURVE",
"359 354 OFFCURVE",
"359 452 CURVE SMOOTH",
"359 544 OFFCURVE",
"297 591 OFFCURVE",
"150 600 CURVE SMOOTH",
"86 603 LINE",
"125 576 LINE",
"139 782 LINE",
"111 754 LINE",
"338 754 LINE",
"338 808 LINE",
"78 808 LINE",
"61 551 LINE",
"131 547 LINE SMOOTH",
"253 540 OFFCURVE",
"295 511 OFFCURVE",
"295 449 CURVE SMOOTH",
"295 387 OFFCURVE",
"253 355 OFFCURVE",
"167 355 CURVE SMOOTH",
"127 355 OFFCURVE",
"81 362 OFFCURVE",
"42 375 CURVE",
"42 321 LINE",
"79 309 OFFCURVE",
"124 302 OFFCURVE",
"168 302 CURVE SMOOTH"
);
}
);
width = 394;
}
);
userData = {
com.typemytype.robofont.layerData = {
};
};
},
{
glyphname = six.numr;
lastChange = "2016-12-22 13:06:28 +0000";
layers = (
{
color = -1;
layerId = "A5DE6A3D-57BF-416A-9BB2-6BD11ABBF04E";
paths = (
{
closed = 1;
nodes = (
"309 302 OFFCURVE",
"371 354 OFFCURVE",
"371 452 CURVE SMOOTH",
"371 552 OFFCURVE",
"308 599 OFFCURVE",
"221 599 CURVE SMOOTH",
"172 599 OFFCURVE",
"124 581 OFFCURVE",
"97 553 CURVE",
"97 500 LINE",
"125 534 OFFCURVE",
"170 548 OFFCURVE",
"208 548 CURVE SMOOTH",
"270 548 OFFCURVE",
"310 518 OFFCURVE",
"310 450 CURVE SMOOTH",
"310 382 OFFCURVE",
"271 353 OFFCURVE",
"219 353 CURVE SMOOTH",
"153 353 OFFCURVE",
"110 396 OFFCURVE",
"110 530 CURVE SMOOTH",
"110 557 LINE SMOOTH",
"110 701 OFFCURVE",
"160 760 OFFCURVE",
"260 760 CURVE SMOOTH",
"289 760 OFFCURVE",
"321 756 OFFCURVE",
"347 745 CURVE",
"347 800 LINE",
"321 810 OFFCURVE",
"289 814 OFFCURVE",
"257 814 CURVE SMOOTH",
"120 814 OFFCURVE",
"44 728 OFFCURVE",
"44 542 CURVE SMOOTH",
"44 367 OFFCURVE",
"115 302 OFFCURVE",
"220 302 CURVE SMOOTH"
);
}
);
width = 394;
}
);
userData = {
com.typemytype.robofont.layerData = {
};
};
},
{
glyphname = seven.numr;
lastChange = "2016-12-22 13:06:28 +0000";
layers = (
{
color = -1;
layerId = "A5DE6A3D-57BF-416A-9BB2-6BD11ABBF04E";
paths = (
{
closed = 1;
nodes = (
"155 308 LINE",
"352 771 LINE",
"352 808 LINE",
"26 808 LINE",
"26 751 LINE",
"307 751 LINE",
"285 772 LINE",
"85 308 LINE"
);
}
);
width = 394;
}
);
userData = {
com.typemytype.robofont.layerData = {
};
};
},
{
glyphname = eight.numr;
lastChange = "2016-12-22 13:06:28 +0000";
layers = (
{
color = -1;
layerId = "A5DE6A3D-57BF-416A-9BB2-6BD11ABBF04E";
paths = (
{
closed = 1;
nodes = (
"309 302 OFFCURVE",
"368 357 OFFCURVE",
"368 439 CURVE SMOOTH",
"368 511 OFFCURVE",
"330 554 OFFCURVE",
"219 584 CURVE SMOOTH",
"128 608 OFFCURVE",
"104 635 OFFCURVE",
"104 685 CURVE SMOOTH",
"104 734 OFFCURVE",
"136 765 OFFCURVE",
"198 765 CURVE SMOOTH",
"259 765 OFFCURVE",
"294 736 OFFCURVE",
"294 683 CURVE SMOOTH",
"294 634 OFFCURVE",
"271 604 OFFCURVE",
"217 577 CURVE",
"261 558 LINE",
"324 585 OFFCURVE",
"354 630 OFFCURVE",
"354 688 CURVE SMOOTH",
"354 767 OFFCURVE",
"296 814 OFFCURVE",
"199 814 CURVE SMOOTH",
"98 814 OFFCURVE",
"41 763 OFFCURVE",
"41 683 CURVE SMOOTH",
"41 609 OFFCURVE",
"80 562 OFFCURVE",
"191 533 CURVE SMOOTH",
"277 511 OFFCURVE",
"305 486 OFFCURVE",
"305 435 CURVE SMOOTH",
"305 382 OFFCURVE",
"269 351 OFFCURVE",
"201 351 CURVE SMOOTH",
"127 351 OFFCURVE",
"89 383 OFFCURVE",
"89 440 CURVE SMOOTH",
"89 489 OFFCURVE",
"118 529 OFFCURVE",
"174 547 CURVE",
"127 567 LINE",
"63 544 OFFCURVE",
"26 497 OFFCURVE",
"26 434 CURVE SMOOTH",
"26 352 OFFCURVE",
"84 302 OFFCURVE",
"200 302 CURVE SMOOTH"
);
}
);
width = 394;
}
);
userData = {
com.typemytype.robofont.layerData = {
};
};
},
{
glyphname = nine.numr;
lastChange = "2016-12-22 13:06:28 +0000";
layers = (
{
color = -1;
layerId = "A5DE6A3D-57BF-416A-9BB2-6BD11ABBF04E";
paths = (
{
closed = 1;
nodes = (
"274 302 OFFCURVE",
"350 388 OFFCURVE",
"350 574 CURVE SMOOTH",
"350 749 OFFCURVE",
"279 814 OFFCURVE",
"176 814 CURVE SMOOTH",
"86 814 OFFCURVE",
"23 762 OFFCURVE",
"23 664 CURVE SMOOTH",
"23 564 OFFCURVE",
"87 517 OFFCURVE",
"173 517 CURVE SMOOTH",
"222 517 OFFCURVE",
"270 535 OFFCURVE",
"297 563 CURVE",
"297 616 LINE",
"269 582 OFFCURVE",
"224 568 OFFCURVE",
"186 568 CURVE SMOOTH",
"124 568 OFFCURVE",
"85 598 OFFCURVE",
"85 666 CURVE SMOOTH",
"85 734 OFFCURVE",
"123 763 OFFCURVE",
"176 763 CURVE SMOOTH",
"241 763 OFFCURVE",
"284 720 OFFCURVE",
"284 586 CURVE SMOOTH",
"284 559 LINE SMOOTH",
"284 415 OFFCURVE",
"234 356 OFFCURVE",
"134 356 CURVE SMOOTH",
"105 356 OFFCURVE",
"73 360 OFFCURVE",
"47 371 CURVE",
"47 316 LINE",
"73 306 OFFCURVE",
"105 302 OFFCURVE",
"137 302 CURVE SMOOTH"
);
}
);
width = 394;
}
);
userData = {
com.typemytype.robofont.layerData = {
};
};
},
{
glyphname = fraction;
lastChange = "2016-12-22 13:06:28 +0000";
layers = (
{
color = -1;
layerId = "A5DE6A3D-57BF-416A-9BB2-6BD11ABBF04E";
paths = (
{
closed = 1;
nodes = (
"-95 -68 LINE",
"302 808 LINE",
"233 808 LINE",
"-164 -68 LINE"
);
}
);
width = 138;
}
);
unicode = 2044;
userData = {
com.typemytype.robofont.layerData = {
};
};
},
{
glyphname = asterisk;
lastChange = "2016-12-22 13:06:28 +0000";
layers = (
{
color = -1;
layerId = "A5DE6A3D-57BF-416A-9BB2-6BD11ABBF04E";
paths = (
{
closed = 1;
nodes = (
"357 611 LINE",
"444 639 LINE",
"426 695 LINE",
"339 667 LINE",
"248 625 LINE",
"259 725 LINE",
"259 808 LINE",
"200 808 LINE",
"200 725 LINE",
"212 625 LINE",
"120 667 LINE",
"33 695 LINE",
"15 639 LINE",
"102 611 LINE",
"200 591 LINE",
"132 517 LINE",
"81 448 LINE",
"130 413 LINE",
"180 482 LINE",
"230 571 LINE",
"279 482 LINE",
"330 413 LINE",
"378 448 LINE",
"327 517 LINE",
"260 591 LINE"
);
}
);
width = 459;
}
);
leftKerningGroup = asterisk;
rightKerningGroup = asterisk;
unicode = 002A;
userData = {
com.typemytype.robofont.layerData = {
};
};
},
{
glyphname = backslash;
lastChange = "2016-12-22 13:06:28 +0000";
layers = (
{
color = -1;
layerId = "A5DE6A3D-57BF-416A-9BB2-6BD11ABBF04E";
paths = (
{
closed = 1;
nodes = (
"310 -120 LINE",
"80 808 LINE",
"0 808 LINE",
"229 -120 LINE"
);
}
);
width = 310;
}
);
unicode = 005C;
userData = {
com.typemytype.robofont.layerData = {
};
};
},
{
glyphname = periodcentered;
lastChange = "2016-12-22 13:06:28 +0000";
layers = (
{
anchors = (
{
name = _periodcentered;
position = "{115, 280}";
}
);
color = -1;
layerId = "A5DE6A3D-57BF-416A-9BB2-6BD11ABBF04E";
paths = (
{
closed = 1;
nodes = (
"150 224 OFFCURVE",
"173 246 OFFCURVE",
"173 279 CURVE SMOOTH",
"173 313 OFFCURVE",
"150 335 OFFCURVE",
"115 335 CURVE SMOOTH",
"80 335 OFFCURVE",
"58 313 OFFCURVE",
"58 279 CURVE SMOOTH",
"58 245 OFFCURVE",
"81 224 OFFCURVE",
"115 224 CURVE SMOOTH"
);
}
);
width = 230;
}
);
leftKerningGroup = hyphen;
leftMetricsKey = period;
widthMetricsKey = period;
rightKerningGroup = hyphen;
unicode = 00B7;
userData = {
com.typemytype.robofont.layerData = {
};
};
},
{
glyphname = bullet;
lastChange = "2016-12-22 13:06:35 +0000";
layers = (
{
color = -1;
layerId = "A5DE6A3D-57BF-416A-9BB2-6BD11ABBF04E";
paths = (
{
closed = 1;
nodes = (
"245 160 OFFCURVE",
"298 210 OFFCURVE",
"298 280 CURVE SMOOTH",
"298 350 OFFCURVE",
"245 400 OFFCURVE",
"178 400 CURVE SMOOTH",
"111 400 OFFCURVE",
"58 350 OFFCURVE",
"58 280 CURVE SMOOTH",
"58 210 OFFCURVE",
"111 160 OFFCURVE",
"178 160 CURVE SMOOTH"
);
}
);
width = 355;
}
);
leftKerningGroup = hyphen;
leftMetricsKey = period;
rightKerningGroup = hyphen;
rightMetricsKey = period;
unicode = 2022;
userData = {
com.typemytype.robofont.layerData = {
};
};
},
{
glyphname = comma;
lastChange = "2016-12-22 13:06:28 +0000";
layers = (
{
color = -1;
layerId = "A5DE6A3D-57BF-416A-9BB2-6BD11ABBF04E";
paths = (
{
closed = 1;
nodes = (
"122 -158 LINE",
"152 -105 OFFCURVE",
"173 -37 OFFCURVE",
"173 32 CURVE SMOOTH",
"173 82 OFFCURVE",
"151 105 OFFCURVE",
"114 105 CURVE SMOOTH",
"80 105 OFFCURVE",
"58 83 OFFCURVE",
"58 50 CURVE SMOOTH",
"58 16 OFFCURVE",
"81 -6 OFFCURVE",
"115 -6 CURVE SMOOTH",
"126 -6 LINE",
"112 11 LINE",
"112 -44 OFFCURVE",
"98 -96 OFFCURVE",
"75 -158 CURVE"
);
}
);
width = 230;
}
);
leftKerningGroup = period;
leftMetricsKey = period;
widthMetricsKey = period;
rightKerningGroup = period;
unicode = 002C;
userData = {
com.typemytype.robofont.layerData = {
};
};
},
{
glyphname = exclam;
lastChange = "2016-12-22 13:06:28 +0000";
layers = (
{
color = -1;
layerId = "A5DE6A3D-57BF-416A-9BB2-6BD11ABBF04E";
paths = (
{
closed = 1;
nodes = (
"151 186 LINE",
"168 459 LINE",
"168 740 LINE",
"83 740 LINE",
"83 459 LINE",
"100 186 LINE"
);
},
{
closed = 1;
nodes = (
"160 -6 OFFCURVE",
"183 15 OFFCURVE",
"183 47 CURVE SMOOTH",
"183 80 OFFCURVE",
"160 102 OFFCURVE",
"125 102 CURVE SMOOTH",
"90 102 OFFCURVE",
"68 80 OFFCURVE",
"68 47 CURVE SMOOTH",
"68 14 OFFCURVE",
"91 -6 OFFCURVE",
"125 -6 CURVE SMOOTH"
);
}
);
width = 250;
}
);
leftKerningGroup = l;
leftMetricsKey = "=period+10";
widthMetricsKey = "=period+20";
rightKerningGroup = l;
unicode = 0021;
userData = {
com.typemytype.robofont.layerData = {
};
};
},
{
glyphname = exclamdown;
lastChange = "2016-12-22 13:06:28 +0000";
layers = (
{
color = -1;
layerId = "A5DE6A3D-57BF-416A-9BB2-6BD11ABBF04E";
paths = (
{
closed = 1;
nodes = (
"83 82 LINE",
"83 -190 LINE",
"168 -190 LINE",
"168 82 LINE",
"151 353 LINE",
"100 353 LINE"
);
},
{
closed = 1;
nodes = (
"91 549 OFFCURVE",
"68 528 OFFCURVE",
"68 494 CURVE SMOOTH",
"68 460 OFFCURVE",
"90 438 OFFCURVE",
"125 438 CURVE SMOOTH",
"160 438 OFFCURVE",
"183 460 OFFCURVE",
"183 494 CURVE SMOOTH",
"183 527 OFFCURVE",
"160 549 OFFCURVE",
"125 549 CURVE SMOOTH"
);
}
);
width = 250;
}
);
leftKerningGroup = n;
leftMetricsKey = exclam;
widthMetricsKey = exclam;
rightKerningGroup = u;
unicode = 00A1;
userData = {
com.typemytype.robofont.layerData = {
};
};
},
{
glyphname = numbersign;
lastChange = "2016-12-22 13:06:28 +0000";
layers = (
{
color = -1;
layerId = "A5DE6A3D-57BF-416A-9BB2-6BD11ABBF04E";
paths = (
{
closed = 1;
nodes = (
"378 0 LINE",
"455 740 LINE",
"389 740 LINE",
"312 0 LINE"
);
},
{
closed = 1;
nodes = (
"528 229 LINE",
"528 294 LINE",
"50 294 LINE",
"50 229 LINE"
);
},
{
closed = 1;
nodes = (
"188.993 0 LINE",
"265.993 740 LINE",
"200 740 LINE",
"123 0 LINE"
);
},
{
closed = 1;
nodes = (
"528 446 LINE",
"528 511 LINE",
"50 511 LINE",
"50 446 LINE"
);
}
);
width = 578;
}
);
leftKerningGroup = numbersign;
widthMetricsKey = zero.tf;
rightKerningGroup = numbersign;
unicode = 0023;
userData = {
com.typemytype.robofont.layerData = {
};
};
},
{
glyphname = period;
lastChange = "2016-12-22 13:06:28 +0000";
layers = (
{
color = -1;
layerId = "A5DE6A3D-57BF-416A-9BB2-6BD11ABBF04E";
paths = (
{
closed = 1;
nodes = (
"150 -6 OFFCURVE",
"173 15 OFFCURVE",
"173 49 CURVE SMOOTH",
"173 83 OFFCURVE",
"150 105 OFFCURVE",
"115 105 CURVE SMOOTH",
"80 105 OFFCURVE",
"58 83 OFFCURVE",
"58 49 CURVE SMOOTH",
"58 15 OFFCURVE",
"81 -6 OFFCURVE",
"115 -6 CURVE SMOOTH"
);
}
);
width = 230;
}
);
leftKerningGroup = period;
rightKerningGroup = period;
unicode = 002E;
userData = {
com.typemytype.robofont.layerData = {
};
};
},
{
glyphname = question;
lastChange = "2016-12-22 13:06:28 +0000";
layers = (
{
color = -1;
layerId = "A5DE6A3D-57BF-416A-9BB2-6BD11ABBF04E";
paths = (
{
closed = 1;
nodes = (
"228 180 LINE",
"236 341 LINE",
"369 391 OFFCURVE",
"422 455 OFFCURVE",
"422 561 CURVE SMOOTH",
"422 681 OFFCURVE",
"340 749 OFFCURVE",
"188 749 CURVE SMOOTH",
"129 749 OFFCURVE",
"66 739 OFFCURVE",
"19 722 CURVE",
"19 655 LINE",
"71 674 OFFCURVE",
"126 683 OFFCURVE",
"181 683 CURVE SMOOTH",
"288 683 OFFCURVE",
"343 638 OFFCURVE",
"343 556 CURVE SMOOTH",
"343 475 OFFCURVE",
"300 425 OFFCURVE",
"163 383 CURVE",
"177 180 LINE"
);
},
{
closed = 1;
nodes = (
"238 -6 OFFCURVE",
"260 16 OFFCURVE",
"260 47 CURVE SMOOTH",
"260 80 OFFCURVE",
"238 102 OFFCURVE",
"203 102 CURVE SMOOTH",
"168 102 OFFCURVE",
"145 80 OFFCURVE",
"145 47 CURVE SMOOTH",
"145 15 OFFCURVE",
"168 -6 OFFCURVE",
"203 -6 CURVE SMOOTH"
);
}
);
width = 452;
}
);
leftKerningGroup = question;
rightKerningGroup = question;
unicode = 003F;
userData = {
com.typemytype.robofont.layerData = {
};
};
},
{
glyphname = questiondown;
lastChange = "2016-12-22 13:06:35 +0000";
layers = (
{
color = -1;
layerId = "A5DE6A3D-57BF-416A-9BB2-6BD11ABBF04E";
paths = (
{
closed = 1;
nodes = (
"224 362 LINE",
"217 201 LINE",
"83 151 OFFCURVE",
"30 87 OFFCURVE",
"30 -15 CURVE SMOOTH",
"30 -131 OFFCURVE",
"112 -200 OFFCURVE",
"264 -200 CURVE SMOOTH",
"323 -200 OFFCURVE",
"386 -190 OFFCURVE",
"433 -173 CURVE",
"433 -105 LINE",
"381 -124 OFFCURVE",
"326 -133 OFFCURVE",
"271 -133 CURVE SMOOTH",
"164 -133 OFFCURVE",
"110 -89 OFFCURVE",
"110 -10 CURVE SMOOTH",
"110 68 OFFCURVE",
"153 117 OFFCURVE",
"289 159 CURVE",
"275 362 LINE"
);
},
{
closed = 1;
nodes = (
"215 549 OFFCURVE",
"192 527 OFFCURVE",
"192 495 CURVE SMOOTH",
"192 463 OFFCURVE",
"215 441 OFFCURVE",
"250 441 CURVE SMOOTH",
"285 441 OFFCURVE",
"307 462 OFFCURVE",
"307 495 CURVE SMOOTH",
"307 527 OFFCURVE",
"284 549 OFFCURVE",
"250 549 CURVE SMOOTH"
);
}
);
width = 452;
}
);
leftMetricsKey = "=|question";
widthMetricsKey = question;
unicode = 00BF;
userData = {
com.typemytype.robofont.layerData = {
};
};
},
{
glyphname = quotesingle;
lastChange = "2016-12-22 13:06:28 +0000";
layers = (
{
color = -1;
layerId = "A5DE6A3D-57BF-416A-9BB2-6BD11ABBF04E";
paths = (
{
closed = 1;
nodes = (
"129 458 LINE",
"146 808 LINE",
"63 808 LINE",
"80 458 LINE"
);
}
);
width = 209;
}
);
leftKerningGroup = quotesingle;
rightKerningGroup = quotesingle;
unicode = 0027;
},
{
glyphname = slash;
lastChange = "2016-12-22 13:06:28 +0000";
layers = (
{
color = -1;
layerId = "A5DE6A3D-57BF-416A-9BB2-6BD11ABBF04E";
paths = (
{
closed = 1;
nodes = (
"79 -120 LINE",
"308 808 LINE",
"229 808 LINE",
"0 -120 LINE"
);
}
);
width = 308;
}
);
leftKerningGroup = slash;
rightKerningGroup = slash;
unicode = 002F;
userData = {
com.typemytype.robofont.layerData = {
};
};
},
{
glyphname = underscore;
lastChange = "2016-12-22 13:06:28 +0000";
layers = (
{
color = -1;
layerId = "A5DE6A3D-57BF-416A-9BB2-6BD11ABBF04E";
paths = (
{
closed = 1;
nodes = (
"515 -66 LINE",
"515 0 LINE",
"46 0 LINE",
"46 -66 LINE"
);
}
);
width = 561;
}
);
leftKerningGroup = period;
rightKerningGroup = period;
unicode = 005F;
userData = {
com.typemytype.robofont.layerData = {
};
};
},
{
glyphname = periodcentered.CAT;
lastChange = "2016-12-22 13:06:28 +0000";
layers = (
{
anchors = (
{
name = _periodcentered;
position = "{113, 303}";
}
);
color = -1;
layerId = "A5DE6A3D-57BF-416A-9BB2-6BD11ABBF04E";
paths = (
{
closed = 1;
nodes = (
"149 252 OFFCURVE",
"168 271 OFFCURVE",
"168 303 CURVE SMOOTH",
"168 334 OFFCURVE",
"149 354 OFFCURVE",
"113 354 CURVE SMOOTH",
"77 354 OFFCURVE",
"57 334 OFFCURVE",
"57 303 CURVE SMOOTH",
"57 271 OFFCURVE",
"77 252 OFFCURVE",
"113 252 CURVE SMOOTH"
);
}
);
width = 225;
}
);
userData = {
com.typemytype.robofont.layerData = {
};
};
},
{
color = 1;
glyphname = periodcentered.tf;
lastChange = "2016-12-22 13:06:28 +0000";
layers = (
{
color = -1;
layerId = "A5DE6A3D-57BF-416A-9BB2-6BD11ABBF04E";
paths = (
{
closed = 1;
nodes = (
"179 224 OFFCURVE",
"202 246 OFFCURVE",
"202 279 CURVE SMOOTH",
"202 313 OFFCURVE",
"179 335 OFFCURVE",
"145 335 CURVE SMOOTH",
"110 335 OFFCURVE",
"87 313 OFFCURVE",
"87 279 CURVE SMOOTH",
"87 245 OFFCURVE",
"110 224 OFFCURVE",
"145 224 CURVE SMOOTH"
);
}
);
width = 289;
}
);
widthMetricsKey = "=zero.tf*0.5";
},
{
color = 1;
glyphname = colon.tf;
lastChange = "2016-12-22 13:06:28 +0000";
layers = (
{
color = -1;
layerId = "A5DE6A3D-57BF-416A-9BB2-6BD11ABBF04E";
paths = (
{
closed = 1;
nodes = (
"179 -6 OFFCURVE",
"202 15 OFFCURVE",
"202 49 CURVE SMOOTH",
"202 83 OFFCURVE",
"179 105 OFFCURVE",
"145 105 CURVE SMOOTH",
"110 105 OFFCURVE",
"87 83 OFFCURVE",
"87 49 CURVE SMOOTH",
"87 15 OFFCURVE",
"110 -6 OFFCURVE",
"145 -6 CURVE SMOOTH"
);
},
{
closed = 1;
nodes = (
"179 438 OFFCURVE",
"202 459 OFFCURVE",
"202 493 CURVE SMOOTH",
"202 526 OFFCURVE",
"179 549 OFFCURVE",
"145 549 CURVE SMOOTH",
"110 549 OFFCURVE",
"87 527 OFFCURVE",
"87 493 CURVE SMOOTH",
"87 459 OFFCURVE",
"110 438 OFFCURVE",
"145 438 CURVE SMOOTH"
);
}
);
width = 289;
}
);
widthMetricsKey = "=zero.tf*0.5";
},
{
color = 1;
glyphname = comma.tf;
lastChange = "2016-12-22 13:06:28 +0000";
layers = (
{
color = -1;
layerId = "A5DE6A3D-57BF-416A-9BB2-6BD11ABBF04E";
paths = (
{
closed = 1;
nodes = (
"152 -150 LINE",
"181 -101 OFFCURVE",
"202 -33 OFFCURVE",
"202 32 CURVE SMOOTH",
"202 82 OFFCURVE",
"180 105 OFFCURVE",
"143 105 CURVE SMOOTH",
"109 105 OFFCURVE",
"87 83 OFFCURVE",
"87 50 CURVE SMOOTH",
"87 16 OFFCURVE",
"111 -6 OFFCURVE",
"145 -6 CURVE SMOOTH",
"156 -6 LINE",
"142 11 LINE",
"142 -40 OFFCURVE",
"128 -92 OFFCURVE",
"105 -150 CURVE"
);
}
);
width = 289;
}
);
widthMetricsKey = "=zero.tf*0.5";
},
{
color = 1;
glyphname = period.tf;
lastChange = "2016-12-22 13:06:28 +0000";
layers = (
{
color = -1;
layerId = "A5DE6A3D-57BF-416A-9BB2-6BD11ABBF04E";
paths = (
{
closed = 1;
nodes = (
"179 -6 OFFCURVE",
"202 15 OFFCURVE",
"202 49 CURVE SMOOTH",
"202 83 OFFCURVE",
"179 105 OFFCURVE",
"145 105 CURVE SMOOTH",
"110 105 OFFCURVE",
"87 83 OFFCURVE",
"87 49 CURVE SMOOTH",
"87 15 OFFCURVE",
"110 -6 OFFCURVE",
"145 -6 CURVE SMOOTH"
);
}
);
width = 289;
}
);
widthMetricsKey = "=zero.tf*0.5";
},
{
color = 1;
glyphname = quotedbl.tf;
lastChange = "2016-12-22 13:06:28 +0000";
layers = (
{
color = -1;
layerId = "A5DE6A3D-57BF-416A-9BB2-6BD11ABBF04E";
paths = (
{
closed = 1;
nodes = (
"97 458 LINE",
"111 808 LINE",
"48 808 LINE",
"61 458 LINE"
);
},
{
closed = 1;
nodes = (
"227 458 LINE",
"240 808 LINE",
"177 808 LINE",
"191 458 LINE"
);
}
);
width = 289;
}
);
widthMetricsKey = "=zero.tf*0.5";
},
{
color = 1;
glyphname = quotesingle.tf;
lastChange = "2016-12-22 13:06:28 +0000";
layers = (
{
color = -1;
layerId = "A5DE6A3D-57BF-416A-9BB2-6BD11ABBF04E";
paths = (
{
closed = 1;
nodes = (
"169 458 LINE",
"186 808 LINE",
"103.008 808 LINE",
"120 458 LINE"
);
}
);
width = 289;
}
);
widthMetricsKey = "=zero.tf*0.5";
},
{
color = 1;
glyphname = semicolon.tf;
lastChange = "2016-12-22 13:06:28 +0000";
layers = (
{
color = -1;
layerId = "A5DE6A3D-57BF-416A-9BB2-6BD11ABBF04E";
paths = (
{
closed = 1;
nodes = (
"153 -151 LINE",
"181 -101 OFFCURVE",
"202 -34 OFFCURVE",
"202 32 CURVE SMOOTH",
"202 82 OFFCURVE",
"180 105 OFFCURVE",
"143 105 CURVE SMOOTH",
"109 105 OFFCURVE",
"87 83 OFFCURVE",
"87 50 CURVE SMOOTH",
"87 16 OFFCURVE",
"111 -6 OFFCURVE",
"145 -6 CURVE SMOOTH",
"156 -6 LINE",
"142 11 LINE",
"142 -40 OFFCURVE",
"127 -92 OFFCURVE",
"104 -151 CURVE"
);
},
{
closed = 1;
nodes = (
"179 438 OFFCURVE",
"202 459 OFFCURVE",
"202 493 CURVE SMOOTH",
"202 526 OFFCURVE",
"179 549 OFFCURVE",
"145 549 CURVE SMOOTH",
"110 549 OFFCURVE",
"87 527 OFFCURVE",
"87 493 CURVE SMOOTH",
"87 459 OFFCURVE",
"110 438 OFFCURVE",
"145 438 CURVE SMOOTH"
);
}
);
width = 289;
}
);
leftKerningGroup = colon;
widthMetricsKey = "=zero.tf*0.5";
rightKerningGroup = colon;
},
{
color = 1;
glyphname = slash.tf;
lastChange = "2016-12-22 13:06:28 +0000";
layers = (
{
color = -1;
layerId = "A5DE6A3D-57BF-416A-9BB2-6BD11ABBF04E";
paths = (
{
closed = 1;
nodes = (
"214 -120 LINE",
"443 808 LINE",
"364 808 LINE",
"135 -120 LINE"
);
}
);
width = 578;
}
);
widthMetricsKey = zero.tf;
},
{
color = 1;
glyphname = underscore.tf;
lastChange = "2016-12-22 13:06:28 +0000";
layers = (
{
color = -1;
layerId = "A5DE6A3D-57BF-416A-9BB2-6BD11ABBF04E";
paths = (
{
closed = 1;
nodes = (
"532 -66 LINE",
"532 0 LINE",
"46 0 LINE",
"46 -66 LINE"
);
}
);
width = 578;
}
);
widthMetricsKey = zero.tf;
},
{
glyphname = braceleft;
lastChange = "2016-12-22 13:06:28 +0000";
layers = (
{
color = -1;
layerId = "A5DE6A3D-57BF-416A-9BB2-6BD11ABBF04E";
paths = (
{
closed = 1;
nodes = (
"323 -230 OFFCURVE",
"348 -228 OFFCURVE",
"367 -224 CURVE",
"367 -162 LINE",
"305 -162 LINE SMOOTH",
"230 -162 OFFCURVE",
"193 -131 OFFCURVE",
"193 -56 CURVE SMOOTH",
"193 191 LINE SMOOTH",
"193 267 OFFCURVE",
"162 308 OFFCURVE",
"89 318 CURVE",
"89 307 LINE",
"162 317 OFFCURVE",
"193 357 OFFCURVE",
"193 433 CURVE SMOOTH",
"193 644 LINE SMOOTH",
"193 719 OFFCURVE",
"230 750 OFFCURVE",
"305 750 CURVE SMOOTH",
"367 750 LINE",
"367 812 LINE",
"348 816 OFFCURVE",
"323 818 OFFCURVE",
"297 818 CURVE SMOOTH",
"175 818 OFFCURVE",
"113 759 OFFCURVE",
"113 643 CURVE SMOOTH",
"113 428 LINE SMOOTH",
"113 371 OFFCURVE",
"85 345 OFFCURVE",
"31 345 CURVE SMOOTH",
"17 345 LINE",
"17 279 LINE",
"31 279 LINE SMOOTH",
"85 279 OFFCURVE",
"113 254 OFFCURVE",
"113 196 CURVE SMOOTH",
"113 -55 LINE SMOOTH",
"113 -171 OFFCURVE",
"175 -230 OFFCURVE",
"297 -230 CURVE SMOOTH"
);
}
);
width = 348;
}
);
leftKerningGroup = braceleft;
widthMetricsKey = "=bracketleft+20";
rightKerningGroup = brace;
rightMetricsKey = bracketleft;
unicode = 007B;
},
{
glyphname = braceright;
lastChange = "2016-12-22 13:06:35 +0000";
layers = (
{
color = -1;
layerId = "A5DE6A3D-57BF-416A-9BB2-6BD11ABBF04E";
paths = (
{
closed = 1;
nodes = (
"172 -230 OFFCURVE",
"234 -171 OFFCURVE",
"234 -55 CURVE SMOOTH",
"234 196 LINE SMOOTH",
"234 254 OFFCURVE",
"263 279 OFFCURVE",
"316 279 CURVE SMOOTH",
"331 279 LINE",
"331 345 LINE",
"316 345 LINE SMOOTH",
"263 345 OFFCURVE",
"234 371 OFFCURVE",
"234 428 CURVE SMOOTH",
"234 643 LINE SMOOTH",
"234 759 OFFCURVE",
"172 818 OFFCURVE",
"51 818 CURVE SMOOTH",
"24 818 OFFCURVE",
"-1 816 OFFCURVE",
"-19 812 CURVE",
"-19 750 LINE",
"42 750 LINE SMOOTH",
"117 750 OFFCURVE",
"154 719 OFFCURVE",
"154 644 CURVE SMOOTH",
"154 433 LINE SMOOTH",
"154 357 OFFCURVE",
"186 317 OFFCURVE",
"259 307 CURVE",
"259 318 LINE",
"186 308 OFFCURVE",
"154 267 OFFCURVE",
"154 191 CURVE SMOOTH",
"154 -56 LINE SMOOTH",
"154 -131 OFFCURVE",
"117 -162 OFFCURVE",
"42 -162 CURVE SMOOTH",
"-19 -162 LINE",
"-19 -224 LINE",
"-1 -228 OFFCURVE",
"24 -230 OFFCURVE",
"51 -230 CURVE SMOOTH"
);
}
);
width = 348;
}
);
leftKerningGroup = brace;
leftMetricsKey = "=|braceleft";
widthMetricsKey = braceleft;
rightKerningGroup = braceright;
unicode = 007D;
},
{
glyphname = bracketleft;
lastChange = "2016-12-22 13:06:28 +0000";
layers = (
{
color = -1;
layerId = "A5DE6A3D-57BF-416A-9BB2-6BD11ABBF04E";
paths = (
{
closed = 1;
nodes = (
"345 -220 LINE",
"345 -154 LINE",
"173 -154 LINE",
"173 742 LINE",
"347 742 LINE",
"347 808 LINE",
"93 808 LINE",
"93 -220 LINE"
);
}
);
width = 328;
}
);
leftKerningGroup = H;
leftMetricsKey = "=H+10";
rightKerningGroup = brace;
unicode = 005B;
},
{
glyphname = bracketright;
lastChange = "2016-12-22 13:06:35 +0000";
layers = (
{
color = -1;
layerId = "A5DE6A3D-57BF-416A-9BB2-6BD11ABBF04E";
paths = (
{
closed = 1;
nodes = (
"234 -220 LINE",
"234 808 LINE",
"-19 808 LINE",
"-19 742 LINE",
"154 742 LINE",
"154 -154 LINE",
"-18 -154 LINE",
"-18 -220 LINE"
);
}
);
width = 327;
}
);
leftKerningGroup = brace;
leftMetricsKey = "=|braceleft";
rightKerningGroup = H;
rightMetricsKey = "=|bracketleft";
unicode = 005D;
},
{
glyphname = parenleft;
lastChange = "2016-12-22 13:06:28 +0000";
layers = (
{
color = -1;
layerId = "A5DE6A3D-57BF-416A-9BB2-6BD11ABBF04E";
paths = (
{
closed = 1;
nodes = (
"318 -220 LINE",
"195 -66 OFFCURVE",
"144 105 OFFCURVE",
"144 294 CURVE SMOOTH",
"144 483 OFFCURVE",
"195 654 OFFCURVE",
"318 808 CURVE",
"232 808 LINE",
"113 661 OFFCURVE",
"61 486 OFFCURVE",
"61 294 CURVE SMOOTH",
"61 102 OFFCURVE",
"113 -73 OFFCURVE",
"232 -220 CURVE"
);
}
);
width = 328;
}
);
leftKerningGroup = O;
leftMetricsKey = "=O+10";
widthMetricsKey = bracketleft;
rightKerningGroup = brace;
unicode = 0028;
},
{
glyphname = parenright;
lastChange = "2016-12-22 13:06:35 +0000";
layers = (
{
color = -1;
layerId = "A5DE6A3D-57BF-416A-9BB2-6BD11ABBF04E";
paths = (
{
closed = 1;
nodes = (
"96 -220 LINE",
"215 -73 OFFCURVE",
"266 102 OFFCURVE",
"266 294 CURVE SMOOTH",
"266 486 OFFCURVE",
"215 661 OFFCURVE",
"96 808 CURVE",
"10 808 LINE",
"132 654 OFFCURVE",
"183 483 OFFCURVE",
"183 294 CURVE SMOOTH",
"183 105 OFFCURVE",
"132 -66 OFFCURVE",
"10 -220 CURVE"
);
}
);
width = 327;
}
);
leftKerningGroup = brace;
leftMetricsKey = "=|parenleft";
rightKerningGroup = O;
rightMetricsKey = "=|parenleft";
unicode = 0029;
},
{
glyphname = emdash;
lastChange = "2016-12-22 13:06:28 +0000";
layers = (
{
color = -1;
layerId = "A5DE6A3D-57BF-416A-9BB2-6BD11ABBF04E";
paths = (
{
closed = 1;
nodes = (
"900 251 LINE",
"900 312 LINE",
"0 312 LINE",
"0 251 LINE"
);
}
);
width = 900;
}
);
leftKerningGroup = hyphen;
rightKerningGroup = hyphen;
unicode = 2014;
userData = {
com.typemytype.robofont.layerData = {
};
};
},
{
glyphname = endash;
lastChange = "2016-12-22 13:06:28 +0000";
layers = (
{
color = -1;
layerId = "A5DE6A3D-57BF-416A-9BB2-6BD11ABBF04E";
paths = (
{
closed = 1;
nodes = (
"450 251 LINE",
"450 312 LINE",
"0 312 LINE",
"0 251 LINE"
);
}
);
width = 450;
}
);
leftKerningGroup = hyphen;
rightKerningGroup = hyphen;
unicode = 2013;
userData = {
com.typemytype.robofont.layerData = {
};
};
},
{
glyphname = figuredash;
lastChange = "2016-12-22 13:06:28 +0000";
layers = (
{
color = -1;
layerId = "A5DE6A3D-57BF-416A-9BB2-6BD11ABBF04E";
paths = (
{
closed = 1;
nodes = (
"514 251 LINE",
"514 312 LINE",
"65 312 LINE",
"65 251 LINE"
);
}
);
width = 578;
}
);
leftKerningGroup = hyphen;
widthMetricsKey = zero.tf;
rightKerningGroup = hyphen;
unicode = 2012;
},
{
glyphname = hyphen;
lastChange = "2016-12-22 13:06:28 +0000";
layers = (
{
color = -1;
layerId = "A5DE6A3D-57BF-416A-9BB2-6BD11ABBF04E";
paths = (
{
closed = 1;
nodes = (
"344 247 LINE",
"344 315 LINE",
"74 315 LINE",
"74 247 LINE"
);
}
);
width = 419;
}
);
leftKerningGroup = hyphen;
rightKerningGroup = hyphen;
unicode = 002D;
userData = {
com.typemytype.robofont.layerData = {
};
};
},
{
glyphname = guilsinglleft;
lastChange = "2016-12-22 13:06:28 +0000";
layers = (
{
color = -1;
layerId = "A5DE6A3D-57BF-416A-9BB2-6BD11ABBF04E";
paths = (
{
closed = 1;
nodes = (
"266 69 LINE",
"139 281 LINE",
"266 494 LINE",
"183 494 LINE",
"56 281 LINE",
"183 69 LINE"
);
}
);
width = 302;
}
);
leftKerningGroup = guilsinglleft;
rightKerningGroup = guilsinglleft;
unicode = 2039;
userData = {
com.typemytype.robofont.layerData = {
};
};
},
{
glyphname = guilsinglright;
lastChange = "2016-12-22 13:06:28 +0000";
layers = (
{
color = -1;
layerId = "A5DE6A3D-57BF-416A-9BB2-6BD11ABBF04E";
paths = (
{
closed = 1;
nodes = (
"119 69 LINE",
"246 281 LINE",
"119 494 LINE",
"36 494 LINE",
"163 281 LINE",
"36 69 LINE"
);
}
);
width = 302;
}
);
leftKerningGroup = guilsinglright;
leftMetricsKey = "=|guilsinglleft";
rightKerningGroup = guilsinglright;
rightMetricsKey = "=|guilsinglleft";
unicode = 203A;
userData = {
com.typemytype.robofont.layerData = {
};
};
},
{
glyphname = quoteleft;
lastChange = "2016-12-22 13:06:35 +0000";
layers = (
{
color = -1;
layerId = "A5DE6A3D-57BF-416A-9BB2-6BD11ABBF04E";
paths = (
{
closed = 1;
nodes = (
"150 545 OFFCURVE",
"172 567 OFFCURVE",
"172 600 CURVE SMOOTH",
"172 635 OFFCURVE",
"148 656 OFFCURVE",
"114 656 CURVE SMOOTH",
"103 656 LINE",
"117 639 LINE",
"117 694 OFFCURVE",
"131 746 OFFCURVE",
"154 808 CURVE",
"107 808 LINE",
"78 755 OFFCURVE",
"57 687 OFFCURVE",
"57 618 CURVE SMOOTH",
"57 568 OFFCURVE",
"79 545 OFFCURVE",
"117 545 CURVE SMOOTH"
);
}
);
width = 230;
}
);
leftKerningGroup = quoteright;
leftMetricsKey = "=|quoteright";
widthMetricsKey = quoteright;
rightKerningGroup = quoteright;
unicode = 2018;
},
{
glyphname = quoteright;
lastChange = "2016-12-22 13:06:28 +0000";
layers = (
{
color = -1;
layerId = "A5DE6A3D-57BF-416A-9BB2-6BD11ABBF04E";
paths = (
{
closed = 1;
nodes = (
"122 551 LINE",
"152 605 OFFCURVE",
"173 672 OFFCURVE",
"173 741 CURVE SMOOTH",
"173 791 OFFCURVE",
"151 814 OFFCURVE",
"114 814 CURVE SMOOTH",
"80 814 OFFCURVE",
"58 793 OFFCURVE",
"58 759 CURVE SMOOTH",
"58 725 OFFCURVE",
"81 703 OFFCURVE",
"115 703 CURVE SMOOTH",
"126 703 LINE",
"112 721 LINE",
"112 665 OFFCURVE",
"98 614 OFFCURVE",
"75 551 CURVE"
);
}
);
width = 230;
}
);
leftKerningGroup = quoteright;
leftMetricsKey = period;
widthMetricsKey = period;
rightKerningGroup = quoteright;
unicode = 2019;
},
{
glyphname = quotesinglbase;
lastChange = "2016-12-22 13:06:28 +0000";
layers = (
{
color = -1;
layerId = "A5DE6A3D-57BF-416A-9BB2-6BD11ABBF04E";
paths = (
{
closed = 1;
nodes = (
"122 -158 LINE",
"152 -105 OFFCURVE",
"173 -37 OFFCURVE",
"173 32 CURVE SMOOTH",
"173 82 OFFCURVE",
"151 105 OFFCURVE",
"114 105 CURVE SMOOTH",
"80 105 OFFCURVE",
"58 83 OFFCURVE",
"58 50 CURVE SMOOTH",
"58 16 OFFCURVE",
"81 -6 OFFCURVE",
"115 -6 CURVE SMOOTH",
"126 -6 LINE",
"112 11 LINE",
"112 -44 OFFCURVE",
"98 -96 OFFCURVE",
"75 -158 CURVE"
);
}
);
width = 230;
}
);
leftKerningGroup = period;
leftMetricsKey = period;
widthMetricsKey = period;
rightKerningGroup = period;
unicode = 201A;
},
{
glyphname = braceleft.sc;
lastChange = "2016-12-22 13:06:35 +0000";
layers = (
{
color = -1;
layerId = "A5DE6A3D-57BF-416A-9BB2-6BD11ABBF04E";
paths = (
{
closed = 1;
nodes = (
"312 -130 OFFCURVE",
"337 -128 OFFCURVE",
"355 -124 CURVE",
"355 -62 LINE",
"294 -62 LINE SMOOTH",
"230 -62 OFFCURVE",
"193 -31 OFFCURVE",
"193 35 CURVE SMOOTH",
"193 202 LINE SMOOTH",
"193 278 OFFCURVE",
"162 319 OFFCURVE",
"89 329 CURVE",
"89 318 LINE",
"162 328 OFFCURVE",
"193 368 OFFCURVE",
"193 444 CURVE SMOOTH",
"193 585 LINE SMOOTH",
"193 651 OFFCURVE",
"230 682 OFFCURVE",
"294 682 CURVE SMOOTH",
"355 682 LINE",
"355 744 LINE",
"337 748 OFFCURVE",
"312 750 OFFCURVE",
"286 750 CURVE SMOOTH",
"175 750 OFFCURVE",
"113 691 OFFCURVE",
"113 585 CURVE SMOOTH",
"113 439 LINE SMOOTH",
"113 382 OFFCURVE",
"85 357 OFFCURVE",
"31 357 CURVE SMOOTH",
"17 357 LINE",
"17 290 LINE",
"31 290 LINE SMOOTH",
"85 290 OFFCURVE",
"113 265 OFFCURVE",
"113 207 CURVE SMOOTH",
"113 35 LINE SMOOTH",
"113 -71 OFFCURVE",
"175 -130 OFFCURVE",
"286 -130 CURVE SMOOTH"
);
}
);
width = 336;
}
);
leftKerningGroup = braceleft.sc;
leftMetricsKey = braceleft;
rightKerningGroup = brace.sc;
rightMetricsKey = braceleft;
},
{
glyphname = braceright.sc;
lastChange = "2016-12-22 13:06:35 +0000";
layers = (
{
color = -1;
layerId = "A5DE6A3D-57BF-416A-9BB2-6BD11ABBF04E";
paths = (
{
closed = 1;
nodes = (
"161 -130 OFFCURVE",
"223 -71 OFFCURVE",
"223 35 CURVE SMOOTH",
"223 207 LINE SMOOTH",
"223 265 OFFCURVE",
"252 290 OFFCURVE",
"305 290 CURVE SMOOTH",
"320 290 LINE",
"320 357 LINE",
"305 357 LINE SMOOTH",
"252 357 OFFCURVE",
"223 382 OFFCURVE",
"223 439 CURVE SMOOTH",
"223 585 LINE SMOOTH",
"223 691 OFFCURVE",
"161 750 OFFCURVE",
"51 750 CURVE SMOOTH",
"24 750 OFFCURVE",
"-1 748 OFFCURVE",
"-19 744 CURVE",
"-19 682 LINE",
"43 682 LINE SMOOTH",
"106 682 OFFCURVE",
"144 651 OFFCURVE",
"144 585 CURVE SMOOTH",
"144 444 LINE SMOOTH",
"144 368 OFFCURVE",
"174 328 OFFCURVE",
"247 318 CURVE",
"247 329 LINE",
"174 319 OFFCURVE",
"144 278 OFFCURVE",
"144 202 CURVE SMOOTH",
"144 35 LINE SMOOTH",
"144 -31 OFFCURVE",
"106 -62 OFFCURVE",
"43 -62 CURVE SMOOTH",
"-19 -62 LINE",
"-19 -124 LINE",
"-1 -128 OFFCURVE",
"24 -130 OFFCURVE",
"51 -130 CURVE SMOOTH"
);
}
);
width = 337;
}
);
leftKerningGroup = brace.sc;
leftMetricsKey = braceright;
rightKerningGroup = braceright.sc;
rightMetricsKey = braceright;
},
{
glyphname = bracketleft.sc;
lastChange = "2016-12-22 13:06:35 +0000";
layers = (
{
color = -1;
layerId = "A5DE6A3D-57BF-416A-9BB2-6BD11ABBF04E";
paths = (
{
closed = 1;
nodes = (
"317 -124 LINE",
"317 -58 LINE",
"173 -58 LINE",
"173 678 LINE",
"318 678 LINE",
"318 744 LINE",
"93 744 LINE",
"93 -124 LINE"
);
}
);
width = 299;
}
);
leftKerningGroup = H;
leftMetricsKey = bracketleft;
rightKerningGroup = brace.sc;
rightMetricsKey = bracketleft;
},
{
glyphname = bracketright.sc;
lastChange = "2016-12-22 13:06:35 +0000";
layers = (
{
color = -1;
layerId = "A5DE6A3D-57BF-416A-9BB2-6BD11ABBF04E";
paths = (
{
closed = 1;
nodes = (
"206 -120 LINE",
"206 740 LINE",
"-19 740 LINE",
"-19 674 LINE",
"127 674 LINE",
"127 -54 LINE",
"-18 -54 LINE",
"-18 -120 LINE"
);
}
);
width = 299;
}
);
leftKerningGroup = brace.sc;
leftMetricsKey = bracketright;
rightKerningGroup = H;
rightMetricsKey = bracketright;
},
{
glyphname = parenleft.sc;
lastChange = "2016-12-22 13:06:28 +0000";
layers = (
{
color = -1;
layerId = "A5DE6A3D-57BF-416A-9BB2-6BD11ABBF04E";
paths = (
{
closed = 1;
nodes = (
"271 -120 LINE",
"188 2 OFFCURVE",
"144 152 OFFCURVE",
"144 309 CURVE SMOOTH",
"144 469 OFFCURVE",
"189 618 OFFCURVE",
"273 740 CURVE",
"192 740 LINE",
"106 623 OFFCURVE",
"61 467 OFFCURVE",
"61 309 CURVE SMOOTH",
"61 151 OFFCURVE",
"105 -3 OFFCURVE",
"190 -120 CURVE"
);
}
);
width = 328;
}
);
leftKerningGroup = O;
leftMetricsKey = parenleft;
widthMetricsKey = parenleft;
rightKerningGroup = brace.sc;
},
{
glyphname = parenright.sc;
lastChange = "2016-12-22 13:06:35 +0000";
layers = (
{
color = -1;
layerId = "A5DE6A3D-57BF-416A-9BB2-6BD11ABBF04E";
paths = (
{
closed = 1;
nodes = (
"222 -3 OFFCURVE",
"266 151 OFFCURVE",
"266 309 CURVE SMOOTH",
"266 467 OFFCURVE",
"222 623 OFFCURVE",
"136 740 CURVE",
"55 740 LINE",
"138 618 OFFCURVE",
"183 469 OFFCURVE",
"183 309 CURVE SMOOTH",
"183 152 OFFCURVE",
"139 2 OFFCURVE",
"57 -120 CURVE",
"138 -120 LINE"
);
}
);
width = 327;
}
);
leftKerningGroup = brace.sc;
widthMetricsKey = parenright;
rightKerningGroup = O;
rightMetricsKey = parenright;
},
{
glyphname = cedi;
lastChange = "2016-12-22 13:06:28 +0000";
layers = (
{
color = -1;
layerId = "A5DE6A3D-57BF-416A-9BB2-6BD11ABBF04E";
paths = (
{
closed = 1;
nodes = (
"448 -9 OFFCURVE",
"505 1 OFFCURVE",
"554 18 CURVE",
"554 89 LINE",
"495 69 OFFCURVE",
"446 61 OFFCURVE",
"392 61 CURVE SMOOTH",
"233 61 OFFCURVE",
"137 136 OFFCURVE",
"137 371 CURVE SMOOTH",
"137 597 OFFCURVE",
"229 679 OFFCURVE",
"397 679 CURVE SMOOTH",
"451 679 OFFCURVE",
"502 672 OFFCURVE",
"554 657 CURVE",
"554 728 LINE",
"503 742 OFFCURVE",
"451 749 OFFCURVE",
"394 749 CURVE SMOOTH",
"180 749 OFFCURVE",
"51 636 OFFCURVE",
"51 369 CURVE SMOOTH",
"51 91 OFFCURVE",
"182 -9 OFFCURVE",
"386 -9 CURVE SMOOTH"
);
},
{
closed = 1;
nodes = (
"400 -120 LINE",
"400 8 LINE",
"324 8 LINE",
"324 -120 LINE"
);
},
{
closed = 1;
nodes = (
"400 732 LINE",
"400 860 LINE",
"324 860 LINE",
"324 732 LINE"
);
}
);
width = 573;
}
);
leftKerningGroup = O;
leftMetricsKey = O;
rightKerningGroup = C;
rightMetricsKey = C;
unicode = 20B5;
},
{
glyphname = cent;
lastChange = "2016-12-22 13:06:28 +0000";
layers = (
{
color = -1;
layerId = "A5DE6A3D-57BF-416A-9BB2-6BD11ABBF04E";
paths = (
{
closed = 1;
nodes = (
"330 -10 OFFCURVE",
"375 -2 OFFCURVE",
"417 13 CURVE",
"417 81 LINE",
"369 65 OFFCURVE",
"332 59 OFFCURVE",
"297 59 CURVE SMOOTH",
"187 59 OFFCURVE",
"129 115 OFFCURVE",
"129 273 CURVE SMOOTH",
"129 427 OFFCURVE",
"188 483 OFFCURVE",
"313 483 CURVE SMOOTH",
"347 483 OFFCURVE",
"381 478 OFFCURVE",
"417 469 CURVE",
"417 537 LINE",
"381 546 OFFCURVE",
"344 551 OFFCURVE",
"306 551 CURVE SMOOTH",
"138 551 OFFCURVE",
"46 468 OFFCURVE",
"46 271 CURVE SMOOTH",
"46 75 OFFCURVE",
"132 -10 OFFCURVE",
"286 -10 CURVE SMOOTH"
);
},
{
closed = 1;
nodes = (
"315 -120 LINE",
"315 8 LINE",
"245 8 LINE",
"245 -120 LINE"
);
},
{
closed = 1;
nodes = (
"315 535 LINE",
"315 663 LINE",
"245 663 LINE",
"245 535 LINE"
);
}
);
width = 439;
}
);
leftKerningGroup = o;
leftMetricsKey = o;
rightKerningGroup = c;
unicode = 00A2;
userData = {
com.typemytype.robofont.layerData = {
};
};
},
{
glyphname = colonsign;
lastChange = "2016-12-22 13:06:28 +0000";
layers = (
{
color = -1;
layerId = "A5DE6A3D-57BF-416A-9BB2-6BD11ABBF04E";
paths = (
{
closed = 1;
nodes = (
"445 -9 OFFCURVE",
"502 0 OFFCURVE",
"554 18 CURVE",
"554 88 LINE",
"493 68 OFFCURVE",
"443 61 OFFCURVE",
"392 61 CURVE SMOOTH",
"227 61 OFFCURVE",
"137 142 OFFCURVE",
"137 371 CURVE SMOOTH",
"137 597 OFFCURVE",
"230 679 OFFCURVE",
"397 679 CURVE SMOOTH",
"449 679 OFFCURVE",
"500 673 OFFCURVE",
"554 657 CURVE",
"554 728 LINE",
"501 742 OFFCURVE",
"450 749 OFFCURVE",
"393 749 CURVE SMOOTH",
"178 749 OFFCURVE",
"51 636 OFFCURVE",
"51 369 CURVE SMOOTH",
"51 100 OFFCURVE",
"174 -9 OFFCURVE",
"386 -9 CURVE SMOOTH"
);
},
{
closed = 1;
nodes = (
"135 141 LINE",
"55 -120 LINE",
"110 -120 LINE",
"177 96 LINE"
);
},
{
closed = 1;
nodes = (
"249 50 LINE",
"196 -120 LINE",
"252 -120 LINE",
"299 35 LINE"
);
},
{
closed = 1;
nodes = (
"366 709 LINE",
"413 860 LINE",
"357 860 LINE",
"310 709 LINE"
);
},
{
closed = 1;
nodes = (
"507 709 LINE",
"554 860 LINE",
"499 860 LINE",
"452 709 LINE"
);
}
);
width = 573;
}
);
leftKerningGroup = O;
leftMetricsKey = O;
widthMetricsKey = C;
rightKerningGroup = C;
unicode = 20A1;
userData = {
com.typemytype.robofont.layerData = {
};
};
},
{
glyphname = currency;
lastChange = "2016-12-22 13:06:28 +0000";
layers = (
{
color = -1;
layerId = "A5DE6A3D-57BF-416A-9BB2-6BD11ABBF04E";
paths = (
{
closed = 1;
nodes = (
"207 481 LINE",
"147 556 LINE",
"97 608 LINE",
"50 562 LINE",
"103 511 LINE",
"177 452 LINE"
);
},
{
closed = 1;
nodes = (
"475 511 LINE",
"528 562 LINE",
"482 608 LINE",
"431 556 LINE",
"371 481 LINE",
"401 452 LINE"
);
},
{
closed = 1;
nodes = (
"527 178 LINE",
"475 229 LINE",
"405 285 LINE",
"375 254 LINE",
"430 184 LINE",
"481 132 LINE"
);
},
{
closed = 1;
nodes = (
"148 184 LINE",
"204 254 LINE",
"174 285 LINE",
"103 229 LINE",
"51 178 LINE",
"98 132 LINE"
);
},
{
closed = 1;
nodes = (
"387 198 OFFCURVE",
"455 267 OFFCURVE",
"455 370 CURVE SMOOTH",
"455 472 OFFCURVE",
"387 541 OFFCURVE",
"289 541 CURVE SMOOTH",
"191 541 OFFCURVE",
"123 472 OFFCURVE",
"123 370 CURVE SMOOTH",
"123 267 OFFCURVE",
"191 198 OFFCURVE",
"289 198 CURVE SMOOTH"
);
},
{
closed = 1;
nodes = (
"224 250 OFFCURVE",
"178 295 OFFCURVE",
"178 370 CURVE SMOOTH",
"178 445 OFFCURVE",
"224 490 OFFCURVE",
"290 490 CURVE SMOOTH",
"361 490 OFFCURVE",
"401 440 OFFCURVE",
"401 370 CURVE SMOOTH",
"401 294 OFFCURVE",
"355 250 OFFCURVE",
"289 250 CURVE SMOOTH"
);
}
);
width = 578;
}
);
widthMetricsKey = zero.tf;
unicode = 00A4;
userData = {
com.typemytype.robofont.layerData = {
};
};
},
{
glyphname = dollar;
lastChange = "2016-12-22 13:06:28 +0000";
layers = (
{
color = -1;
layerId = "A5DE6A3D-57BF-416A-9BB2-6BD11ABBF04E";
paths = (
{
closed = 1;
nodes = (
"397 -9 OFFCURVE",
"493 67 OFFCURVE",
"493 201 CURVE SMOOTH",
"493 308 OFFCURVE",
"431 370 OFFCURVE",
"294 404 CURVE SMOOTH",
"254 415 LINE SMOOTH",
"153 441 OFFCURVE",
"118 476 OFFCURVE",
"118 549 CURVE SMOOTH",
"118 632 OFFCURVE",
"174 680 OFFCURVE",
"304 680 CURVE SMOOTH",
"356 680 OFFCURVE",
"410 673 OFFCURVE",
"461 658 CURVE",
"461 728 LINE",
"415 742 OFFCURVE",
"356 749 OFFCURVE",
"301 749 CURVE SMOOTH",
"124 749 OFFCURVE",
"36 671 OFFCURVE",
"36 544 CURVE SMOOTH",
"36 437 OFFCURVE",
"98 375 OFFCURVE",
"224 343 CURVE SMOOTH",
"264 332 LINE SMOOTH",
"370 304 OFFCURVE",
"411 270 OFFCURVE",
"411 195 CURVE SMOOTH",
"411 107 OFFCURVE",
"353 60 OFFCURVE",
"229 60 CURVE SMOOTH",
"175 60 OFFCURVE",
"109 69 OFFCURVE",
"47 90 CURVE",
"47 20 LINE",
"105 0 OFFCURVE",
"171 -9 OFFCURVE",
"228 -9 CURVE SMOOTH"
);
},
{
closed = 1;
nodes = (
"302 -120 LINE",
"302 14 LINE",
"227 11 LINE",
"227 -120 LINE"
);
},
{
closed = 1;
nodes = (
"302 732 LINE",
"302 860 LINE",
"227 860 LINE",
"227 732 LINE"
);
}
);
width = 529;
}
);
leftKerningGroup = S;
leftMetricsKey = S;
rightKerningGroup = S;
rightMetricsKey = S;
unicode = 0024;
},
{
glyphname = dong;
lastChange = "2016-12-22 13:06:28 +0000";
layers = (
{
color = -1;
layerId = "A5DE6A3D-57BF-416A-9BB2-6BD11ABBF04E";
paths = (
{
closed = 1;
nodes = (
"324 -9 OFFCURVE",
"376 19 OFFCURVE",
"409 59 CURVE",
"414 59 LINE",
"419 0 LINE",
"488 0 LINE",
"488 808 LINE",
"408 808 LINE",
"408 544 LINE",
"382 548 OFFCURVE",
"350 551 OFFCURVE",
"320 551 CURVE SMOOTH",
"140 551 OFFCURVE",
"46 456 OFFCURVE",
"46 260 CURVE SMOOTH",
"46 62 OFFCURVE",
"142 -9 OFFCURVE",
"259 -9 CURVE SMOOTH"
);
},
{
closed = 1;
nodes = (
"488 -146 LINE",
"488 -85 LINE",
"73 -85 LINE",
"73 -146 LINE"
);
},
{
closed = 1;
nodes = (
"191 60 OFFCURVE",
"127 105 OFFCURVE",
"127 267 CURVE SMOOTH",
"127 422 OFFCURVE",
"192 486 OFFCURVE",
"318 486 CURVE SMOOTH",
"349 486 OFFCURVE",
"383 482 OFFCURVE",
"408 476 CURVE",
"408 126 LINE",
"376 80 OFFCURVE",
"326 60 OFFCURVE",
"278 60 CURVE SMOOTH"
);
},
{
closed = 1;
nodes = (
"559 650 LINE",
"559 706 LINE",
"231 706 LINE",
"231 650 LINE"
);
}
);
width = 562;
}
);
leftKerningGroup = o;
leftMetricsKey = o;
widthMetricsKey = dcroat;
rightKerningGroup = dong;
unicode = 20AB;
},
